<svg width="24" height="24" viewBox="0 0 24 24" fill="none" xmlns="http://www.w3.org/2000/svg">
<path d="M12.006 14.4V10.2M23.1 6.60714V14.5355C23.1003 15.1604 22.9775 15.7791 22.7386 16.3564C22.4997 16.9338 22.1493 17.4584 21.7075 17.9002C21.2658 18.3421 20.7413 18.6926 20.164 18.9317C19.5867 19.1707 18.968 19.2937 18.3432 19.2935H15.1716L12.5556 21.9095C12.4843 21.9851 12.3982 22.0453 12.3028 22.0865C12.2074 22.1276 12.1045 22.1489 12.0006 22.1489C11.8967 22.1489 11.7938 22.1276 11.6984 22.0865C11.603 22.0453 11.5169 21.9851 11.4456 21.9095L8.8296 19.2935H5.6556C5.03083 19.2935 4.41218 19.1705 3.83498 18.9313C3.25778 18.6922 2.73334 18.3417 2.29161 17.8999C1.84989 17.458 1.49953 16.9335 1.26055 16.3563C1.02157 15.779 0.898646 15.1603 0.898804 14.5355V6.60714C0.898804 5.34556 1.39997 4.13565 2.29204 3.24358C3.18411 2.3515 4.39402 1.85034 5.6556 1.85034H18.342C19.6036 1.85034 20.8135 2.3515 21.7056 3.24358C22.5976 4.13565 23.1 5.34556 23.1 6.60714Z" stroke="white" stroke-width="1.5" stroke-linecap="round" stroke-linejoin="round"/>
<path d="M11.8776 7.19263H11.8848" stroke="white" stroke-width="1.5" stroke-linecap="round" stroke-linejoin="round"/>
</svg>
