<svg width="156" height="40" viewBox="0 0 156 40" fill="none" xmlns="http://www.w3.org/2000/svg">
<path d="M0 23.11V7.47501C0 2.97501 3 0 7.345 0C11.69 0 14.78 3.00001 14.78 7.47501V23.11C14.78 27.61 11.745 30.61 7.345 30.61C2.945 30.61 0 27.595 0 23.11ZM11.745 23.28V7.35001C11.745 4.57001 9.95 2.65 7.345 2.65C4.74 2.65 3.03 4.57001 3.03 7.35001V23.28C3.03 26.015 4.785 27.94 7.345 27.94C9.905 27.94 11.745 26.015 11.745 23.28Z" fill="#262B2C"/>
<path d="M31.5649 19.5649C31.5649 21.1449 31.565 22.5999 31.525 24.1799C31.395 27.9399 29.215 30.5849 25.755 30.5849C24.9367 30.6153 24.1235 30.4442 23.3868 30.0868C22.6501 29.7293 22.0125 29.1964 21.53 28.5349C21.4 28.4099 21.3149 28.4949 21.3149 28.6199V38.1199C21.3179 38.1769 21.3087 38.2339 21.2881 38.2871C21.2675 38.3403 21.2358 38.3886 21.1952 38.4287C21.1546 38.4689 21.106 38.5 21.0525 38.52C20.999 38.54 20.9419 38.5485 20.8849 38.5449H18.71C18.653 38.5485 18.5959 38.54 18.5424 38.52C18.489 38.5 18.4403 38.4689 18.3997 38.4287C18.3591 38.3886 18.3275 38.3403 18.3068 38.2871C18.2862 38.2339 18.277 38.1769 18.28 38.1199V9.06488C18.277 9.00786 18.2862 8.95088 18.3068 8.89765C18.3275 8.84442 18.3591 8.79616 18.3997 8.75603C18.4403 8.71589 18.489 8.6848 18.5424 8.66479C18.5959 8.64477 18.653 8.63628 18.71 8.63988H20.8849C20.9419 8.63628 20.999 8.64477 21.0525 8.66479C21.106 8.6848 21.1546 8.71589 21.1952 8.75603C21.2358 8.79616 21.2675 8.84442 21.2881 8.89765C21.3087 8.95088 21.3179 9.00786 21.3149 9.06488V10.3049C21.3149 10.4349 21.4 10.5199 21.53 10.3899C22.0094 9.72198 22.6452 9.18178 23.3817 8.81656C24.1183 8.45133 24.9331 8.27221 25.755 8.29488C29.175 8.29488 31.355 11.0299 31.525 14.8349C31.565 16.4049 31.5649 17.9849 31.5649 19.5649ZM28.535 23.6649C28.575 22.1649 28.535 20.5499 28.535 19.4349V15.2099C28.575 12.7099 27.08 10.9349 24.86 10.9349C22.81 10.9349 21.3149 12.6449 21.3149 15.2099V23.6649C21.3149 26.2299 22.815 27.9399 24.86 27.9399C27.04 27.9399 28.575 26.2299 28.535 23.6649Z" fill="#262B2C"/>
<path d="M47.075 20.5899H37.335C37.2911 20.5934 37.2498 20.6124 37.2186 20.6435C37.1875 20.6747 37.1684 20.716 37.165 20.7599V23.8799C37.165 26.2699 38.665 27.9399 40.795 27.9399C41.6524 27.9504 42.4851 27.6536 43.1427 27.1034C43.8003 26.5531 44.2392 25.7857 44.38 24.9399C44.465 24.6799 44.595 24.5549 44.85 24.5549L46.99 24.6399C47.0485 24.6382 47.1065 24.6501 47.1597 24.6745C47.2128 24.699 47.2596 24.7354 47.2964 24.7808C47.3331 24.8263 47.3589 24.8797 47.3717 24.9368C47.3845 24.9938 47.3839 25.0531 47.37 25.1099C46.9 28.4399 44.555 30.5749 40.795 30.5749C36.735 30.5749 34.13 27.9699 34.13 24.0399V14.8249C34.13 10.9799 36.735 8.28491 40.795 8.28491C44.935 8.28491 47.5 10.9799 47.5 14.8249V20.1649C47.5037 20.2217 47.4952 20.2786 47.4751 20.3318C47.4551 20.385 47.4239 20.4334 47.3837 20.4736C47.3435 20.5138 47.2951 20.545 47.2419 20.565C47.1887 20.5851 47.1318 20.5936 47.075 20.5899ZM37.17 15.0349V17.8999C37.1734 17.9439 37.1925 17.9851 37.2236 18.0163C37.2548 18.0475 37.2961 18.0665 37.34 18.0699H44.34C44.3839 18.0665 44.4252 18.0475 44.4564 18.0163C44.4875 17.9851 44.5066 17.9439 44.51 17.8999V15.0349C44.51 12.5999 43.01 10.9349 40.795 10.9349C38.67 10.9349 37.17 12.5999 37.17 15.0349Z" fill="#262B2C"/>
<path d="M63.3211 15.3507V30.0457C63.3248 30.1031 63.3162 30.1606 63.2958 30.2145C63.2755 30.2683 63.244 30.3172 63.2033 30.3579C63.1626 30.3985 63.1137 30.4301 63.0599 30.4504C63.0061 30.4707 62.9485 30.4793 62.8911 30.4757H60.7161C60.6587 30.4793 60.6011 30.4707 60.5473 30.4504C60.4935 30.4301 60.4446 30.3985 60.4039 30.3579C60.3632 30.3172 60.3317 30.2683 60.3113 30.2145C60.291 30.1606 60.2824 30.1031 60.2861 30.0457V15.6107C60.2861 12.8307 59.0461 11.2107 56.8711 11.2107C54.6061 11.2107 53.1961 12.9607 53.1961 15.8207V30.0457C53.1997 30.1026 53.1912 30.1597 53.1712 30.2132C53.1512 30.2667 53.1201 30.3153 53.08 30.3559C53.0398 30.3965 52.9916 30.4282 52.9383 30.4488C52.8851 30.4694 52.8281 30.4786 52.7711 30.4757H50.5911C50.5337 30.4793 50.4761 30.4707 50.4223 30.4504C50.3685 30.4301 50.3196 30.3985 50.2789 30.3579C50.2382 30.3172 50.2067 30.2683 50.1863 30.2145C50.166 30.1606 50.1574 30.1031 50.1611 30.0457V9.29566C50.1582 9.23865 50.1673 9.18166 50.188 9.12843C50.2086 9.07521 50.2403 9.02694 50.2809 8.98681C50.3215 8.94668 50.3701 8.91559 50.4236 8.89557C50.477 8.87555 50.5341 8.86706 50.5911 8.87066H52.7711C52.8279 8.86699 52.8848 8.87547 52.938 8.89552C52.9912 8.91558 53.0396 8.94676 53.0798 8.98699C53.12 9.02721 53.1512 9.07555 53.1712 9.12878C53.1913 9.18201 53.1998 9.2389 53.1961 9.29566V10.7057C53.1961 10.8357 53.3261 10.8757 53.4111 10.7507C53.916 10.0514 54.585 9.48693 55.3592 9.10681C56.1333 8.72668 56.9891 8.54257 57.8511 8.57066C61.3561 8.56066 63.3211 11.0807 63.3211 15.3507Z" fill="#262B2C"/>
<path d="M81.545 8.56491C81.545 13.4799 78.815 16.7249 74.71 16.7249H70.31C70.266 16.7283 70.2248 16.7474 70.1936 16.7785C70.1624 16.8097 70.1434 16.851 70.14 16.8949V29.7949C70.1436 29.8519 70.1351 29.909 70.1151 29.9624C70.095 30.0159 70.0639 30.0645 70.0238 30.1051C69.9837 30.1457 69.9354 30.1774 69.8822 30.198C69.829 30.2187 69.772 30.2278 69.715 30.2249H67.535C67.478 30.2278 67.421 30.2187 67.3677 30.198C67.3145 30.1774 67.2662 30.1457 67.2261 30.1051C67.186 30.0645 67.1549 30.0159 67.1349 29.9624C67.1149 29.909 67.1064 29.8519 67.11 29.7949V0.724911C67.1063 0.668147 67.1148 0.611247 67.1348 0.558018C67.1549 0.504789 67.1861 0.456448 67.2263 0.416225C67.2665 0.376003 67.3148 0.344823 67.3681 0.324764C67.4213 0.304706 67.4782 0.296234 67.535 0.299908H74.585C78.77 0.299908 81.545 3.62991 81.545 8.56491ZM78.515 8.60991C78.515 5.14991 76.76 2.9299 74.2 2.9299H70.31C70.266 2.93334 70.2248 2.95237 70.1936 2.98353C70.1624 3.0147 70.1434 3.05597 70.14 3.09991V14.0749C70.1422 14.1197 70.1608 14.1622 70.192 14.1944C70.2233 14.2266 70.2652 14.2463 70.31 14.2499H74.2C76.76 14.2699 78.515 12.0899 78.515 8.62991V8.60991Z" fill="#262B2C"/>
<path d="M92.995 8.88497C93.0855 8.94223 93.1553 9.02708 93.194 9.127C93.2328 9.22692 93.2383 9.33664 93.21 9.43997L92.74 11.62C92.695 11.92 92.48 11.96 92.185 11.875C91.6177 11.6378 90.9917 11.5785 90.39 11.705C88.34 11.835 86.89 14.095 86.89 17V29.815C86.8936 29.8719 86.8851 29.929 86.8651 29.9825C86.845 30.036 86.8139 30.0846 86.7738 30.1252C86.7337 30.1658 86.6854 30.1975 86.6322 30.2181C86.579 30.2388 86.522 30.2479 86.465 30.245H84.285C84.228 30.2479 84.171 30.2388 84.1177 30.2181C84.0645 30.1975 84.0162 30.1658 83.9761 30.1252C83.936 30.0846 83.9049 30.036 83.8849 29.9825C83.8649 29.929 83.8564 29.8719 83.86 29.815V9.06497C83.8563 9.00821 83.8648 8.95132 83.8848 8.89809C83.9049 8.84486 83.9361 8.79652 83.9763 8.75629C84.0165 8.71607 84.0648 8.68489 84.1181 8.66483C84.1713 8.64477 84.2282 8.63629 84.285 8.63997H86.465C86.5217 8.63629 86.5786 8.64477 86.6318 8.66483C86.6851 8.68489 86.7334 8.71607 86.7736 8.75629C86.8139 8.79652 86.845 8.84486 86.8651 8.89809C86.8852 8.95132 86.8936 9.00821 86.89 9.06497V11.63C86.89 11.8 87.02 11.8 87.105 11.67C87.83 9.74997 89.105 8.42497 91.165 8.42497C91.8062 8.4023 92.4407 8.56179 92.995 8.88497Z" fill="#262B2C"/>
<path d="M94.0199 24.0649V14.8249C94.0199 10.9799 96.6249 8.28491 100.725 8.28491C104.825 8.28491 107.475 10.9799 107.475 14.8249V24.0649C107.475 27.9949 104.83 30.5999 100.725 30.5999C96.6199 30.5999 94.0199 27.9799 94.0199 24.0649ZM104.445 23.8949V15.0349C104.445 12.5999 102.905 10.9349 100.725 10.9349C98.5449 10.9349 97.0549 12.5999 97.0549 15.0349V23.8799C97.0549 26.2699 98.5549 27.9399 100.725 27.9399C102.895 27.9399 104.445 26.2699 104.445 23.8799V23.8949Z" fill="#262B2C"/>
<path d="M106.58 38.705V36.91C106.576 36.8531 106.585 36.796 106.605 36.7425C106.625 36.689 106.656 36.6404 106.696 36.5998C106.736 36.5592 106.784 36.5276 106.838 36.5069C106.891 36.4863 106.948 36.4771 107.005 36.48C109.44 36.395 110.465 34.73 110.465 32.125V9.06505C110.462 9.00803 110.471 8.95105 110.492 8.89782C110.512 8.84459 110.544 8.79633 110.585 8.7562C110.625 8.71606 110.674 8.68497 110.727 8.66496C110.781 8.64494 110.838 8.63645 110.895 8.64005H113.07C113.127 8.63645 113.184 8.64494 113.237 8.66496C113.291 8.68497 113.34 8.71606 113.38 8.7562C113.421 8.79633 113.452 8.84459 113.473 8.89782C113.494 8.95105 113.503 9.00803 113.5 9.06505V32.1351C113.5 36.4051 112.345 39.1351 107 39.1351C106.943 39.1381 106.886 39.1289 106.833 39.1082C106.78 39.0875 106.732 39.0558 106.693 39.0151C106.653 38.9744 106.622 38.9257 106.603 38.8722C106.583 38.8188 106.576 38.7618 106.58 38.705ZM109.87 2.52005C109.856 2.23399 109.9 1.94807 110 1.67965C110.1 1.41123 110.253 1.16589 110.451 0.958511C110.648 0.751131 110.886 0.586031 111.149 0.473221C111.413 0.360411 111.696 0.302246 111.982 0.302246C112.269 0.302246 112.552 0.360411 112.815 0.473221C113.079 0.586031 113.316 0.751131 113.514 0.958511C113.711 1.16589 113.865 1.41123 113.965 1.67965C114.065 1.94807 114.109 2.23399 114.095 2.52005C114.109 2.80611 114.065 3.09202 113.965 3.36044C113.865 3.62886 113.711 3.8742 113.514 4.08158C113.316 4.28896 113.079 4.45406 112.815 4.56687C112.552 4.67968 112.269 4.73785 111.982 4.73785C111.696 4.73785 111.413 4.67968 111.149 4.56687C110.886 4.45406 110.648 4.28896 110.451 4.08158C110.253 3.8742 110.1 3.62886 110 3.36044C109.9 3.09202 109.856 2.80611 109.87 2.52005Z" fill="#262B2C"/>
<path d="M129.475 20.5899H119.735C119.691 20.5934 119.65 20.6124 119.619 20.6435C119.587 20.6747 119.568 20.716 119.565 20.7599V23.8799C119.565 26.2699 121.065 27.9399 123.195 27.9399C124.053 27.9505 124.886 27.654 125.545 27.1038C126.203 26.5536 126.643 25.7861 126.785 24.9399C126.87 24.6799 127 24.5549 127.255 24.5549L129.39 24.6399C129.448 24.6385 129.507 24.6504 129.56 24.6748C129.613 24.6992 129.66 24.7355 129.697 24.7808C129.734 24.8262 129.761 24.8794 129.774 24.9364C129.788 24.9934 129.788 25.0528 129.775 25.1099C129.305 28.4399 126.955 30.5749 123.195 30.5749C119.14 30.5749 116.53 27.9699 116.53 24.0399V14.8249C116.53 10.9799 119.14 8.28491 123.195 8.28491C127.34 8.28491 129.905 10.9799 129.905 14.8249V20.1649C129.908 20.2219 129.899 20.2789 129.878 20.3321C129.857 20.3854 129.826 20.4336 129.785 20.4738C129.745 20.5139 129.696 20.545 129.642 20.565C129.589 20.585 129.532 20.5935 129.475 20.5899ZM119.565 15.0349V17.8999C119.568 17.9439 119.587 17.9851 119.619 18.0163C119.65 18.0475 119.691 18.0665 119.735 18.0699H126.735C126.779 18.0665 126.82 18.0475 126.851 18.0163C126.882 17.9851 126.901 17.9439 126.905 17.8999V15.0349C126.905 12.5999 125.405 10.9349 123.19 10.9349C121.06 10.9349 119.565 12.5999 119.565 15.0349Z" fill="#262B2C"/>
<path d="M132.21 24.0649V14.8249C132.21 11.0199 134.815 8.28491 138.875 8.28491C142.935 8.28491 145.625 11.0199 145.625 14.2249V14.6499C145.629 14.7073 145.62 14.7649 145.6 14.8187C145.579 14.8725 145.548 14.9214 145.507 14.9621C145.466 15.0028 145.418 15.0343 145.364 15.0547C145.31 15.075 145.252 15.0836 145.195 15.0799L143.015 15.1649C142.961 15.169 142.908 15.1621 142.857 15.1448C142.806 15.1274 142.759 15.0998 142.72 15.0638C142.68 15.0278 142.648 14.984 142.626 14.9352C142.603 14.8864 142.591 14.8336 142.59 14.7799V14.4399C142.581 13.9646 142.477 13.4958 142.285 13.0611C142.092 12.6264 141.815 12.2345 141.469 11.9085C141.123 11.5825 140.715 11.3289 140.27 11.1625C139.824 10.9962 139.35 10.9205 138.875 10.9399C136.735 10.9399 135.24 12.6049 135.24 15.0399V23.8399C135.24 26.2749 136.74 27.9449 138.875 27.9449C139.35 27.9643 139.824 27.8886 140.27 27.7223C140.715 27.556 141.123 27.3023 141.469 26.9763C141.815 26.6503 142.092 26.2584 142.285 25.8237C142.477 25.389 142.581 24.9203 142.59 24.4449V24.1449C142.586 24.0881 142.595 24.0313 142.615 23.978C142.635 23.9248 142.666 23.8764 142.706 23.8362C142.747 23.796 142.795 23.7648 142.848 23.7448C142.901 23.7247 142.958 23.7162 143.015 23.7199L145.195 23.7599C145.252 23.7562 145.31 23.7648 145.364 23.7852C145.418 23.8055 145.466 23.837 145.507 23.8777C145.548 23.9184 145.579 23.9673 145.6 24.0211C145.62 24.075 145.629 24.1325 145.625 24.1899V24.6599C145.625 27.9899 142.975 30.5949 138.875 30.5949C134.775 30.5949 132.21 27.9799 132.21 24.0649Z" fill="#262B2C"/>
<path d="M155.17 10.895H151.925C151.881 10.8984 151.84 10.9174 151.809 10.9486C151.777 10.9798 151.758 11.021 151.755 11.065V24.135C151.755 26.87 152.755 27.595 154.53 27.555H154.96C155.017 27.5513 155.074 27.5598 155.127 27.5798C155.18 27.5999 155.228 27.6311 155.269 27.6713C155.309 27.7115 155.34 27.7599 155.36 27.8131C155.38 27.8663 155.389 27.9232 155.385 27.98V29.815C155.389 29.8719 155.38 29.929 155.36 29.9825C155.34 30.036 155.309 30.0846 155.269 30.1252C155.229 30.1658 155.18 30.1975 155.127 30.2181C155.074 30.2388 155.017 30.2479 154.96 30.245H153.89C150.855 30.245 148.765 29.35 148.765 25.035V11.065C148.762 11.021 148.743 10.9798 148.711 10.9486C148.68 10.9174 148.639 10.8984 148.595 10.895H146.925C146.868 10.8979 146.811 10.8888 146.758 10.8681C146.705 10.8475 146.656 10.8158 146.616 10.7752C146.576 10.7346 146.545 10.686 146.525 10.6325C146.505 10.579 146.496 10.5219 146.5 10.465V9.06497C146.496 9.00821 146.505 8.95132 146.525 8.89809C146.545 8.84486 146.576 8.79652 146.616 8.75629C146.657 8.71607 146.705 8.68489 146.758 8.66483C146.811 8.64477 146.868 8.6363 146.925 8.63997H148.595C148.639 8.63653 148.68 8.61752 148.711 8.58635C148.743 8.55518 148.762 8.51391 148.765 8.46997V3.68498C148.761 3.628 148.77 3.57091 148.79 3.51744C148.81 3.46398 148.841 3.41534 148.881 3.37474C148.921 3.33414 148.97 3.30248 149.023 3.28184C149.076 3.2612 149.133 3.25204 149.19 3.25497H151.325C151.382 3.25131 151.44 3.25991 151.494 3.28022C151.548 3.30053 151.597 3.33209 151.637 3.37277C151.678 3.41346 151.709 3.46234 151.73 3.51617C151.75 3.57001 151.759 3.62755 151.755 3.68498V8.46997C151.758 8.51391 151.777 8.55518 151.809 8.58635C151.84 8.61752 151.881 8.63653 151.925 8.63997H155.17C155.227 8.63637 155.284 8.64486 155.338 8.66488C155.391 8.6849 155.44 8.71599 155.48 8.75612C155.521 8.79625 155.552 8.84452 155.573 8.89774C155.594 8.95097 155.603 9.00796 155.6 9.06497V10.475C155.602 10.5316 155.592 10.588 155.572 10.6406C155.551 10.6933 155.519 10.7409 155.478 10.7805C155.438 10.8201 155.389 10.8507 155.336 10.8704C155.283 10.8902 155.227 10.8985 155.17 10.895Z" fill="#262B2C"/>
</svg>
