<svg width="16" height="16" viewBox="0 0 16 16" fill="none" xmlns="http://www.w3.org/2000/svg">
<path d="M11.3334 6.66683H12.6667C14 6.66683 14.6667 6.00016 14.6667 4.66683V3.3335C14.6667 2.00016 14 1.3335 12.6667 1.3335H11.3334C10 1.3335 9.33337 2.00016 9.33337 3.3335V4.66683C9.33337 6.00016 10 6.66683 11.3334 6.66683Z" stroke="#848D90" stroke-miterlimit="10" stroke-linecap="round" stroke-linejoin="round"/>
<path d="M3.33337 14.6668H4.66671C6.00004 14.6668 6.66671 14.0002 6.66671 12.6668V11.3335C6.66671 10.0002 6.00004 9.3335 4.66671 9.3335H3.33337C2.00004 9.3335 1.33337 10.0002 1.33337 11.3335V12.6668C1.33337 14.0002 2.00004 14.6668 3.33337 14.6668Z" stroke="#848D90" stroke-miterlimit="10" stroke-linecap="round" stroke-linejoin="round"/>
<path d="M4.00004 6.66683C5.4728 6.66683 6.66671 5.47292 6.66671 4.00016C6.66671 2.5274 5.4728 1.3335 4.00004 1.3335C2.52728 1.3335 1.33337 2.5274 1.33337 4.00016C1.33337 5.47292 2.52728 6.66683 4.00004 6.66683Z" stroke="#848D90" stroke-miterlimit="10" stroke-linecap="round" stroke-linejoin="round"/>
<path d="M12 14.6668C13.4728 14.6668 14.6667 13.4729 14.6667 12.0002C14.6667 10.5274 13.4728 9.3335 12 9.3335C10.5273 9.3335 9.33337 10.5274 9.33337 12.0002C9.33337 13.4729 10.5273 14.6668 12 14.6668Z" stroke="#848D90" stroke-miterlimit="10" stroke-linecap="round" stroke-linejoin="round"/>
</svg>
