<svg width="39" height="39" viewBox="0 0 39 39" fill="none" xmlns="http://www.w3.org/2000/svg">
<g clip-path="url(#clip0_957_10396)">
<path d="M20.4433 3.97911C22.2446 2.10823 25.2816 0.861497 27.8752 0.809909C30.7423 0.761473 33.5135 1.84301 35.5899 3.82086C37.2288 5.40076 38.2328 7.28868 38.7021 9.50374C38.8841 10.515 38.9596 11.4634 38.8564 12.4883C38.8322 12.7283 38.8108 13.1017 38.7531 13.3289C38.3769 15.7794 37.0945 17.78 35.3146 19.4452C35.4456 19.6408 35.6814 19.8117 35.8465 19.9875C36.2197 20.3802 36.5691 20.7953 36.8923 21.2302C38.5924 23.5319 39.2146 26.4925 38.7538 29.3025C38.711 29.5798 38.6477 29.8533 38.5647 30.1212C38.5074 30.4173 38.316 30.9589 38.2042 31.2464C37.415 33.2347 36.0505 34.9422 34.2853 36.1502C34.0241 36.3271 33.6751 36.5679 33.4063 36.7216C31.186 37.9864 28.5835 38.4059 26.078 37.9034C24.2201 37.5278 22.4866 36.6896 21.0384 35.4665C20.4086 34.928 19.9986 34.474 19.4832 33.8434C19.2646 34.0889 18.4996 34.9912 18.2652 35.1235C18.2189 35.1712 18.1719 35.2185 18.124 35.2649C17.7839 35.5935 17.3334 35.92 16.9457 36.1848C15.0677 37.4878 12.8251 38.1622 10.5399 38.1112C7.7071 38.0264 5.019 36.8405 3.04655 34.8054C-0.751098 30.8306 -1.03417 24.8926 2.47746 20.6062C2.79877 20.214 3.24715 19.8253 3.61777 19.4728C3.55586 19.3911 3.42693 19.2828 3.35006 19.2086C2.98779 18.8591 2.64729 18.4872 2.3294 18.0959C0.912826 16.3285 0.10435 14.1511 0.0240814 11.8875C-0.043756 10.0474 0.409151 8.13405 1.27947 6.52081C1.43139 6.23916 1.72274 5.68268 1.93562 5.45319C1.99833 5.324 2.38123 4.84814 2.48469 4.72221C3.41679 3.58769 4.93272 2.33769 6.32176 1.81002C6.64053 1.63497 7.14423 1.46719 7.4932 1.35352C9.52346 0.67863 11.7115 0.640094 13.7643 1.24302C15.484 1.74935 17.0567 2.66214 18.3494 3.90428C18.5934 4.1455 18.8301 4.39405 19.059 4.64964C19.1664 4.77151 19.3633 5.02191 19.4761 5.11347C19.8282 4.63222 20.041 4.41197 20.4433 3.97911ZM26.795 33.0085C26.9109 33.0123 27.3753 33.109 27.5533 33.1266C28.9893 33.2686 30.527 32.7812 31.6471 31.893C32.9508 30.8595 33.6351 29.6193 33.824 27.982C33.8243 27.7564 33.8618 27.5218 33.8589 27.2896C33.852 26.7142 33.7321 26.1431 33.5659 25.595C33.527 25.4864 33.4849 25.379 33.4396 25.2729C32.8129 23.7756 31.7976 22.8187 30.3139 22.21C30.0169 22.1174 29.6965 22.0331 29.3869 21.9958C29.168 21.9696 28.9567 21.974 28.7371 21.933C28.6059 21.9243 28.4748 21.9146 28.3438 21.9037C25.3573 21.6446 22.6273 19.9889 20.6288 17.8066C20.3667 17.5203 20.1234 17.2106 19.8734 16.9129C19.4841 17.3751 19.0912 17.8368 18.6375 18.2376C18.3221 18.5462 17.9852 18.832 17.6294 19.093C17.4138 19.2501 17.0063 19.5214 16.8263 19.687L16.8486 19.709C17.1053 19.9593 17.5173 20.2402 17.8148 20.5132C18.8823 21.4844 19.7853 22.622 20.4883 23.8824C21.0697 24.9 21.5487 25.9728 21.9188 27.0849C22.1388 27.738 22.297 28.4055 22.5217 29.063C23.0338 30.5614 24.0922 31.8145 25.5 32.5439C25.9084 32.7554 26.3559 32.8815 26.795 33.0085ZM5.10671 11.0138C5.09956 11.2019 5.0959 11.3958 5.07343 11.5822C5.15124 14.1833 6.67298 16.1503 9.12909 16.9549C9.47671 17.0096 10.0583 16.8823 10.4229 16.8727C10.5332 16.8375 10.7962 16.7952 10.92 16.7705C11.1978 16.7162 11.4726 16.6471 11.7432 16.5637C13.4606 16.0208 14.923 14.9549 16.0815 13.5889C16.1693 13.4568 16.2749 13.3441 16.3626 13.2108C16.7052 12.6903 16.8993 12.2636 17.0656 11.6696C16.8744 10.9504 16.5948 10.1591 16.3101 9.46989C16.2067 9.23899 16.0504 9.01625 15.927 8.79993C14.2183 5.80421 10.4566 4.85533 7.58048 6.79684C7.45187 6.88366 7.33298 6.98719 7.20547 7.0792C5.92158 8.19492 5.29968 9.30618 5.10671 11.0138ZM33.0334 14.4432C34.347 12.2089 34.0673 9.5589 32.321 7.6276C31.6562 6.89247 30.5589 6.22884 29.5929 5.97616C28.0743 5.58036 26.4607 5.80872 25.1115 6.61024C23.795 7.39193 22.8984 8.65484 22.5228 10.1311C22.4746 10.4343 22.3823 10.9637 22.3969 11.2516C22.4684 11.5341 22.6635 11.9009 22.8038 12.1635C23.6611 13.7682 24.858 15.1553 26.4234 16.0981C27.0956 16.503 28.7533 17.1224 29.4941 16.972C30.6957 16.8656 32.1408 15.7314 32.8112 14.7605C32.8809 14.6594 32.9494 14.5284 33.0334 14.4432ZM16.6378 27.5371C16.5773 27.2217 16.3358 26.8039 16.172 26.5178C15.3389 25.062 14.4635 24.1281 13.1366 23.1386C13.0159 23.0944 12.5675 22.7925 12.4193 22.7135C11.6472 22.301 10.9505 22.1041 10.0918 21.9774C9.96551 21.9758 9.59563 21.9649 9.48843 21.9843C8.41333 22.1783 7.52066 22.6637 6.74026 23.4091C5.74264 24.3621 5.06573 25.9615 5.05092 27.3349C5.04939 27.8008 5.10027 28.2654 5.20263 28.72C5.22449 28.8157 5.33344 29.1622 5.33848 29.2226C5.41923 29.3855 5.50026 29.6173 5.58239 29.7962C5.8501 30.394 6.22107 30.9401 6.67831 31.4093C7.71207 32.4706 9.31076 33.1499 10.8041 33.1426C12.4036 33.1539 13.9069 32.4427 15.023 31.3074C15.9478 30.3667 16.644 28.8643 16.6378 27.5371Z" fill="#0656A6"/>
<path d="M20.432 3.97081C22.2334 2.09993 25.2703 0.853197 27.8639 0.801608C30.731 0.753172 33.5022 1.83471 35.5787 3.81256C37.2175 5.39246 38.2216 7.28038 38.6908 9.49544C38.8728 10.5067 38.9483 11.4551 38.8451 12.48C38.8209 12.72 38.7996 13.0933 38.7419 13.3206C38.6027 13.4653 38.6722 13.7009 38.5732 13.9188C38.523 13.9013 38.5177 13.8964 38.472 13.868C38.4251 13.8772 38.3206 13.9241 38.2964 13.9254C37.7208 13.9568 37.0795 13.9474 36.5085 14.0073C35.5997 14.1027 34.8281 14.0504 33.9284 13.9678C33.5193 13.9302 33.4858 14.4971 33.134 14.3847C33.0891 14.4118 33.1031 14.3984 33.0772 14.4446C33.0618 14.4424 33.035 14.44 33.0221 14.4349C34.3358 12.2006 34.0561 9.5506 32.3098 7.6193C31.6449 6.88417 30.5477 6.22054 29.5816 5.96786C28.063 5.57206 26.4495 5.80042 25.1003 6.60194C23.7837 7.38363 22.8871 8.64654 22.5115 10.1228C22.4634 10.426 22.371 10.9554 22.3857 11.2433C22.2103 10.9675 21.8906 10.1945 21.759 9.86551C21.4853 9.18005 21.2343 8.48738 20.9508 7.80275C20.9037 7.68894 20.5552 6.88248 20.549 6.85041C20.4591 6.50372 19.713 5.44183 19.4648 5.10517C19.8169 4.62392 20.0298 4.40367 20.432 3.97081Z" fill="url(#paint0_linear_957_10396)"/>
<path d="M20.4432 3.97911C22.2446 2.10823 25.2815 0.861497 27.8752 0.809909C30.7423 0.761473 33.5135 1.84301 35.5899 3.82086C37.2288 5.40076 38.2328 7.28868 38.702 9.50374L38.6721 9.55704C38.6037 9.46259 38.6794 9.43142 38.6024 9.33246C38.5325 9.34893 38.566 9.33601 38.5071 9.40094C38.4279 9.24112 38.3771 9.03115 38.2996 8.86237C38.0923 8.41133 37.8878 7.94957 37.6328 7.52359C37.5529 7.39 37.4572 7.2642 37.3899 7.124C37.2967 6.7431 36.468 5.7415 36.1641 5.4343C34.4462 3.6971 31.9285 2.76132 29.4918 3.03793C27.6183 3.25061 25.5626 4.27683 24.377 5.76663C23.9608 6.15165 22.99 7.73866 22.8573 8.25836C22.9252 8.31248 22.9094 8.31879 22.9436 8.41755C22.8022 8.68188 22.442 9.86266 22.5228 10.1311C22.4746 10.4343 22.3822 10.9637 22.3969 11.2516C22.2215 10.9758 21.9019 10.2028 21.7702 9.87381C21.4965 9.18835 21.2455 8.49568 20.962 7.81105C20.915 7.69724 20.5664 6.89078 20.5602 6.85871C20.4703 6.51202 19.7242 5.45013 19.4761 5.11347C19.8281 4.63222 20.041 4.41197 20.4432 3.97911Z" fill="url(#paint1_linear_957_10396)"/>
<path d="M19.4761 5.11313C19.8281 4.63187 20.041 4.41162 20.4432 3.97876L20.4543 3.99366C20.7232 4.34862 21.0473 4.67203 21.3059 5.04908C21.8164 5.79345 22.2542 6.60901 22.5561 7.46153C22.5951 7.57165 22.8065 8.24468 22.8573 8.25802C22.9252 8.31214 22.9094 8.31844 22.9436 8.4172C22.8022 8.68153 22.442 9.86232 22.5228 10.1307C22.4746 10.4339 22.3822 10.9633 22.3969 11.2512C22.2215 10.9755 21.9019 10.2024 21.7702 9.87346C21.4965 9.18801 21.2455 8.49534 20.962 7.8107C20.915 7.69689 20.5664 6.89044 20.5602 6.85836C20.4703 6.51167 19.7242 5.44978 19.4761 5.11313Z" fill="#1597B5"/>
<path d="M24.377 5.76689C25.5626 4.27709 27.6183 3.25087 29.4918 3.03819C31.9285 2.76158 34.4462 3.69737 36.1641 5.43457C36.468 5.74176 37.2967 6.74336 37.3899 7.12426C37.2882 7.01838 37.0807 6.68527 36.9717 6.54822C36.765 6.28786 36.5655 6.06224 36.3315 5.82709C34.767 4.23367 32.6289 3.33434 30.396 3.33057C28.5968 3.33441 26.8185 3.90916 25.4309 5.06115C25.0895 5.34449 24.8278 5.60986 24.5152 5.92248L24.5286 5.85027C24.6025 5.76931 24.6085 5.75697 24.6449 5.65335L24.6216 5.62645C24.4957 5.65097 24.4888 5.68773 24.377 5.76689Z" fill="#60DDF0"/>
<path d="M24.3776 5.76667C24.4895 5.68751 24.4963 5.65075 24.6222 5.62622L24.6455 5.65312C24.6091 5.75675 24.6031 5.76909 24.5292 5.85004L24.5159 5.92225C24.0959 6.43337 23.8013 6.79484 23.4735 7.37956C23.3021 7.68498 23.1041 8.1558 22.9443 8.41758C22.9101 8.31883 22.9258 8.31252 22.8579 8.2584C22.9907 7.7387 23.9614 6.15169 24.3776 5.76667Z" fill="#10A4D3"/>
<path d="M33.0334 14.4432C33.0463 14.4482 33.0731 14.4507 33.0885 14.4529C33.1144 14.4066 33.1004 14.42 33.1453 14.3929C33.4971 14.5054 33.5306 13.9384 33.9397 13.976C34.8394 14.0586 35.611 14.1109 36.5198 14.0155C37.0908 13.9556 37.7321 13.9651 38.3077 13.9337C38.3319 13.9324 38.4364 13.8854 38.4833 13.8762C38.529 13.9047 38.5343 13.9095 38.5845 13.927C38.6835 13.7092 38.614 13.4736 38.7532 13.3289C38.3769 15.7794 37.0945 17.7799 35.3147 19.4452C35.312 19.4399 35.3092 19.4343 35.3063 19.429C33.9169 18.2208 32.2225 17.415 30.4047 17.1245C29.9894 17.0581 29.796 16.999 29.4941 16.9719C30.6957 16.8656 32.1408 15.7313 32.8112 14.7604C32.8809 14.6593 32.9495 14.5283 33.0334 14.4432Z" fill="#0769AC"/>
<path d="M27.0117 18.9403L27.0437 18.9201C27.637 19.1241 28.2479 19.2733 28.8684 19.3661L28.8868 19.3554C28.8519 19.3361 28.5525 18.8899 28.5265 18.8206C28.3973 18.4766 27.8242 17.3731 28.5438 17.3499C28.5825 17.3486 28.5645 17.3528 28.5909 17.3403C28.2477 17.2205 27.8259 17.1867 27.5058 17.0183C27.4439 16.9858 27.4572 16.9927 27.3858 16.9766L27.3962 16.959C27.9913 17.1622 28.5998 17.3238 29.2173 17.4427C29.7829 17.5537 30.3314 17.6271 30.8897 17.7646C33.4738 18.4009 35.6414 20.056 36.7767 22.482C36.8219 22.579 36.9578 22.8208 36.9423 22.916C36.8934 22.8707 36.7884 22.5817 36.7465 22.4933C36.6308 22.2496 36.0408 21.1759 35.8799 21.0698C35.8117 21.0769 35.7955 21.0891 35.7573 21.1535C35.6485 21.3368 35.3511 21.4025 35.1706 21.4995C35.0181 21.5908 34.9595 21.6927 34.7595 21.7994C34.7921 21.8991 35.5091 22.5002 35.4978 22.591C35.4858 22.5866 34.7808 21.8845 34.6807 21.7912C33.5231 20.7126 31.9011 19.8979 30.3525 19.622C29.1589 19.4094 28.1452 19.357 27.0117 18.9403Z" fill="url(#paint2_linear_957_10396)"/>
<path d="M14.4699 20.9186C14.5739 20.8449 15.1362 20.6144 15.3032 20.5292C15.8275 20.2615 16.3132 19.9705 16.8263 19.687L16.8486 19.709C17.1053 19.9594 17.5173 20.2402 17.8148 20.5132C18.8823 21.4844 19.7853 22.622 20.4884 23.8824C21.0697 24.9 21.5488 25.9728 21.9188 27.085C22.1388 27.738 22.2971 28.4055 22.5217 29.063C23.0338 30.5614 24.0922 31.8145 25.5 32.5439C25.9085 32.7555 26.356 32.8816 26.795 33.0085C26.9109 33.0123 27.3753 33.1091 27.5533 33.1266C28.9893 33.2687 30.527 32.7812 31.6471 31.8931C32.9508 30.8595 33.6352 29.6193 33.8241 27.982C33.8243 27.7565 33.8618 27.5218 33.8589 27.2896C33.852 26.7143 33.7322 26.1431 33.5659 25.595C33.5271 25.4865 33.4849 25.379 33.4396 25.2729C32.8129 23.7757 31.7976 22.8187 30.3139 22.21C30.0169 22.1175 29.6966 22.0331 29.3869 21.9958C29.168 21.9696 28.9567 21.9741 28.7372 21.933C29.0823 21.8682 29.3829 21.9266 29.7292 21.9399C31.1474 21.9949 32.5206 22.4347 33.7035 23.2389C34.5001 23.7817 35.1882 24.4591 35.74 25.2352C36.1689 25.8385 36.5155 26.5014 36.7669 27.2073C36.8719 27.4994 36.9999 27.8961 37.0563 28.1978C37.0608 28.2215 37.065 28.2453 37.069 28.2692C36.9731 27.4899 36.5831 26.57 36.2024 25.8832C36.0794 25.661 35.8971 25.403 35.7935 25.207C36.047 25.0467 36.6086 25.3457 36.9451 25.2982L36.9933 25.2352C37.0188 25.3398 37.152 25.6556 37.2137 25.7495C37.3343 26.2037 37.3054 26.0978 37.6741 26.1218C37.8557 26.1338 38.2588 26.4228 38.4939 26.3724C38.6519 26.3642 38.6928 26.3793 38.8066 26.4743C38.9245 27.4301 38.8255 28.5079 38.6819 29.4546C38.6548 29.6331 38.5016 30.0287 38.5647 30.1212C38.5074 30.4173 38.3161 30.959 38.2042 31.2464C38.139 31.4106 38.07 31.5728 37.9971 31.733C37.187 33.5132 35.9048 35.0419 34.2853 36.1502C34.0241 36.3271 33.6751 36.568 33.4063 36.7216C31.1861 37.9864 28.5835 38.406 26.0781 37.9034C24.2201 37.5278 22.4866 36.6896 21.0384 35.4665C20.4087 34.928 19.9987 34.474 19.4832 33.8434C19.3642 33.668 19.2357 33.4931 19.1125 33.3197C18.4556 32.3952 18.0196 31.4458 17.6363 30.3814C17.6303 30.3179 17.4839 29.8759 17.4585 29.7973C17.2705 29.2158 16.9589 28.0577 16.6378 27.5371C16.5774 27.2217 16.3358 26.8039 16.172 26.5178C15.3389 25.0621 14.4635 24.1282 13.1366 23.1386C13.016 23.0944 12.5675 22.7925 12.4193 22.7135C11.6472 22.3011 10.9505 22.1042 10.0918 21.9774C10.2354 21.9297 11.0165 21.846 11.2582 21.798C12.5157 21.6012 13.2799 21.3672 14.4699 20.9186Z" fill="url(#paint3_linear_957_10396)"/>
<path d="M26.7946 33.0085C26.9105 33.0122 27.3749 33.109 27.5529 33.1266C28.9889 33.2686 30.5266 32.7812 31.6467 31.893C32.9504 30.8595 33.6347 29.6193 33.8236 27.9819C33.8294 28.2501 33.8345 28.4414 33.8132 28.7089C33.805 28.8119 33.7337 29.3445 33.7388 29.4026C33.6356 29.877 33.5493 30.3249 33.3921 30.7867C32.7688 32.5805 31.5552 34.1099 29.9501 35.1248C29.1254 35.6554 28.3995 35.9533 27.4439 36.1739C27.241 36.2208 27.0106 36.2547 26.8228 36.2989C26.768 36.2951 26.7775 36.3055 26.73 36.2754L26.7183 36.2756C28.2544 36.0951 29.6302 35.399 30.8271 34.4394L30.7776 34.4318C30.6089 34.288 30.7676 34.0504 30.6402 33.8678C30.5221 33.6984 30.7126 33.1148 30.9015 33.0493C30.9716 33.0819 31.018 33.115 31.0917 33.1021C31.1918 32.959 31.0478 32.7809 31.0948 32.6877C31.2118 32.6608 31.2835 32.6688 31.3341 32.5592C31.3166 32.5172 31.2973 32.477 31.2755 32.4371C31.3044 32.3774 31.3002 32.4009 31.3046 32.3376C31.2917 32.3385 30.7388 32.5492 30.731 32.5563L30.7397 32.5998C30.4733 32.5716 30.4193 32.7556 30.1776 32.8091C29.9883 32.8511 29.6242 32.9479 29.4506 33.0196C29.2311 33.1101 29.204 33.0513 29.0546 33.0919C28.5023 33.242 27.8723 33.2238 27.3094 33.1432C27.1553 33.121 26.9753 33.0735 26.8368 33.0562L26.8039 33.0524L26.7946 33.0085Z" fill="url(#paint4_linear_957_10396)"/>
<path d="M33.9293 27.697C33.696 33.663 29.2298 37.337 23.2305 35.7295" stroke="#41AAD8" stroke-width="0.133319"/>
<path d="M30.314 22.2097C30.5701 22.1886 30.815 22.405 31.035 22.4679C31.2993 22.5065 31.3289 22.4137 31.4838 22.6701C31.6248 22.8836 31.8743 23.0517 32.0681 23.221C32.6801 23.7565 33.1256 24.4279 33.4479 25.1665C33.5309 25.3565 33.5769 25.3649 33.566 25.5947C33.5271 25.4861 33.485 25.3787 33.4397 25.2726C32.813 23.7753 31.7977 22.8184 30.314 22.2097Z" fill="#0647A1"/>
<path d="M17.7058 21.1311L17.7107 21.1352C17.7089 21.1485 17.7005 21.1941 17.711 21.2031C19.2233 22.4906 20.3276 24.3173 21.0727 26.1786C21.1362 26.3375 21.8292 28.6532 21.7977 28.7303C21.7442 28.6244 21.3321 26.9819 21.274 26.8297C21.0868 26.3384 20.8293 25.575 20.5681 25.1348L20.5431 25.1761C20.4261 25.1353 20.3535 25.2233 20.2472 25.2497C20.1828 25.2657 20.1117 25.2011 20.0207 25.2332L19.9973 25.2895C19.763 25.298 19.3845 25.1504 19.1582 25.1298C18.9338 25.1094 18.8574 24.9372 18.7122 24.7836L18.712 24.7836C18.684 24.7801 18.656 24.7767 18.6281 24.773C18.4793 24.6222 18.2472 24.4679 18.0988 24.3313C18.0119 24.221 17.6242 23.8384 17.5 23.8271C17.4913 23.8521 17.4909 23.8391 17.5104 23.8652C18.1689 24.7334 18.7246 25.6807 19.1657 26.6864C19.2094 26.7852 20.1413 28.8774 20.1312 28.9636C20.0554 28.8405 19.1672 26.7543 19.0999 26.6087C18.4414 25.1873 17.5996 23.8574 16.4956 22.7648C16.318 22.5892 16.1351 22.3925 15.9316 22.2421C16.4547 21.991 17.2774 21.5493 17.7058 21.1311Z" fill="url(#paint5_linear_957_10396)"/>
<path d="M21.7977 28.7303C21.7442 28.6244 21.3321 26.9819 21.274 26.8297C21.0868 26.3384 20.8293 25.575 20.5681 25.1348L20.5431 25.1761C20.4261 25.1353 20.3535 25.2233 20.2472 25.2497C20.1828 25.2657 20.1117 25.2011 20.0207 25.2332L19.9973 25.2895C19.763 25.298 19.3845 25.1504 19.1582 25.1298C18.9338 25.1094 18.8574 24.9372 18.7122 24.7836L18.712 24.7836C18.684 24.7801 18.656 24.7767 18.6281 24.773C18.4793 24.6222 18.2472 24.4679 18.0988 24.3313C18.0119 24.221 17.6242 23.8384 17.5 23.8271C17.4913 23.8521 17.4909 23.8391 17.5104 23.8652C18.1689 24.7334 18.7246 25.6807 19.1657 26.6864C19.2094 26.7852 20.1413 28.8774 20.1312 28.9636L21.7977 28.7303Z" fill="url(#paint6_linear_957_10396)"/>
<path d="M6.32192 1.81019C6.64068 1.63514 7.14438 1.46736 7.49336 1.35369C9.52361 0.678798 11.7116 0.640262 13.7644 1.24318C15.4842 1.74952 17.0569 2.66231 18.3496 3.90444C18.5936 4.14567 18.8302 4.39422 19.0592 4.64981C19.1666 4.77168 19.3635 5.02207 19.4763 5.11364C19.7244 5.4503 20.4705 6.51219 20.5604 6.85888L20.5011 6.85794C20.3884 6.73754 20.3129 6.59354 20.2146 6.45398C20.0419 6.20403 19.857 5.96261 19.6609 5.73059C19.5282 5.57629 18.9272 5.00274 18.8887 4.94238C18.7223 4.83805 18.5059 4.64468 18.3622 4.50766L18.3353 4.51709C18.5402 4.83847 18.4436 4.76899 18.5058 5.12609C18.601 5.34244 18.6476 5.51334 18.6919 5.74353C18.7586 6.03384 18.6523 6.27436 18.625 6.54155C18.5804 6.97934 18.6343 7.44271 18.8118 7.84738C18.8395 7.9106 18.8477 8.5014 18.7771 8.54806L18.7589 8.53481C18.7331 8.51632 18.7437 8.52338 18.7169 8.5075C18.7402 8.60895 18.7564 8.6745 18.7713 8.77668C18.7921 8.91981 18.9184 9.14381 18.9539 9.28441C18.9282 9.45512 18.9819 9.54788 18.9941 9.7143C19.0563 10.5743 19.1011 11.4221 19.0822 12.2854C19.0774 12.506 19.1431 12.7568 19.14 12.9803C19.138 13.7256 19.1717 14.4643 19.1415 15.2092C19.1368 15.3226 19.1681 15.6389 19.1522 15.6968C19.094 15.7117 19.0625 15.6801 18.9917 15.648C18.9981 15.7382 19.7688 16.8436 19.8736 16.9131C19.4842 17.3753 19.0913 17.837 18.6377 18.2378C18.4454 17.9396 18.0789 17.5349 17.8549 17.1976C17.5276 16.7046 17.286 16.2524 16.9963 15.7381C16.7581 15.2382 16.5387 14.7296 16.3387 14.2133C16.267 14.0273 16.1673 13.7964 16.1255 13.6056L16.0817 13.5891C16.1695 13.457 16.275 13.3442 16.3628 13.2109C16.7054 12.6905 16.8994 12.2638 17.0658 11.6698C16.8746 10.9506 16.595 10.1593 16.3103 9.47006C16.2068 9.23915 16.0505 9.01642 15.9272 8.8001C14.2185 5.80438 10.4568 4.8555 7.58064 6.79701C7.45202 6.88383 7.33313 6.98736 7.20562 7.07937C5.92173 8.19509 5.29983 9.30635 5.10686 11.0139C5.09971 11.202 5.09605 11.396 5.07359 11.5824C5.15139 14.1834 6.67314 16.1505 9.12924 16.9551L9.10336 16.9622C8.73139 17.0628 8.26336 17.1371 7.87274 17.231C6.99898 17.4423 6.15756 17.77 5.37109 18.2053C5.2456 18.274 4.84848 18.4893 4.76621 18.5814C4.5332 18.7507 3.81691 19.2736 3.67249 19.4885L3.61793 19.4729C3.55602 19.3912 3.42709 19.2829 3.35022 19.2088C2.98794 18.8592 2.64745 18.4874 2.32955 18.0961C0.912979 16.3286 0.104503 14.1513 0.0242348 11.8876C-0.0436025 10.0476 0.409305 8.13422 1.27962 6.52098C1.43155 6.23933 1.7229 5.68284 1.93578 5.45336C1.99849 5.32417 2.38138 4.84831 2.48485 4.72238C3.41694 3.58786 4.93287 2.33786 6.32192 1.81019Z" fill="#0647A1"/>
<path d="M8.27413 4.39708C10.0852 3.01978 12.3144 2.48511 14.5579 2.86272C15.8912 3.08715 17.4273 3.69213 18.4776 4.5637C18.5861 4.65373 18.8148 4.83303 18.8883 4.94206C18.7219 4.83773 18.5054 4.64436 18.3618 4.50734L18.3349 4.51677C18.5398 4.83815 18.4432 4.76867 18.5054 5.12577C18.6006 5.34212 18.6472 5.51302 18.6914 5.74321C18.7582 6.03352 18.6519 6.27404 18.6246 6.54124C18.58 6.97903 18.6339 7.44239 18.8114 7.84706C18.8391 7.91028 18.8473 8.50108 18.7767 8.54774L18.7585 8.53449C18.7327 8.516 18.7433 8.52306 18.7165 8.50719C18.7398 8.60863 18.756 8.67418 18.7708 8.77636C18.7917 8.91949 18.918 9.14349 18.9535 9.2841C18.9278 9.4548 18.9815 9.54757 18.9937 9.71398C19.0558 10.574 19.1007 11.4218 19.0818 12.2851C19.0769 12.5057 19.1426 12.7565 19.1395 12.98C19.1375 13.7253 19.1713 14.464 19.1411 15.2089C19.1364 15.3223 19.1677 15.6385 19.1517 15.6964C19.0936 15.7114 19.0621 15.6798 18.9912 15.6477C18.9977 15.7379 19.7684 16.8433 19.8732 16.9128C19.4838 17.375 19.0909 17.8367 18.6372 18.2375C18.445 17.9392 18.0784 17.5345 17.8545 17.1973C17.5272 16.7043 17.2856 16.2521 16.9959 15.7377C16.7577 15.2379 16.5383 14.7293 16.3382 14.213C16.2665 14.027 16.1669 13.7961 16.1251 13.6053L16.0812 13.5887C16.1691 13.4566 16.2746 13.3439 16.3624 13.2106C16.705 12.6901 16.899 12.2635 17.0654 11.6695C16.8742 10.9502 16.5946 10.159 16.3099 9.46974C16.2064 9.23883 16.0501 9.0161 15.9267 8.79978C14.2181 5.80406 10.4563 4.85518 7.58022 6.79669C7.4516 6.88351 7.33271 6.98704 7.2052 7.07905C7.16534 7.05121 7.18767 7.05659 7.1377 7.06518C7.09277 7.10777 7.06849 7.1385 7.00979 7.15863L6.97889 7.13523C6.99084 7.08156 6.99414 7.07406 7.01956 7.0272L7.04125 6.98777L7.00089 6.96131C7.00409 6.87656 7.09765 6.69624 7.13817 6.59416C7.1351 6.56714 7.12045 6.43202 7.10431 6.41937C6.68728 6.09212 6.71924 6.20604 6.42758 6.4514L6.40625 6.44236C6.43648 6.2755 6.98371 5.65251 7.11859 5.50365C7.22536 5.38582 7.46792 5.20848 7.5019 5.06062C7.60519 4.90089 8.09728 4.53242 8.27413 4.39708Z" fill="url(#paint7_linear_957_10396)"/>
<path fill-rule="evenodd" clip-rule="evenodd" d="M3.6364 4.34943C3.37422 4.62042 2.44605 5.66888 2.38112 5.97093C2.37162 5.98865 2.36173 6.00709 2.35146 6.02621C1.99613 6.68817 1.20284 8.166 1.32156 8.84447C1.44606 9.02183 1.64545 9.23078 1.80731 9.4004C1.82705 9.42108 1.84623 9.44117 1.86464 9.46056C1.98827 9.59071 2.17461 9.68935 2.34921 9.78177C2.4059 9.81179 2.46135 9.84114 2.51302 9.87071L2.53484 9.86745C2.54037 9.82227 2.5458 9.77662 2.55125 9.73071C2.57222 9.55428 2.59364 9.37407 2.62304 9.20233C2.68665 9.10887 2.73122 8.8606 2.7559 8.72316C2.75755 8.71398 2.75911 8.7053 2.76058 8.69719C2.8889 7.98949 3.13534 7.3756 3.39959 6.71734C3.40724 6.69828 3.41491 6.67919 3.42259 6.66005C3.47327 6.72107 3.63197 6.88189 3.77155 7.02334C3.89527 7.14872 4.00398 7.25887 4.00911 7.27081C4.2256 7.77405 4.49419 8.01249 4.83573 8.31569C4.92192 8.39221 5.01276 8.47285 5.10858 8.56291C5.14565 8.59775 5.09411 8.81967 5.05117 9.00458C5.02583 9.11373 5.00347 9.20999 5.00411 9.24723C4.95071 9.57665 4.78828 11.271 4.9828 11.4787L5.01559 11.4783L5.03495 11.5771L5.0579 11.5917L5.07366 11.5824C5.09248 11.4262 5.09811 11.2647 5.10364 11.1058C5.10471 11.0751 5.10578 11.0444 5.10694 11.0139C5.2999 9.30635 5.92181 8.19509 7.2057 7.07937C7.18608 7.06567 7.18152 7.06002 7.176 7.05883C7.1703 7.0576 7.16358 7.06113 7.13819 7.0655C7.13109 7.07223 7.12451 7.07866 7.11822 7.08481C7.08473 7.11754 7.0597 7.142 7.01029 7.15895L6.97939 7.13555C6.99133 7.08188 6.99464 7.07437 7.02005 7.02751L7.04174 6.98809L7.00139 6.96163C7.0037 6.90024 7.05343 6.78871 7.09607 6.69308C7.1123 6.6567 7.12749 6.62261 7.13866 6.59447C7.13855 6.59348 7.13842 6.59234 7.13827 6.59106C7.13452 6.55768 7.12035 6.43187 7.10481 6.41969C6.75732 6.14702 6.72156 6.18064 6.55058 6.34136C6.51636 6.37354 6.47672 6.4108 6.42808 6.45172L6.40674 6.44268C6.43698 6.27582 6.98421 5.65283 7.11908 5.50397C7.14983 5.47004 7.19183 5.43118 7.23687 5.38951C7.34825 5.28646 7.4782 5.16623 7.5024 5.06094C7.59789 4.91327 8.02568 4.58719 8.22948 4.43185C8.24612 4.41916 8.26127 4.40762 8.27462 4.3974C10.0857 3.0201 12.3149 2.48543 14.5584 2.86304C15.8917 3.08747 17.4278 3.69245 18.4781 4.56402C18.4932 4.57649 18.5105 4.59068 18.5294 4.60616C18.647 4.70239 18.8255 4.84846 18.8888 4.94238C18.9079 4.9724 19.0662 5.12937 19.2368 5.29856C19.4093 5.46955 19.5943 5.65304 19.661 5.73059C19.857 5.96261 20.0419 6.20403 20.2146 6.45398C20.247 6.49988 20.2768 6.54626 20.3064 6.59213C20.3667 6.68571 20.4255 6.77714 20.5012 6.85794L20.5605 6.85888C20.4706 6.51219 19.7245 5.4503 19.4763 5.11364C19.3944 5.04708 19.2679 4.89658 19.1637 4.77254C19.1246 4.72595 19.0886 4.68309 19.0592 4.64981C18.8303 4.39422 18.5937 4.14567 18.3497 3.90444C17.0569 2.66231 15.4843 1.74952 13.7645 1.24318C11.7117 0.640262 9.52369 0.678798 7.49343 1.35369L6.26623 2.53349C5.76868 2.6668 4.3057 3.79966 3.6364 4.34943Z" fill="url(#paint8_linear_957_10396)"/>
<path fill-rule="evenodd" clip-rule="evenodd" d="M3.63632 4.34911C3.37414 4.6201 2.44597 5.66856 2.38104 5.97061C2.37154 5.98833 2.36164 6.00676 2.35138 6.02588C1.50002 7.61191 1.00007 10.1657 1.73333 13.9652L2.2666 13.8653L2.69989 13.7986H3.03318H3.36648L3.76643 13.6653C2.55117 11.3655 2.82005 9.81161 2.82551 9.76571C2.84647 9.58928 2.83714 9.37085 2.86654 9.1991C2.91218 8.93247 2.92862 8.75917 2.93319 8.73249C3.13317 6.46607 3.79106 5.54387 5.06092 4.14258C5.61004 3.53661 6.10035 3.15698 6.72803 2.67317L6.73662 2.64984C6.77494 2.62289 6.81333 2.59564 6.85187 2.56828C7.1562 2.35226 7.46943 2.12992 7.8241 2.00055C7.84128 1.99428 7.8514 1.9928 7.85938 1.99164C7.8743 1.98947 7.88173 1.98839 7.91382 1.95906L7.89971 1.94007C7.90024 1.94004 7.90006 1.9398 7.89971 1.94007C7.88666 1.95006 7.26892 2.16235 6.93804 2.27606C6.83618 2.31106 6.7615 2.33673 6.74003 2.34426L6.75979 2.29885C6.71011 2.29315 6.65772 2.31939 6.60503 2.34579C6.59037 2.35313 6.57569 2.36049 6.56103 2.36717C5.38375 2.9543 4.12069 3.9331 3.63632 4.34911Z" fill="url(#paint9_linear_957_10396)"/>
<path d="M1.93604 5.45337C1.99874 5.32418 2.38164 4.84832 2.48511 4.72239C3.4172 3.58787 4.93313 2.33787 6.32218 1.8102C6.32218 1.8102 7.07946 1.47623 6.96634 1.53361C7.23298 1.4336 7.46629 1.36694 7.46629 1.36694C7.49801 1.38481 6.59972 2.2335 6.49973 2.3335L6.43307 2.40016L6.36641 2.46682C6.16643 2.63347 5.98577 2.6824 5.76647 2.80012C4.73325 3.43338 3.8619 4.09922 3.12581 4.97927C2.8432 5.31717 2.63781 5.65087 2.38131 5.97094C2.44624 5.66889 3.3744 4.62043 3.63659 4.34944C3.41072 4.32484 3.19509 4.38385 2.92944 4.36154C2.66564 4.52376 2.19169 5.20138 1.98003 5.46236L1.93604 5.45337Z" fill="url(#paint10_linear_957_10396)"/>
<path d="M5.28487 8.97871C5.30272 8.94472 5.36257 8.70057 5.37466 8.65053C5.65896 7.47621 6.52488 5.8021 7.50151 5.06055C7.46752 5.20841 7.22496 5.38575 7.11819 5.50358C6.98331 5.65244 6.43609 6.27543 6.40585 6.44229L6.42719 6.45132C6.71885 6.20597 6.68688 6.09205 7.10392 6.41929C7.12006 6.43194 7.13471 6.56706 7.13777 6.59408C7.09726 6.69617 7.00369 6.87648 7.0005 6.96124L7.04085 6.9877L7.01916 7.02712C6.99375 7.07398 6.99044 7.08148 6.9785 7.13516L7.0094 7.15855C7.06809 7.13842 7.09237 7.1077 7.1373 7.0651C7.18727 7.05651 7.16494 7.05114 7.20481 7.07897C5.92091 8.19469 5.29901 9.30595 5.10605 11.0135C5.04505 10.3454 5.19411 9.63686 5.28487 8.97871Z" fill="url(#paint11_linear_957_10396)"/>
<path d="M5.09963 9.05037C5.13375 9.09417 4.9569 10.2151 4.98238 10.3689C4.99312 10.4338 4.97395 10.6899 4.99028 10.7974C5.09053 10.6609 5.07668 9.38527 5.28629 8.97852C5.19553 9.63667 5.04647 10.3453 5.10747 11.0133C5.10032 11.2015 5.09666 11.3954 5.07419 11.5818L5.05843 11.5911L5.03548 11.5765L5.01612 11.4778C4.86688 11.1935 4.95002 9.3114 5.09963 9.05037Z" fill="#3B86C1"/>
<path d="M16.0815 13.5889L16.7316 12.5322C16.7733 12.723 17.1265 13.1795 17.1982 13.3655C17.3982 13.8818 17.6932 13.9322 17.9314 14.432C18.2212 14.9464 18.704 15.3056 19.0313 15.7986C19.2552 16.1358 19.6723 16.6002 19.8645 16.8984C19.5979 17.3984 17.9853 18.832 17.6295 19.093C17.4139 19.2502 17.0064 19.5214 16.8264 19.687C16.3132 19.9705 15.8275 20.2615 15.3032 20.5292C15.1362 20.6145 14.5739 20.8449 14.47 20.9186C13.28 21.3672 12.5157 21.6012 11.2582 21.7981C11.0166 21.846 10.2354 21.9297 10.0918 21.9774C9.96556 21.9759 9.59567 21.965 9.48847 21.9843C8.41338 22.1783 7.5207 22.6638 6.74031 23.4092C5.74268 24.3622 5.06577 25.9615 5.05097 27.3349C5.04944 27.8009 5.10031 28.2655 5.20267 28.7201C5.22454 28.8158 5.33348 29.1623 5.33852 29.2226C5.29373 29.3467 5.5221 29.7867 5.58179 29.9128C6.15383 31.1188 7.13526 32.0826 8.35133 32.6327C8.5633 32.7275 8.77148 32.8074 8.98686 32.8902C9.16611 32.9593 9.45065 32.9852 9.59281 33.0876C9.45822 33.0463 9.15264 33.0445 8.9987 33.0283C6.57962 32.7721 4.42174 31.3135 3.13281 29.2724C2.89602 28.8974 2.75902 28.5565 2.5472 28.1904L2.51231 28.1909C2.4375 28.0732 2.30753 27.7079 2.25927 27.5613C1.90865 26.5311 1.76674 25.4414 1.84177 24.3559C1.98155 22.5133 2.69011 20.7971 3.93032 19.426C4.19499 19.1334 4.48472 18.8902 4.78259 18.6346L4.7661 18.5813C4.84837 18.4892 5.24549 18.2738 5.37098 18.2052C6.15745 17.7698 6.99887 17.4421 7.87263 17.2308C8.26325 17.137 8.73128 17.0627 9.10325 16.9621L9.12913 16.9549C9.47675 17.0096 10.0584 16.8823 10.4229 16.8727C10.5332 16.8376 10.7962 16.7952 10.92 16.7706C11.1979 16.7163 11.4727 16.6472 11.7432 16.5637C13.4606 16.0208 14.9231 14.9549 16.0815 13.5889Z" fill="#0B7CB9"/>
<path d="M16.082 13.5889L16.7653 12.5322C16.8071 12.723 17.0603 13.1128 17.132 13.2988C17.4319 13.7988 17.6652 14.0654 17.9985 14.532C17.9436 14.6292 16.5798 16.1518 16.4812 16.2458C15.3719 17.3027 13.8391 18.1789 12.3555 18.5929C11.7559 18.7622 11.1466 18.895 10.5309 18.9906C10.0578 19.0659 9.58305 19.1094 9.11504 19.1827C8.25989 19.3114 7.42704 19.5594 6.64074 19.9194C6.47125 19.9969 6.04261 20.2093 5.90205 20.3196C5.70739 20.3886 4.7557 21.1281 4.71212 21.1708C4.71078 21.1721 4.7103 21.1728 4.71072 21.1727C4.71119 21.1721 4.71165 21.1714 4.71212 21.1708C4.81859 21.0253 5.08631 20.8515 5.23651 20.7012L5.20843 20.6797C5.05098 20.6824 4.96469 20.8482 4.85546 20.7756C4.88422 20.7157 4.88365 20.7385 4.88105 20.6795C4.85417 20.6748 4.6733 20.6402 4.66493 20.6317C4.46532 20.4264 4.48934 20.2641 4.21531 20.105C4.21555 20.0502 4.25291 20.0291 4.29955 19.9745C4.26181 19.9426 4.25793 19.9376 4.2288 19.9C4.22805 19.899 4.22728 19.898 4.2265 19.897C4.24672 19.8137 4.37338 19.7687 4.4124 19.6976C4.44721 19.6297 4.44237 19.4597 4.49614 19.4137C5.46597 18.5847 6.65774 18.0468 7.85668 17.6388C8.68063 17.3583 9.55774 17.3507 10.4022 17.1688C10.4817 17.1517 10.6486 17.1354 10.6873 17.0897C10.639 16.9635 10.7363 17.0123 10.7174 16.9116C10.6043 16.8896 10.5372 16.9123 10.4234 16.8727C10.5337 16.8376 10.7967 16.7952 10.9204 16.7706C11.1983 16.7162 11.4731 16.6472 11.7437 16.5637C13.461 16.0208 14.9235 14.9549 16.082 13.5889Z" fill="url(#paint12_linear_957_10396)"/>
<path d="M4.71072 21.1727C4.7103 21.1728 4.71078 21.1721 4.71212 21.1708C4.81859 21.0253 5.08631 20.8515 5.23651 20.7012L5.20843 20.6797C5.05098 20.6824 4.96469 20.8482 4.85546 20.7756C4.88422 20.7157 4.88365 20.7385 4.88105 20.6795C4.85417 20.6748 4.6733 20.6402 4.66493 20.6317C4.46532 20.4264 4.48934 20.2641 4.21531 20.105C4.21555 20.0502 4.25291 20.0291 4.29955 19.9745C4.26181 19.9426 4.25793 19.9376 4.2288 19.9L4.2265 19.897C4.24672 19.8137 4.37338 19.7687 4.4124 19.6976C4.44721 19.6297 4.44237 19.4597 4.49614 19.4137C4.1464 19.6157 3.61555 20.3099 3.39384 20.6317C2.73668 21.77 2.1794 24.6165 1.98291 25.8974C2.5116 23.9243 4.02174 21.9255 4.71072 21.1727Z" fill="url(#paint13_linear_957_10396)"/>
<path fill-rule="evenodd" clip-rule="evenodd" d="M18.5985 15.2323C18.8651 15.6322 18.9287 15.5979 19.1984 16.0041C19.31 16.1721 19.4552 16.3855 19.5984 16.5655C19.7426 16.7468 19.7685 16.7824 19.865 16.9321C19.5496 17.2406 17.9857 18.8323 17.6299 19.0933C17.5703 19.1368 17.496 19.189 17.416 19.2452C17.2064 19.3924 16.9571 19.5675 16.8268 19.6873C16.6531 19.7833 16.4826 19.8801 16.3127 19.9765C16.1417 20.0736 15.9712 20.1704 15.7988 20.2656L15.7655 20.2984L15.7115 20.3317L15.6655 20.365L15.6321 20.3984L15.5321 20.465L15.2658 20.565L15.1322 20.665C15.1322 20.665 12.5893 21.4944 12.5626 21.5083C12.546 21.5042 12.1651 20.8638 11.9821 20.8085C11.8697 20.7746 11.6753 20.665 11.6753 20.665C11.4628 20.5314 11.3907 20.4021 11.2166 20.1939C11.1141 20.0714 11.0127 19.9502 10.9061 19.8474C10.8494 19.7926 10.779 19.7462 10.7082 19.6995C10.6356 19.6516 10.5626 19.6034 10.5033 19.5457C10.4408 19.4889 10.3595 19.4648 10.278 19.4406C10.1677 19.4079 10.057 19.3751 9.99247 19.2609L9.76611 19.0897C13.2657 18.7319 15.372 17.3031 16.4812 16.2461C16.5033 16.2251 16.5386 16.1929 16.5807 16.1544C16.7265 16.0213 17.9559 14.6411 17.9985 14.5657C18.0494 14.656 18.5498 15.1452 18.5985 15.2323ZM9.89624 19.0784C9.86605 19.0822 9.83586 19.0859 9.80568 19.0897Z" fill="url(#paint14_linear_957_10396)"/>
<path d="M4.76655 18.5811L4.78305 18.6343C4.48517 18.89 4.19544 19.1332 3.93077 19.4257C2.69057 20.7969 1.982 22.513 1.84222 24.3557C1.76719 25.4412 1.90911 26.5309 2.25972 27.5611C2.30798 27.7076 2.43795 28.073 2.51276 28.1906C3.29225 29.9989 4.72229 31.4764 6.47714 32.3381C6.64742 32.4218 6.82028 32.4798 6.99218 32.5708L6.96412 32.5819C6.84436 32.5264 6.74895 32.5073 6.62855 32.4507C5.59996 31.9803 4.68067 31.3006 3.92929 30.4553C3.72007 30.2244 3.52579 29.9836 3.33855 29.7347C3.22787 29.5876 3.09042 29.1683 2.8565 29.2348C2.76193 29.4142 3.27961 29.9876 3.41638 30.1598C4.19384 31.1561 5.19935 31.9506 6.34817 32.4767C6.53956 32.5646 6.70389 32.6349 6.90048 32.7102C7.0247 32.7577 7.30626 32.8358 7.40455 32.8955C7.34912 32.9088 7.20912 32.8511 7.13737 32.8305C6.60136 32.6764 5.8692 32.3188 5.40406 32.0198C3.59294 30.8553 2.18716 28.8914 1.73276 26.78C1.27717 24.6629 1.68657 22.5568 2.80331 20.7119C2.97013 20.4382 3.15719 20.1771 3.34599 19.9183C3.45209 19.7727 3.57845 19.6419 3.67283 19.4881C3.81725 19.2732 4.53354 18.7503 4.76655 18.5811Z" fill="#50C5E7"/>
<path d="M6.99218 32.5708L6.96412 32.5819C6.84436 32.5264 6.74895 32.5073 6.62855 32.4507C5.59996 31.9803 4.68067 31.3006 3.92929 30.4553C3.72007 30.2244 3.52579 29.9836 3.33855 29.7347C3.22787 29.5876 3.09042 29.1683 2.8565 29.2348C2.76193 29.4142 3.27961 29.9876 3.41638 30.1598C4.19384 31.1561 5.19935 31.9506 6.34817 32.4767C6.53956 32.5646 6.70389 32.6349 6.90048 32.7102C7.0247 32.7577 7.30626 32.8358 7.40455 32.8955L6.99218 32.5708Z" fill="#50C5E7"/>
<path d="M4.06622 19.1316L3.39963 19.8648C3.10175 20.1205 2.64564 20.4836 2.38097 20.7762C1.14076 22.1474 0.4322 23.8635 0.292418 25.7062C0.217389 26.7916 0.359301 27.8813 0.70992 28.9116C0.758179 29.0581 0.888148 29.4234 0.962956 29.5411C1.74244 31.3494 3.17249 32.8269 4.92733 33.6886C5.09761 33.7723 5.27047 33.8302 5.44237 33.9212L5.41431 33.9323C5.29456 33.8768 5.19915 33.8577 5.07875 33.8011C4.05015 33.3308 3.13086 32.651 2.37948 31.8057C2.17026 31.5749 1.97599 31.334 1.78875 31.0852C1.67807 30.938 1.54062 30.5187 1.30669 30.5853C1.21213 30.7647 1.72981 31.338 1.86657 31.5103C2.64404 32.5065 3.64954 33.301 4.79836 33.8271C4.98975 33.915 5.15409 33.9854 5.35067 34.0606C5.47489 34.1081 5.75645 34.1863 5.85475 34.246C5.79932 34.2593 5.65931 34.2016 5.58757 34.1809C5.05155 34.0269 4.31939 33.6693 3.85426 33.3703C2.04314 32.2058 0.637354 30.2419 0.18296 28.1304C-0.272634 26.0134 0.136766 23.9072 1.25351 22.0623C1.42033 21.7886 1.60739 21.5276 1.79618 21.2688C1.90229 21.1231 2.02864 20.9924 2.12303 20.8386C2.26745 20.6237 3.83321 19.3009 4.06622 19.1316Z" fill="#50C5E7"/>
<path d="M5.44237 33.9212L5.41431 33.9323C5.29456 33.8768 5.19915 33.8577 5.07875 33.8011C4.05015 33.3308 3.13086 32.651 2.37948 31.8057C2.17026 31.5749 1.97599 31.334 1.78875 31.0852C1.67807 30.938 1.54062 30.5187 1.30669 30.5853C1.21213 30.7647 1.72981 31.338 1.86657 31.5103C2.64404 32.5065 3.64954 33.301 4.79836 33.8271C4.98975 33.915 5.15409 33.9854 5.35067 34.0606C5.47489 34.1081 5.75645 34.1863 5.85475 34.246L5.44237 33.9212Z" fill="#50C5E7"/>
<path d="M18.2651 35.1233L18.2459 35.1046C18.2756 35.0376 18.4017 34.9388 18.4599 34.8835C18.7215 34.6347 19.056 34.3439 19.1268 33.975C18.8569 33.8358 19.1763 33.6775 19.2078 33.5508C19.0607 33.3277 18.9154 33.1035 18.7724 32.8777C18.5604 32.5396 17.5629 30.7014 17.6362 30.3811C18.0195 31.4455 18.4555 32.3949 19.1124 33.3195C19.2356 33.4928 19.3641 33.6677 19.4831 33.8431C19.2644 34.0886 18.4994 34.991 18.2651 35.1233Z" fill="#0647A1"/>
<path d="M16.6644 27.5637C16.4527 28.9524 16.5978 32.4851 13.8647 34.063C11.3983 35.487 8.86528 35.61 6.69885 35.0295C4.53242 34.449 1.22181 31.9632 0.266226 28.3969C-0.689355 24.8307 0.965084 21.9643 2.36493 20.5645C3.14584 19.7836 3.84282 19.2382 4.30634 18.9193C4.48897 18.7634 4.64653 18.6717 4.76573 18.6313C4.66474 18.6852 4.50753 18.7809 4.30634 18.9193C3.68396 19.4508 2.77038 20.7286 2.09097 23.2642C1.21219 26.5438 3.04137 29.4746 4.06581 30.53C5.11014 31.7863 8.29201 34.0058 12.6649 32.8341C13.6993 32.5216 15.8142 30.7367 16.6644 27.5637Z" fill="url(#paint15_linear_957_10396)"/>
<path d="M16.6644 27.5637C16.4527 28.9524 16.5978 32.4851 13.8647 34.063C11.3983 35.487 8.86528 35.61 6.69885 35.0295C4.53242 34.4491 1.22181 31.9632 0.266226 28.3969C-0.689355 24.8307 0.965084 21.9643 2.36493 20.5645C3.48481 19.4446 4.43208 18.8091 4.76573 18.6313C4.2403 18.8091 2.96975 19.9845 2.09097 23.2642C1.21219 26.5438 3.04137 29.4746 4.06581 30.53C5.11014 31.7863 8.29201 34.0058 12.6649 32.8341C13.6993 32.5216 15.8142 30.7367 16.6644 27.5637Z" stroke="#41AAD8" stroke-width="0.099989"/>
<path d="M10.1318 21.9642C14.3314 21.4309 16.0978 20.0644 16.8311 19.6978C17.8976 20.5643 18.3087 20.9754 18.6642 21.3642L14.0981 23.9306C12.3983 22.2975 10.9095 22.2086 10.1318 21.9642Z" fill="#1A2841" fill-opacity="0.46"/>
<path d="M13.3654 4.29956C11.8989 3.87294 8.84366 4.72176 7.66602 4.99951C8.25484 4.16626 11.3989 2.56645 13.5654 2.69973C15.7318 2.83301 18.1982 3.93297 19.2981 5.3661C20.7646 6.89931 20.5313 6.86598 22.2311 11.0655C23.9376 14.3452 26.2195 16.4094 27.0639 16.8315L25.8973 18.6313C24.342 17.8425 20.8446 15.1917 19.2981 10.8988C17.3649 5.53275 15.1985 4.83284 13.3654 4.29956Z" fill="url(#paint16_linear_957_10396)"/>
<path fill-rule="evenodd" clip-rule="evenodd" d="M37.0687 28.2692C37.0665 28.2511 37.0641 28.233 37.0616 28.2148L37.0561 28.1977C37.0605 28.2215 37.0648 28.2452 37.0687 28.2692ZM18.7378 8.51995C18.74 8.52139 18.7422 8.52291 18.746 8.52562C18.7489 8.52773 18.7528 8.53057 18.7585 8.53464L18.7768 8.54789C18.8474 8.50123 18.8392 7.91043 18.8115 7.84721C18.6339 7.44254 18.58 6.97918 18.6247 6.54139C18.6333 6.45706 18.6498 6.37539 18.6662 6.29398C18.7018 6.11742 18.7372 5.94205 18.6915 5.74337C18.6472 5.51317 18.6007 5.34227 18.5055 5.12593C18.485 5.00827 18.4817 4.93692 18.4792 4.88264C18.4742 4.77218 18.4723 4.73242 18.335 4.51692L18.3619 4.50749C18.5055 4.64452 18.722 4.83788 18.8884 4.94221C18.9075 4.97223 19.0658 5.12919 19.2364 5.29839C19.4088 5.46938 19.5939 5.65287 19.6606 5.73042C19.8566 5.96244 20.0415 6.20386 20.2142 6.45381C20.2425 6.49398 20.2689 6.53451 20.2949 6.57474C20.2986 6.58048 20.3023 6.58622 20.3059 6.59195" fill="url(#paint17_linear_957_10396)"/>
<path fill-rule="evenodd" clip-rule="evenodd" d="M27.875 0.809909C25.2814 0.861497 22.2444 2.10823 20.4431 3.97911C20.4125 4.01201 20.383 4.04368 20.3545 4.07433C20.0077 4.44696 19.8012 4.6688 19.4759 5.11347C19.7241 5.45013 20.4701 6.51202 20.56 6.85871L20.5008 6.85778C20.4251 6.77697 20.3662 6.68553 20.3059 6.59195C20.2764 6.54609 20.2465 6.49971 20.2142 6.45381C20.0415 6.20386 19.8566 5.96244 19.6606 5.73042C19.5939 5.65287 19.4088 5.46938 19.2364 5.29839C19.0658 5.12919 18.9075 4.97223 18.8884 4.94221C18.722 4.83788 18.5055 4.64452 18.3619 4.50749L18.335 4.51692C18.4723 4.73242 18.4742 4.77218 18.4792 4.88264C18.4817 4.93692 18.485 5.00827 18.5055 5.12593C18.6007 5.34227 18.6472 5.51317 18.6915 5.74337C18.7372 5.94205 18.7018 6.11742 18.6662 6.29398C18.6498 6.37539 18.6333 6.45706 18.6247 6.54139C18.58 6.97918 18.6339 7.44254 18.8115 7.84721C18.8392 7.91043 18.8474 8.50123 18.7768 8.54789L18.7585 8.53464C18.7548 8.53198 18.7519 8.52985 18.7494 8.52811C18.7434 8.52374 18.7406 8.52177 18.7378 8.51995C18.7355 8.51847 18.7331 8.51708 18.7288 8.51457C18.7259 8.51283 18.722 8.51056 18.7166 8.50734C18.7191 8.51859 18.7216 8.5294 18.7241 8.53987C18.7434 8.62378 18.7577 8.68567 18.7709 8.77651C18.7826 8.85703 18.8277 8.96315 18.8712 9.06561C18.9051 9.14528 18.938 9.22274 18.9536 9.28425C18.9374 9.39152 18.9526 9.46802 18.9692 9.55135C18.9789 9.60063 18.9892 9.6523 18.9937 9.71414C19.0559 10.5742 17.0835 10.7024 17.0646 11.5656C17.0622 11.6771 16.9979 11.8989 16.9313 12.0656C16.9313 12.0656 16.9313 12.1322 16.8646 12.2656L16.7646 12.4655C16.7716 12.9414 18.1312 14.7653 18.5311 15.1986L18.7311 15.4319L18.8644 15.5985L18.9311 15.6652L18.9977 15.7318C18.9977 15.7318 19.7685 16.8434 19.8732 16.9129C19.9488 17.0029 20.0238 17.0941 20.0989 17.1853C20.272 17.3958 20.4457 17.6069 20.6286 17.8066C22.6271 19.9889 25.357 21.6446 28.3436 21.9037C28.4745 21.9146 28.6057 21.9243 28.7369 21.933C28.9864 21.8861 29.2125 21.9036 29.4495 21.922C29.5404 21.929 29.6329 21.9362 29.729 21.9399C31.1472 21.9949 32.5204 22.4347 33.7033 23.2389C35.1191 24.2036 36.1919 25.5932 36.7666 27.2072C36.8716 27.4994 36.9997 27.896 37.0561 28.1977L37.0616 28.2148C37.4085 29.2873 38.0737 31.4649 38.0026 31.7301C37.9311 31.9967 38.3474 30.7686 38.5645 30.1212C38.6475 29.8533 38.7107 29.5798 38.7536 29.3025C39.2144 26.4925 38.5922 23.5319 36.892 21.2302C36.5688 20.7953 36.2194 20.3802 35.8463 19.9875C35.7859 19.9233 35.7161 19.8597 35.6454 19.7952C35.5228 19.6835 35.3975 19.5693 35.3144 19.4452C37.0943 17.78 38.3767 15.7794 38.7529 13.3289C38.7975 13.1534 38.8203 12.8909 38.8396 12.6698C38.8453 12.6046 38.8506 12.543 38.8561 12.4883C38.9594 11.4634 38.8839 10.515 38.7019 9.50374C38.2326 7.28868 37.2286 5.40076 35.5897 3.82086C33.5133 1.84301 30.7421 0.761473 27.875 0.809909ZM22.8036 12.1635C22.6633 11.9009 22.4682 11.5341 22.3967 11.2516C22.3835 10.9929 22.4568 10.5391 22.5067 10.2297C22.5124 10.1948 22.5177 10.1618 22.5226 10.1311C22.8982 8.65484 23.7947 7.39193 25.1113 6.61025C26.4605 5.80872 28.0741 5.58036 29.5927 5.97616C30.5587 6.22884 31.656 6.89247 32.3208 7.62761C34.0671 9.5589 34.3468 12.2089 33.0331 14.4432C32.9753 14.5019 32.9248 14.5823 32.8761 14.6598C32.8542 14.6947 32.8326 14.729 32.8109 14.7605C32.1406 15.7314 30.6955 16.8656 29.4939 16.972C28.7531 17.1224 27.0954 16.503 26.4232 16.0981C24.8578 15.1553 23.6609 13.7682 22.8036 12.1635Z" fill="url(#paint18_linear_957_10396)"/>
<path d="M19.8646 16.8982C18.8248 15.7783 17.3316 13.5652 16.7317 12.5986C16.5184 13.1319 15.5873 14.154 15.1318 14.5984L18.0648 18.698C18.8648 18.2361 19.598 17.3057 19.8646 16.8982Z" fill="#1A2841" fill-opacity="0.46"/>
<path d="M29.4966 16.9982C30.7764 16.9982 33.8739 18.6424 35.2626 19.4646C35.6092 19.1713 36.518 18.098 36.9291 17.5981L32.4963 15.2317C31.8297 16.2182 30.2187 16.8204 29.4966 16.9982Z" fill="#1A2841" fill-opacity="0.46"/>
</g>
<defs>
<linearGradient id="paint0_linear_957_10396" x1="29.1971" y1="5.16623" x2="35.1966" y2="14.4446" gradientUnits="userSpaceOnUse">
<stop stop-color="#0589C2"/>
<stop offset="0.475962" stop-color="#3BB7ED"/>
<stop offset="1" stop-color="#0769AC" stop-opacity="0.8"/>
</linearGradient>
<linearGradient id="paint1_linear_957_10396" x1="32.8964" y1="1.63339" x2="21.7643" y2="4.8997" gradientUnits="userSpaceOnUse">
<stop stop-color="#17DEED"/>
<stop offset="1" stop-color="#29C8D4"/>
</linearGradient>
<linearGradient id="paint2_linear_957_10396" x1="28.7636" y1="18.6649" x2="34.9629" y2="21.4646" gradientUnits="userSpaceOnUse">
<stop stop-color="#6BE4ED" stop-opacity="0"/>
<stop offset="0.442308" stop-color="#6BE4ED"/>
<stop offset="1" stop-color="#6BE4ED" stop-opacity="0"/>
</linearGradient>
<linearGradient id="paint3_linear_957_10396" x1="37.6626" y1="26.3307" x2="24.4753" y2="38.1104" gradientUnits="userSpaceOnUse">
<stop stop-color="#0B7CB9" stop-opacity="0"/>
<stop offset="0.490385" stop-color="#0B7CB9"/>
<stop offset="1" stop-color="#0B7CB9"/>
</linearGradient>
<linearGradient id="paint4_linear_957_10396" x1="33.8287" y1="28.8272" x2="31.4962" y2="32.7966" gradientUnits="userSpaceOnUse">
<stop offset="0.328913" stop-color="#0647A1"/>
<stop offset="1" stop-color="#0B7CB9"/>
</linearGradient>
<linearGradient id="paint5_linear_957_10396" x1="17.4648" y1="22.2976" x2="21.0781" y2="28.5059" gradientUnits="userSpaceOnUse">
<stop stop-color="#2BBAD8" stop-opacity="0"/>
<stop offset="0.466346" stop-color="#2BBAD8"/>
<stop offset="1" stop-color="#2BBAD8" stop-opacity="0"/>
</linearGradient>
<linearGradient id="paint6_linear_957_10396" x1="17.4648" y1="22.2976" x2="21.0781" y2="28.5059" gradientUnits="userSpaceOnUse">
<stop stop-color="#2BBAD8" stop-opacity="0"/>
<stop offset="0.466346" stop-color="#2BBAD8"/>
<stop offset="1" stop-color="#2BBAD8" stop-opacity="0"/>
</linearGradient>
<linearGradient id="paint7_linear_957_10396" x1="19.8642" y1="14.3318" x2="9.16542" y2="5.03287" gradientUnits="userSpaceOnUse">
<stop stop-color="#0B80BF" stop-opacity="0.15"/>
<stop offset="0.499054" stop-color="#0D68AF"/>
<stop offset="1" stop-color="#0D68AF"/>
</linearGradient>
<linearGradient id="paint8_linear_957_10396" x1="10.935" y1="0.817627" x2="2.83328" y2="6.69969" gradientUnits="userSpaceOnUse">
<stop stop-color="#07A8D6"/>
<stop offset="1" stop-color="#07A8D6" stop-opacity="0"/>
</linearGradient>
<linearGradient id="paint9_linear_957_10396" x1="4.61166" y1="1.80988" x2="2.46658" y2="13.6653" gradientUnits="userSpaceOnUse">
<stop stop-color="#468CC4"/>
<stop offset="1" stop-color="#468CC4" stop-opacity="0"/>
</linearGradient>
<linearGradient id="paint10_linear_957_10396" x1="7.13299" y1="1.60025" x2="3.26675" y2="4.23329" gradientUnits="userSpaceOnUse">
<stop stop-color="#078BC6" stop-opacity="0.75"/>
<stop offset="0.5" stop-color="#0B7CB9"/>
<stop offset="1" stop-color="#0B7CB9" stop-opacity="0"/>
</linearGradient>
<linearGradient id="paint11_linear_957_10396" x1="6.86528" y1="6.63264" x2="5.99871" y2="7.66586" gradientUnits="userSpaceOnUse">
<stop stop-color="#0D68AF" stop-opacity="0.24"/>
<stop offset="1" stop-color="#0647A1"/>
</linearGradient>
<linearGradient id="paint12_linear_957_10396" x1="15.5321" y1="15.6319" x2="3.20016" y2="22.2978" gradientUnits="userSpaceOnUse">
<stop stop-color="#3AC0E0" stop-opacity="0.75"/>
<stop offset="0.495192" stop-color="#41BBD8"/>
<stop offset="1" stop-color="#41BBD8" stop-opacity="0"/>
</linearGradient>
<linearGradient id="paint13_linear_957_10396" x1="15.5321" y1="15.6319" x2="3.20016" y2="22.2978" gradientUnits="userSpaceOnUse">
<stop stop-color="#3AC0E0" stop-opacity="0.75"/>
<stop offset="0.495192" stop-color="#41BBD8"/>
<stop offset="1" stop-color="#41BBD8" stop-opacity="0"/>
</linearGradient>
<linearGradient id="paint14_linear_957_10396" x1="18.2319" y1="15.3989" x2="11.4659" y2="20.4984" gradientUnits="userSpaceOnUse">
<stop stop-color="#0DB5D4" stop-opacity="0"/>
<stop offset="0.451923" stop-color="#0DB5D4"/>
<stop offset="0.975962" stop-color="#0DB5D4" stop-opacity="0"/>
</linearGradient>
<linearGradient id="paint15_linear_957_10396" x1="2.69929" y1="20.7978" x2="8.407" y2="35.2208" gradientUnits="userSpaceOnUse">
<stop stop-color="#099CC8"/>
<stop offset="0.466346" stop-color="#075CAC"/>
<stop offset="1" stop-color="#099CC8"/>
</linearGradient>
<linearGradient id="paint16_linear_957_10396" x1="8.73256" y1="3.79965" x2="15.4297" y2="22.0218" gradientUnits="userSpaceOnUse">
<stop offset="0.0350106" stop-color="#2BBAD8" stop-opacity="0"/>
<stop offset="0.523592" stop-color="#2BBAD8"/>
<stop offset="1" stop-color="#2BBAD8" stop-opacity="0"/>
</linearGradient>
<linearGradient id="paint17_linear_957_10396" x1="19.6977" y1="14.332" x2="39.2327" y2="30.0272" gradientUnits="userSpaceOnUse">
<stop offset="0.0339681" stop-color="#0B80BF" stop-opacity="0"/>
<stop offset="0.438231" stop-color="#2BBAD8"/>
<stop offset="1" stop-color="#065AA8" stop-opacity="0.75"/>
</linearGradient>
<linearGradient id="paint18_linear_957_10396" x1="19.6977" y1="14.332" x2="39.2327" y2="30.0272" gradientUnits="userSpaceOnUse">
<stop offset="0.0339681" stop-color="#0B80BF" stop-opacity="0"/>
<stop offset="0.438231" stop-color="#2BBAD8"/>
<stop offset="1" stop-color="#065AA8" stop-opacity="0.75"/>
</linearGradient>
<clipPath id="clip0_957_10396">
<rect width="38.9291" height="38.9291" fill="white"/>
</clipPath>
</defs>
</svg>
