<svg width="57" height="56" viewBox="0 0 57 56" fill="none" xmlns="http://www.w3.org/2000/svg">
<rect width="57" height="56" rx="28" fill="#2392D4"/>
<path d="M29.5962 36.4033C29.595 36.4165 29.595 36.4299 29.5962 36.4432C29.6182 36.9128 29.8203 37.3559 30.1605 37.6805C30.5007 38.005 30.953 38.1861 31.4233 38.1861C31.8936 38.1861 32.3458 38.005 32.686 37.6805C33.0262 37.3559 33.2283 36.9128 33.2503 36.4432V36.3993V32.0081H29.5962V36.4033Z" fill="white"/>
<path d="M38.1265 12.7745H35.6904C34.8923 12.7703 34.1012 12.9237 33.3626 13.2258C32.6239 13.528 31.9522 13.973 31.386 14.5353C30.8198 15.0975 30.3702 15.766 30.0631 16.5024C29.756 17.2388 29.5973 18.0286 29.5963 18.8264V26.1717H18.8736C18.0751 26.1675 17.2837 26.321 16.5448 26.6234C15.8059 26.9258 15.134 27.3711 14.5677 27.9338C14.0014 28.4965 13.552 29.1655 13.2451 29.9024C12.9382 30.6392 12.7799 31.4294 12.7794 32.2276V37.0978C12.7773 38.7174 13.4175 40.2718 14.5598 41.4204C15.7021 42.569 17.2534 43.2182 18.8736 43.2256H21.3097C22.9299 43.2182 24.4811 42.569 25.6234 41.4204C26.7657 40.2718 27.4059 38.7174 27.4038 37.0978V32.2276C27.4078 32.1584 27.4078 32.0891 27.4038 32.02H23.7457V37.0978C23.7479 37.748 23.4932 38.3728 23.037 38.8362C22.5808 39.2997 21.96 39.5645 21.3097 39.5729H18.8736C18.2232 39.5645 17.6024 39.2997 17.1462 38.8362C16.6901 38.3728 16.4354 37.748 16.4375 37.0978V32.2276C16.4375 31.9096 16.5008 31.5949 16.6237 31.3016C16.7466 31.0084 16.9266 30.7426 17.1534 30.5196C17.3801 30.2967 17.649 30.1211 17.9444 30.0031C18.2397 29.8851 18.5556 29.8271 18.8736 29.8324H38.1265C39.746 29.825 41.2967 29.1764 42.4389 28.0287C43.581 26.8809 44.2217 25.3275 44.2207 23.7086V18.8264C44.2196 18.0286 44.061 17.2388 43.7539 16.5024C43.4468 15.766 42.9972 15.0975 42.431 14.5353C41.8648 13.973 41.1931 13.528 40.4544 13.2258C39.7157 12.9237 38.9246 12.7703 38.1265 12.7745ZM40.5626 23.7006C40.5626 24.3498 40.3071 24.973 39.8513 25.4354C39.3955 25.8977 38.7759 26.1622 38.1265 26.1717H33.2504V18.8264C33.2503 18.5081 33.3137 18.193 33.4369 17.8995C33.56 17.606 33.7405 17.34 33.9676 17.117C34.1948 16.894 34.4642 16.7185 34.76 16.6007C35.0558 16.483 35.3721 16.4253 35.6904 16.4312H38.1265C38.4445 16.4259 38.7604 16.4839 39.0557 16.6019C39.3511 16.7199 39.62 16.8955 39.8467 17.1185C40.0735 17.3414 40.2535 17.6072 40.3764 17.9005C40.4993 18.1937 40.5626 18.5085 40.5626 18.8264V23.7006Z" fill="white"/>
</svg>
