<svg width="16" height="17" viewBox="0 0 16 17" fill="none" xmlns="http://www.w3.org/2000/svg">
<path d="M7.33301 1.83325H5.99967C2.66634 1.83325 1.33301 3.16659 1.33301 6.49992V10.4999C1.33301 13.8333 2.66634 15.1666 5.99967 15.1666H9.99967C13.333 15.1666 14.6663 13.8333 14.6663 10.4999V9.16659" stroke="#262B2C" stroke-width="1.5" stroke-linecap="round" stroke-linejoin="round"/>
<path d="M10.6933 2.51326L5.43992 7.76659C5.23992 7.96659 5.03992 8.35992 4.99992 8.64659L4.71325 10.6533C4.60659 11.3799 5.11992 11.8866 5.84659 11.7866L7.85325 11.4999C8.13325 11.4599 8.52659 11.2599 8.73325 11.0599L13.9866 5.80659C14.8933 4.89992 15.3199 3.84659 13.9866 2.51326C12.6533 1.17992 11.5999 1.60659 10.6933 2.51326Z" stroke="#262B2C" stroke-width="1.5" stroke-miterlimit="10" stroke-linecap="round" stroke-linejoin="round"/>
<path d="M9.94043 3.2666C10.3871 4.85993 11.6338 6.1066 13.2338 6.55993" stroke="#262B2C" stroke-width="1.5" stroke-miterlimit="10" stroke-linecap="round" stroke-linejoin="round"/>
</svg>
