<svg width="16" height="16" viewBox="0 0 16 16" fill="none" xmlns="http://www.w3.org/2000/svg">
<path d="M8.67331 1.94688L12.6066 3.69354C13.74 4.19354 13.74 5.02021 12.6066 5.52021L8.67331 7.26688C8.22664 7.46688 7.49331 7.46688 7.04664 7.26688L3.11331 5.52021C1.97997 5.02021 1.97997 4.19354 3.11331 3.69354L7.04664 1.94688C7.49331 1.74687 8.22664 1.74687 8.67331 1.94688Z" stroke="#848D90" stroke-linecap="round" stroke-linejoin="round"/>
<path d="M2 7.3335C2 7.8935 2.42 8.54016 2.93333 8.76683L7.46 10.7802C7.80667 10.9335 8.2 10.9335 8.54 10.7802L13.0667 8.76683C13.58 8.54016 14 7.8935 14 7.3335" stroke="#848D90" stroke-linecap="round" stroke-linejoin="round"/>
<path d="M2 10.6665C2 11.2865 2.36667 11.8465 2.93333 12.0998L7.46 14.1132C7.80667 14.2665 8.2 14.2665 8.54 14.1132L13.0667 12.0998C13.6333 11.8465 14 11.2865 14 10.6665" stroke="#848D90" stroke-linecap="round" stroke-linejoin="round"/>
</svg>
