<svg width="117" height="22" viewBox="0 0 117 22" fill="none" xmlns="http://www.w3.org/2000/svg">
<path d="M29.7317 12.8694V4.16264C29.7317 1.65671 31.4023 0 33.8219 0C36.2416 0 37.9623 1.67063 37.9623 4.16264V12.8694C37.9623 15.3753 36.2722 17.0459 33.8219 17.0459C31.3717 17.0459 29.7317 15.367 29.7317 12.8694ZM36.2722 12.964V4.09303C36.2722 2.54492 35.2726 1.47572 33.8219 1.47572C32.3713 1.47572 31.419 2.54492 31.419 4.09303V12.964C31.419 14.4871 32.3963 15.5591 33.8219 15.5591C35.2475 15.5591 36.2722 14.4871 36.2722 12.964Z" fill="white"/>
<path d="M47.3095 10.8952C47.3095 11.7751 47.3095 12.5853 47.2872 13.4652C47.2148 15.559 46.0009 17.032 44.0741 17.032C43.6184 17.0489 43.1656 16.9536 42.7553 16.7546C42.3451 16.5555 41.99 16.2588 41.7213 15.8904C41.6489 15.8208 41.6015 15.8681 41.6015 15.9377V21.228C41.6032 21.2598 41.5981 21.2915 41.5866 21.3212C41.5751 21.3508 41.5575 21.3777 41.5348 21.4C41.5122 21.4224 41.4852 21.4397 41.4554 21.4508C41.4256 21.462 41.3938 21.4667 41.3621 21.4647H40.1509C40.1192 21.4667 40.0874 21.462 40.0576 21.4508C40.0278 21.4397 40.0007 21.4224 39.9781 21.4C39.9555 21.3777 39.9379 21.3508 39.9264 21.3212C39.9149 21.2915 39.9098 21.2598 39.9114 21.228V5.04802C39.9098 5.01627 39.9149 4.98454 39.9264 4.9549C39.9379 4.92525 39.9555 4.89838 39.9781 4.87603C40.0007 4.85368 40.0278 4.83637 40.0576 4.82522C40.0874 4.81407 40.1192 4.80934 40.1509 4.81135H41.3621C41.3938 4.80934 41.4256 4.81407 41.4554 4.82522C41.4852 4.83637 41.5122 4.85368 41.5348 4.87603C41.5575 4.89838 41.5751 4.92525 41.5866 4.9549C41.5981 4.98454 41.6032 5.01627 41.6015 5.04802V5.73855C41.6015 5.81094 41.6489 5.85827 41.7213 5.78588C41.9882 5.41395 42.3423 5.11312 42.7525 4.90974C43.1626 4.70635 43.6164 4.60661 44.0741 4.61923C45.9786 4.61923 47.1926 6.14228 47.2872 8.26119C47.3095 9.13548 47.3095 10.0153 47.3095 10.8952ZM45.6222 13.1784C45.6445 12.3431 45.6222 11.4437 45.6222 10.8228V8.47002C45.6445 7.07783 44.8119 6.08938 43.5757 6.08938C42.4341 6.08938 41.6015 7.04163 41.6015 8.47002V13.1784C41.6015 14.6068 42.4369 15.559 43.5757 15.559C44.7897 15.559 45.6445 14.6068 45.6222 13.1784Z" fill="white"/>
<path d="M55.9466 11.4661H50.5226C50.4982 11.468 50.4752 11.4786 50.4578 11.496C50.4405 11.5133 50.4299 11.5363 50.428 11.5608V13.2982C50.428 14.6292 51.2633 15.5591 52.4494 15.5591C52.9269 15.565 53.3906 15.3997 53.7568 15.0933C54.123 14.7869 54.3674 14.3595 54.4458 13.8885C54.4932 13.7437 54.5656 13.6741 54.7076 13.6741L55.8993 13.7215C55.9318 13.7205 55.9642 13.7271 55.9937 13.7407C56.0233 13.7544 56.0494 13.7746 56.0699 13.7999C56.0903 13.8253 56.1047 13.855 56.1118 13.8868C56.1189 13.9185 56.1186 13.9515 56.1109 13.9832C55.8491 15.8376 54.5433 17.0265 52.4494 17.0265C50.1885 17.0265 48.7379 15.5759 48.7379 13.3873V8.25573C48.7379 6.11455 50.1885 4.61377 52.4494 4.61377C54.7549 4.61377 56.1833 6.11455 56.1833 8.25573V11.2294C56.1853 11.2611 56.1806 11.2927 56.1694 11.3224C56.1583 11.352 56.1409 11.3789 56.1185 11.4013C56.0961 11.4237 56.0692 11.4411 56.0395 11.4523C56.0099 11.4634 55.9782 11.4682 55.9466 11.4661ZM50.4308 8.37268V9.96812C50.4327 9.99259 50.4433 10.0156 50.4606 10.0329C50.478 10.0503 50.501 10.0609 50.5254 10.0628H54.4235C54.448 10.0609 54.471 10.0503 54.4884 10.0329C54.5057 10.0156 54.5163 9.99259 54.5182 9.96812V8.37268C54.5182 7.01669 53.6829 6.08949 52.4494 6.08949C51.2661 6.08949 50.4308 7.01669 50.4308 8.37268Z" fill="white"/>
<path d="M65.057 8.41999V16.6033C65.0591 16.6352 65.0543 16.6673 65.043 16.6973C65.0316 16.7272 65.0141 16.7545 64.9914 16.7771C64.9688 16.7998 64.9415 16.8174 64.9116 16.8287C64.8816 16.84 64.8495 16.8448 64.8176 16.8427H63.6064C63.5744 16.8448 63.5423 16.84 63.5124 16.8287C63.4824 16.8174 63.4552 16.7998 63.4325 16.7771C63.4098 16.7545 63.3923 16.7272 63.381 16.6973C63.3697 16.6673 63.3649 16.6352 63.3669 16.6033V8.56478C63.3669 7.01667 62.6764 6.11453 61.4652 6.11453C60.2039 6.11453 59.4187 7.08906 59.4187 8.68172V16.6033C59.4207 16.635 59.4159 16.6668 59.4048 16.6966C59.3936 16.7263 59.3763 16.7534 59.354 16.776C59.3316 16.7986 59.3048 16.8163 59.2751 16.8278C59.2455 16.8393 59.2137 16.8444 59.182 16.8427H57.968C57.936 16.8448 57.904 16.84 57.874 16.8287C57.844 16.8174 57.8168 16.7998 57.7941 16.7771C57.7715 16.7545 57.7539 16.7272 57.7426 16.6973C57.7313 16.6673 57.7265 16.6352 57.7285 16.6033V5.04811C57.7269 5.01636 57.732 4.98463 57.7435 4.95499C57.755 4.92534 57.7726 4.89847 57.7952 4.87612C57.8179 4.85377 57.8449 4.83646 57.8747 4.82531C57.9045 4.81416 57.9363 4.80943 57.968 4.81144H59.182C59.2136 4.80939 59.2453 4.81411 59.2749 4.82528C59.3046 4.83645 59.3315 4.85382 59.3539 4.87622C59.3763 4.89862 59.3936 4.92554 59.4048 4.95518C59.416 4.98482 59.4207 5.0165 59.4187 5.04811V5.83331C59.4187 5.9057 59.4911 5.92798 59.5384 5.85837C59.8196 5.46898 60.1921 5.15462 60.6232 4.94294C61.0543 4.73126 61.5309 4.62873 62.0109 4.64438C63.9628 4.63881 65.057 6.04213 65.057 8.41999Z" fill="white"/>
<path d="M75.142 4.76954C75.142 7.50658 73.6217 9.31364 71.3357 9.31364H68.8855C68.861 9.31556 68.838 9.32615 68.8207 9.3435C68.8033 9.36086 68.7927 9.38384 68.7908 9.40831V16.592C68.7928 16.6237 68.7881 16.6555 68.777 16.6853C68.7658 16.7151 68.7485 16.7421 68.7261 16.7648C68.7038 16.7874 68.6769 16.805 68.6473 16.8165C68.6176 16.828 68.5859 16.8331 68.5541 16.8315H67.3402C67.3084 16.8331 67.2767 16.828 67.247 16.8165C67.2174 16.805 67.1905 16.7874 67.1682 16.7648C67.1458 16.7421 67.1285 16.7151 67.1174 16.6853C67.1062 16.6555 67.1015 16.6237 67.1035 16.592V0.403643C67.1014 0.372032 67.1062 0.340346 67.1173 0.310704C67.1285 0.281062 67.1459 0.254142 67.1683 0.231744C67.1907 0.209345 67.2176 0.191981 67.2472 0.180811C67.2769 0.169641 67.3086 0.164923 67.3402 0.166969H71.2661C73.5967 0.166969 75.142 2.02136 75.142 4.76954ZM73.4547 4.7946C73.4547 2.86781 72.4773 1.63155 71.0517 1.63155H68.8855C68.861 1.63346 68.838 1.64406 68.8207 1.66141C68.8033 1.67877 68.7927 1.70175 68.7908 1.72622V7.83792C68.7921 7.86289 68.8024 7.88654 68.8198 7.90446C68.8372 7.92239 68.8606 7.93338 68.8855 7.93537H71.0517C72.4773 7.94651 73.4547 6.73253 73.4547 4.80574V4.7946Z" fill="white"/>
<path d="M81.5182 4.94777C81.5686 4.97966 81.6075 5.02691 81.629 5.08255C81.6506 5.1382 81.6537 5.19929 81.6379 5.25684L81.3762 6.47083C81.3511 6.63789 81.2314 6.66016 81.0671 6.61283C80.7512 6.48074 80.4026 6.44773 80.0675 6.51816C78.9259 6.59055 78.1185 7.84909 78.1185 9.46681V16.6032C78.1205 16.6349 78.1157 16.6667 78.1046 16.6965C78.0934 16.7262 78.0761 16.7533 78.0538 16.7759C78.0314 16.7985 78.0046 16.8162 77.9749 16.8277C77.9453 16.8392 77.9135 16.8443 77.8818 16.8426H76.6678C76.6361 16.8443 76.6043 16.8392 76.5747 16.8277C76.545 16.8162 76.5182 16.7985 76.4958 16.7759C76.4735 16.7533 76.4561 16.7262 76.445 16.6965C76.4339 16.6667 76.4291 16.6349 76.4311 16.6032V5.04801C76.4291 5.0164 76.4338 4.98472 76.445 4.95508C76.4561 4.92543 76.4735 4.89851 76.4959 4.87612C76.5183 4.85372 76.5452 4.83635 76.5749 4.82518C76.6045 4.81401 76.6362 4.80929 76.6678 4.81134H77.8818C77.9134 4.80929 77.9451 4.81401 77.9747 4.82518C78.0044 4.83635 78.0313 4.85372 78.0537 4.87612C78.0761 4.89851 78.0934 4.92543 78.1046 4.95508C78.1158 4.98472 78.1205 5.0164 78.1185 5.04801V6.4764C78.1185 6.57106 78.1909 6.57107 78.2382 6.49867C78.6419 5.42947 79.3519 4.69161 80.4991 4.69161C80.8562 4.67899 81.2095 4.7678 81.5182 4.94777Z" fill="white"/>
<path d="M82.089 13.4013V8.25573C82.089 6.11455 83.5396 4.61377 85.8228 4.61377C88.106 4.61377 89.5817 6.11455 89.5817 8.25573V13.4013C89.5817 15.5898 88.1088 17.0404 85.8228 17.0404C83.5369 17.0404 82.089 15.5814 82.089 13.4013ZM87.8944 13.3066V8.37268C87.8944 7.01669 87.0368 6.08949 85.8228 6.08949C84.6088 6.08949 83.7791 7.01669 83.7791 8.37268V13.2982C83.7791 14.6292 84.6144 15.5591 85.8228 15.5591C87.0312 15.5591 87.8944 14.6292 87.8944 13.2982V13.3066Z" fill="white"/>
<path d="M89.0834 21.5538V20.5542C89.0813 20.5225 89.0861 20.4907 89.0972 20.4609C89.1084 20.4311 89.1257 20.404 89.148 20.3814C89.1704 20.3588 89.1973 20.3412 89.2269 20.3297C89.2565 20.3182 89.2883 20.3131 89.32 20.3147C90.676 20.2674 91.2468 19.3402 91.2468 17.8895V5.048C91.2452 5.01625 91.2503 4.98451 91.2618 4.95487C91.2733 4.92523 91.2909 4.89835 91.3135 4.87601C91.3361 4.85366 91.3632 4.83634 91.393 4.8252C91.4227 4.81405 91.4545 4.80932 91.4863 4.81132H92.6975C92.7292 4.80932 92.761 4.81405 92.7908 4.8252C92.8205 4.83634 92.8476 4.85366 92.8702 4.87601C92.8928 4.89835 92.9105 4.92523 92.922 4.95487C92.9335 4.98451 92.9386 5.01625 92.9369 5.048V17.8951C92.9369 20.273 92.2937 21.7932 89.3172 21.7932C89.2856 21.7949 89.254 21.7898 89.2245 21.7783C89.195 21.7668 89.1682 21.7491 89.1461 21.7264C89.124 21.7038 89.1069 21.6766 89.0961 21.6469C89.0853 21.6171 89.0809 21.5854 89.0834 21.5538ZM90.9155 1.40325C90.9077 1.24395 90.9324 1.08473 90.988 0.935254C91.0436 0.785777 91.129 0.649155 91.239 0.533671C91.349 0.418186 91.4814 0.326245 91.628 0.263424C91.7746 0.200604 91.9324 0.168213 92.0919 0.168213C92.2514 0.168213 92.4092 0.200604 92.5558 0.263424C92.7024 0.326245 92.8347 0.418186 92.9447 0.533671C93.0547 0.649155 93.1401 0.785777 93.1957 0.935254C93.2513 1.08473 93.276 1.24395 93.2683 1.40325C93.276 1.56255 93.2513 1.72177 93.1957 1.87125C93.1401 2.02072 93.0547 2.15734 92.9447 2.27283C92.8347 2.38831 92.7024 2.48026 92.5558 2.54308C92.4092 2.6059 92.2514 2.63829 92.0919 2.63829C91.9324 2.63829 91.7746 2.6059 91.628 2.54308C91.4814 2.48026 91.349 2.38831 91.239 2.27283C91.129 2.15734 91.0436 2.02072 90.988 1.87125C90.9324 1.72177 90.9077 1.56255 90.9155 1.40325Z" fill="white"/>
<path d="M101.833 11.4661H96.4091C96.3846 11.468 96.3616 11.4786 96.3442 11.496C96.3269 11.5133 96.3163 11.5363 96.3144 11.5608V13.2982C96.3144 14.6292 97.1497 15.5591 98.3358 15.5591C98.8136 15.5651 99.2777 15.3999 99.6444 15.0935C100.011 14.7871 100.256 14.3597 100.335 13.8885C100.382 13.7437 100.455 13.6741 100.597 13.6741L101.786 13.7215C101.818 13.7206 101.851 13.7273 101.88 13.7409C101.91 13.7545 101.936 13.7747 101.957 13.7999C101.978 13.8252 101.992 13.8548 102 13.8866C102.007 13.9183 102.007 13.9514 102 13.9832C101.738 15.8376 100.43 17.0265 98.3358 17.0265C96.0777 17.0265 94.6243 15.5759 94.6243 13.3873V8.25573C94.6243 6.11455 96.0777 4.61377 98.3358 4.61377C100.644 4.61377 102.072 6.11455 102.072 8.25573V11.2294C102.074 11.2612 102.069 11.2929 102.058 11.3226C102.046 11.3522 102.028 11.3791 102.006 11.4014C101.983 11.4238 101.956 11.4411 101.926 11.4522C101.897 11.4634 101.865 11.4681 101.833 11.4661ZM96.3144 8.37268V9.96812C96.3163 9.99259 96.3269 10.0156 96.3442 10.0329C96.3616 10.0503 96.3846 10.0609 96.4091 10.0628H100.307C100.332 10.0609 100.355 10.0503 100.372 10.0329C100.389 10.0156 100.4 9.99259 100.402 9.96812V8.37268C100.402 7.01669 99.5665 6.08949 98.3331 6.08949C97.1469 6.08949 96.3144 7.01669 96.3144 8.37268Z" fill="white"/>
<path d="M103.356 13.4013V8.25573C103.356 6.13682 104.807 4.61377 107.068 4.61377C109.329 4.61377 110.827 6.13682 110.827 7.92161V8.15828C110.829 8.19025 110.824 8.2223 110.812 8.25228C110.801 8.28226 110.784 8.30948 110.761 8.33214C110.738 8.35479 110.711 8.37236 110.681 8.38367C110.651 8.39498 110.619 8.39978 110.587 8.39773L109.373 8.44507C109.343 8.44735 109.313 8.44353 109.285 8.43385C109.257 8.42417 109.231 8.40883 109.209 8.38877C109.187 8.3687 109.169 8.34434 109.156 8.31715C109.144 8.28997 109.137 8.26055 109.136 8.23067V8.04133C109.131 7.77662 109.074 7.51557 108.966 7.2735C108.859 7.03143 108.705 6.81321 108.512 6.63166C108.319 6.4501 108.092 6.30887 107.844 6.21624C107.596 6.12362 107.332 6.08147 107.068 6.09227C105.876 6.09227 105.043 7.01947 105.043 8.37546V13.276C105.043 14.6319 105.879 15.5619 107.068 15.5619C107.332 15.5727 107.596 15.5306 107.844 15.438C108.092 15.3453 108.319 15.2041 108.512 15.0225C108.705 14.841 108.859 14.6228 108.966 14.3807C109.074 14.1386 109.131 13.8776 109.136 13.6129V13.4458C109.134 13.4142 109.139 13.3825 109.15 13.3529C109.161 13.3232 109.179 13.2963 109.201 13.2739C109.224 13.2515 109.251 13.2341 109.28 13.223C109.31 13.2118 109.342 13.2071 109.373 13.2091L110.587 13.2314C110.619 13.2294 110.651 13.2342 110.681 13.2455C110.711 13.2568 110.738 13.2744 110.761 13.297C110.784 13.3197 110.801 13.3469 110.812 13.3769C110.824 13.4068 110.829 13.4389 110.827 13.4709V13.7326C110.827 15.587 109.351 17.0376 107.068 17.0376C104.784 17.0376 103.356 15.5814 103.356 13.4013Z" fill="white"/>
<path d="M116.142 6.067H114.335C114.31 6.06891 114.287 6.0795 114.27 6.09685C114.253 6.11421 114.242 6.13719 114.24 6.16166V13.44C114.24 14.9631 114.797 15.3668 115.786 15.3445H116.025C116.057 15.3425 116.088 15.3472 116.118 15.3584C116.148 15.3695 116.174 15.3869 116.197 15.4093C116.219 15.4317 116.237 15.4586 116.248 15.4883C116.259 15.5179 116.264 15.5496 116.262 15.5812V16.6031C116.264 16.6348 116.259 16.6666 116.248 16.6964C116.237 16.7261 116.219 16.7532 116.197 16.7758C116.175 16.7984 116.148 16.8161 116.118 16.8276C116.088 16.8391 116.057 16.8442 116.025 16.8425H115.429C113.739 16.8425 112.575 16.3441 112.575 13.9412V6.16166C112.573 6.13719 112.563 6.11421 112.545 6.09685C112.528 6.0795 112.505 6.06891 112.48 6.067H111.55C111.519 6.06863 111.487 6.06353 111.457 6.05204C111.428 6.04054 111.401 6.02291 111.379 6.0003C111.356 5.97769 111.339 5.95061 111.328 5.92083C111.317 5.89106 111.312 5.85927 111.314 5.82754V5.04791C111.312 5.0163 111.316 4.98462 111.328 4.95498C111.339 4.92534 111.356 4.89842 111.379 4.87602C111.401 4.85362 111.428 4.83626 111.458 4.82509C111.487 4.81392 111.519 4.80919 111.55 4.81124H112.48C112.505 4.80932 112.528 4.79874 112.545 4.78138C112.563 4.76402 112.573 4.74104 112.575 4.71657V2.05193C112.573 2.0202 112.578 1.98841 112.589 1.95863C112.6 1.92886 112.617 1.90178 112.64 1.87917C112.662 1.85655 112.689 1.83892 112.719 1.82743C112.748 1.81594 112.78 1.81084 112.812 1.81247H114.001C114.033 1.81043 114.065 1.81522 114.095 1.82653C114.125 1.83784 114.152 1.85541 114.175 1.87807C114.197 1.90073 114.215 1.92795 114.226 1.95793C114.237 1.9879 114.242 2.01995 114.24 2.05193V4.71657C114.242 4.74104 114.253 4.76402 114.27 4.78138C114.287 4.79874 114.31 4.80932 114.335 4.81124H116.142C116.174 4.80924 116.205 4.81396 116.235 4.82511C116.265 4.83626 116.292 4.85357 116.315 4.87592C116.337 4.89827 116.355 4.92515 116.366 4.95479C116.378 4.98443 116.383 5.01616 116.381 5.04791V5.83311C116.383 5.86463 116.377 5.89606 116.366 5.92536C116.354 5.95467 116.336 5.9812 116.314 6.00324C116.291 6.02528 116.264 6.04235 116.235 6.05333C116.205 6.06431 116.173 6.06897 116.142 6.067Z" fill="white"/>
<path d="M12.3433 16.4975C12.3425 16.5067 12.3425 16.5161 12.3433 16.5253C12.3586 16.8529 12.4995 17.1619 12.7367 17.3883C12.9739 17.6147 13.2892 17.741 13.6171 17.741C13.945 17.741 14.2603 17.6147 14.4975 17.3883C14.7347 17.1619 14.8756 16.8529 14.891 16.5253V16.4947V13.4319H12.3433V16.4975Z" fill="white"/>
<path d="M18.2907 0.0166603H16.5923C16.0358 0.0137272 15.4842 0.120705 14.9692 0.331453C14.4542 0.542202 13.9859 0.852576 13.5911 1.24476C13.1963 1.63695 12.8829 2.10323 12.6688 2.61684C12.4546 3.13046 12.344 3.68131 12.3433 4.23777V9.36103H4.86725C4.31055 9.35809 3.75876 9.46516 3.24357 9.67608C2.72837 9.887 2.25992 10.1976 1.86511 10.5901C1.4703 10.9826 1.15691 11.4492 0.942946 11.9631C0.72898 12.4771 0.618649 13.0282 0.61829 13.5849V16.9819C0.616804 18.1115 1.06319 19.1957 1.85962 19.9968C2.65606 20.798 3.7376 21.2507 4.86725 21.2559H6.56572C7.69536 21.2507 8.7769 20.798 9.57334 19.9968C10.3698 19.1957 10.8162 18.1115 10.8147 16.9819V13.5849C10.8174 13.5367 10.8174 13.4884 10.8147 13.4401H8.26418V16.9819C8.26569 17.4354 8.08811 17.8711 7.77005 18.1944C7.452 18.5177 7.01918 18.7023 6.56572 18.7082H4.86725C4.41378 18.7023 3.98097 18.5177 3.66291 18.1944C3.34485 17.8711 3.16727 17.4354 3.16878 16.9819V13.5849C3.16875 13.3632 3.21286 13.1436 3.29856 12.9391C3.38425 12.7346 3.5098 12.5492 3.6679 12.3937C3.82599 12.2382 4.01346 12.1157 4.21937 12.0334C4.42529 11.9511 4.64553 11.9106 4.86725 11.9143H18.2907C19.4199 11.9091 20.501 11.4568 21.2974 10.6562C22.0937 9.85571 22.5404 8.77224 22.5397 7.64307V4.23777C22.539 3.68131 22.4284 3.13046 22.2142 2.61684C22.0001 2.10323 21.6866 1.63695 21.2919 1.24476C20.8971 0.852576 20.4288 0.542202 19.9138 0.331453C19.3987 0.120705 18.8472 0.0137272 18.2907 0.0166603ZM19.9892 7.6375C19.9892 8.0903 19.8111 8.52493 19.4933 8.84744C19.1754 9.16995 18.7435 9.35444 18.2907 9.36103H14.891V4.23777C14.891 4.01578 14.9352 3.79601 15.021 3.5913C15.1069 3.38659 15.2327 3.20104 15.3911 3.0455C15.5495 2.88996 15.7373 2.76755 15.9435 2.68542C16.1498 2.60328 16.3703 2.56308 16.5923 2.56715H18.2907C18.5124 2.56345 18.7327 2.60394 18.9386 2.68624C19.1445 2.76854 19.332 2.89101 19.4901 3.04651C19.6482 3.20201 19.7737 3.38743 19.8594 3.59196C19.9451 3.79648 19.9892 4.01602 19.9892 4.23777V7.6375Z" fill="white"/>
</svg>
