<svg width="116" height="22" viewBox="0 0 116 22" fill="none" xmlns="http://www.w3.org/2000/svg">
<path d="M28.9172 12.9976V4.29082C28.9172 1.78488 30.5878 0.128174 33.0074 0.128174C35.427 0.128174 37.1478 1.7988 37.1478 4.29082V12.9976C37.1478 15.5035 35.4577 17.1741 33.0074 17.1741C30.5572 17.1741 28.9172 15.4951 28.9172 12.9976ZM35.4577 13.0922V4.22121C35.4577 2.6731 34.4581 1.60389 33.0074 1.60389C31.5568 1.60389 30.6045 2.6731 30.6045 4.22121V13.0922C30.6045 14.6153 31.5818 15.6873 33.0074 15.6873C34.433 15.6873 35.4577 14.6153 35.4577 13.0922Z" fill="white"/>
<path d="M46.495 11.0234C46.495 11.9032 46.495 12.7135 46.4727 13.5934C46.4003 15.6872 45.1863 17.1601 43.2596 17.1601C42.8039 17.1771 42.351 17.0818 41.9408 16.8828C41.5306 16.6837 41.1755 16.3869 40.9068 16.0186C40.8344 15.9489 40.787 15.9963 40.787 16.0659V21.3562C40.7887 21.3879 40.7836 21.4197 40.7721 21.4493C40.7606 21.479 40.7429 21.5058 40.7203 21.5282C40.6977 21.5505 40.6706 21.5679 40.6409 21.579C40.6111 21.5902 40.5793 21.5949 40.5476 21.5929H39.3364C39.3046 21.5949 39.2729 21.5902 39.2431 21.579C39.2133 21.5679 39.1862 21.5505 39.1636 21.5282C39.141 21.5058 39.1234 21.479 39.1119 21.4493C39.1004 21.4197 39.0953 21.3879 39.0969 21.3562V5.1762C39.0953 5.14445 39.1004 5.11271 39.1119 5.08307C39.1234 5.05343 39.141 5.02655 39.1636 5.0042C39.1862 4.98185 39.2133 4.96454 39.2431 4.95339C39.2729 4.94225 39.3046 4.93752 39.3364 4.93952H40.5476C40.5793 4.93752 40.6111 4.94225 40.6409 4.95339C40.6706 4.96454 40.6977 4.98185 40.7203 5.0042C40.7429 5.02655 40.7606 5.05343 40.7721 5.08307C40.7836 5.11271 40.7887 5.14445 40.787 5.1762V5.86672C40.787 5.93911 40.8344 5.98645 40.9068 5.91405C41.1737 5.54212 41.5278 5.2413 41.938 5.03791C42.3481 4.83452 42.8019 4.73478 43.2596 4.7474C45.1641 4.7474 46.3781 6.27045 46.4727 8.38936C46.495 9.26366 46.495 10.1435 46.495 11.0234ZM44.8077 13.3066C44.8299 12.4713 44.8077 11.5719 44.8077 10.951V8.59819C44.8299 7.206 43.9974 6.21755 42.7612 6.21755C41.6196 6.21755 40.787 7.16981 40.787 8.59819V13.3066C40.787 14.735 41.6223 15.6872 42.7612 15.6872C43.9751 15.6872 44.8299 14.735 44.8077 13.3066Z" fill="white"/>
<path d="M55.1321 11.5943H49.7081C49.6837 11.5962 49.6607 11.6068 49.6433 11.6241C49.626 11.6415 49.6154 11.6645 49.6135 11.689V13.4264C49.6135 14.7573 50.4488 15.6873 51.6349 15.6873C52.1124 15.6931 52.5761 15.5279 52.9423 15.2215C53.3085 14.915 53.5529 14.4877 53.6313 14.0167C53.6786 13.8719 53.751 13.8023 53.893 13.8023L55.0848 13.8496C55.1173 13.8487 55.1496 13.8553 55.1792 13.8689C55.2088 13.8825 55.2349 13.9028 55.2554 13.9281C55.2758 13.9534 55.2902 13.9832 55.2973 14.0149C55.3044 14.0467 55.3041 14.0797 55.2964 14.1114C55.0346 15.9658 53.7288 17.1547 51.6349 17.1547C49.374 17.1547 47.9233 15.704 47.9233 13.5155V8.38391C47.9233 6.24272 49.374 4.74194 51.6349 4.74194C53.9404 4.74194 55.3688 6.24272 55.3688 8.38391V11.3576C55.3708 11.3892 55.3661 11.4209 55.3549 11.4506C55.3437 11.4802 55.3264 11.5071 55.304 11.5295C55.2816 11.5519 55.2547 11.5693 55.225 11.5804C55.1954 11.5916 55.1637 11.5963 55.1321 11.5943ZM49.6162 8.50085V10.0963C49.6182 10.1208 49.6287 10.1437 49.6461 10.1611C49.6635 10.1785 49.6864 10.189 49.7109 10.191H53.609C53.6335 10.189 53.6565 10.1785 53.6738 10.1611C53.6912 10.1437 53.7018 10.1208 53.7037 10.0963V8.50085C53.7037 7.14486 52.8684 6.21766 51.6349 6.21766C50.4516 6.21766 49.6162 7.14486 49.6162 8.50085Z" fill="white"/>
<path d="M64.2425 8.54816V16.7314C64.2446 16.7634 64.2398 16.7955 64.2284 16.8254C64.2171 16.8554 64.1996 16.8826 64.1769 16.9053C64.1543 16.928 64.127 16.9455 64.0971 16.9568C64.0671 16.9682 64.035 16.9729 64.0031 16.9709H62.7919C62.7599 16.9729 62.7278 16.9682 62.6978 16.9568C62.6679 16.9455 62.6406 16.928 62.618 16.9053C62.5953 16.8826 62.5778 16.8554 62.5665 16.8254C62.5551 16.7955 62.5503 16.7634 62.5524 16.7314V8.69295C62.5524 7.14484 61.8619 6.2427 60.6507 6.2427C59.3893 6.2427 58.6041 7.21723 58.6041 8.8099V16.7314C58.6062 16.7632 58.6014 16.795 58.5903 16.8247C58.5791 16.8545 58.5618 16.8816 58.5395 16.9042C58.5171 16.9268 58.4902 16.9444 58.4606 16.9559C58.431 16.9674 58.3992 16.9725 58.3675 16.9709H57.1535C57.1215 16.9729 57.0895 16.9682 57.0595 16.9568C57.0295 16.9455 57.0023 16.928 56.9796 16.9053C56.957 16.8826 56.9394 16.8554 56.9281 16.8254C56.9168 16.7955 56.912 16.7634 56.914 16.7314V5.17629C56.9124 5.14454 56.9175 5.1128 56.929 5.08316C56.9405 5.05352 56.9581 5.02664 56.9807 5.00429C57.0033 4.98194 57.0304 4.96463 57.0602 4.95348C57.09 4.94234 57.1218 4.93761 57.1535 4.93961H58.3675C58.3991 4.93757 58.4308 4.94229 58.4604 4.95346C58.4901 4.96463 58.517 4.98199 58.5394 5.00439C58.5618 5.02679 58.5791 5.05371 58.5903 5.08335C58.6015 5.11299 58.6062 5.14467 58.6041 5.17629V5.96148C58.6041 6.03388 58.6765 6.05615 58.7239 5.98654C59.005 5.59715 59.3776 5.2828 59.8087 5.07112C60.2398 4.85943 60.7164 4.75691 61.1964 4.77255C63.1482 4.76698 64.2425 6.17031 64.2425 8.54816Z" fill="white"/>
<path d="M74.3275 4.89771C74.3275 7.63476 72.8072 9.44182 70.5212 9.44182H68.071C68.0465 9.44373 68.0235 9.45432 68.0062 9.47168C67.9888 9.48903 67.9782 9.51201 67.9763 9.53648V16.7202C67.9783 16.7519 67.9736 16.7837 67.9624 16.8135C67.9513 16.8432 67.934 16.8703 67.9116 16.8929C67.8893 16.9155 67.8624 16.9332 67.8328 16.9447C67.8031 16.9562 67.7714 16.9613 67.7396 16.9596H66.5257C66.4939 16.9613 66.4622 16.9562 66.4325 16.9447C66.4029 16.9332 66.376 16.9155 66.3537 16.8929C66.3313 16.8703 66.314 16.8432 66.3028 16.8135C66.2917 16.7837 66.287 16.7519 66.289 16.7202V0.531817C66.2869 0.500206 66.2917 0.46852 66.3028 0.438878C66.314 0.409236 66.3314 0.382316 66.3538 0.359917C66.3762 0.337519 66.4031 0.320155 66.4327 0.308985C66.4624 0.297815 66.494 0.293097 66.5257 0.295143H70.4516C72.7821 0.295143 74.3275 2.14954 74.3275 4.89771ZM72.6401 4.92277C72.6401 2.99599 71.6628 1.75972 70.2372 1.75972H68.071C68.0465 1.76164 68.0235 1.77223 68.0062 1.78959C67.9888 1.80694 67.9782 1.82992 67.9763 1.85439V7.9661C67.9776 7.99106 67.9879 8.01471 68.0053 8.03264C68.0227 8.05057 68.0461 8.06155 68.071 8.06355H70.2372C71.6628 8.07469 72.6401 6.8607 72.6401 4.93391V4.92277Z" fill="white"/>
<path d="M80.7037 5.07595C80.7542 5.10783 80.793 5.15508 80.8146 5.21073C80.8361 5.26637 80.8392 5.32747 80.8235 5.38501L80.5617 6.599C80.5367 6.76606 80.4169 6.78834 80.2527 6.741C79.9367 6.60892 79.5882 6.5759 79.2531 6.64633C78.1115 6.71873 77.304 7.97726 77.304 9.59499V16.7313C77.306 16.7631 77.3013 16.7949 77.2901 16.8246C77.279 16.8544 77.2617 16.8815 77.2393 16.9041C77.217 16.9267 77.1901 16.9443 77.1605 16.9558C77.1308 16.9673 77.0991 16.9724 77.0673 16.9708H75.8533C75.8216 16.9724 75.7899 16.9673 75.7602 16.9558C75.7306 16.9443 75.7037 16.9267 75.6814 16.9041C75.659 16.8815 75.6417 16.8544 75.6305 16.8246C75.6194 16.7949 75.6147 16.7631 75.6167 16.7313V5.17618C75.6146 5.14457 75.6193 5.11289 75.6305 5.08325C75.6417 5.05361 75.6591 5.02669 75.6815 5.00429C75.7038 4.98189 75.7308 4.96453 75.7604 4.95336C75.79 4.94219 75.8217 4.93746 75.8533 4.93951H77.0673C77.0989 4.93746 77.1306 4.94219 77.1603 4.95336C77.1899 4.96453 77.2168 4.98189 77.2392 5.00429C77.2616 5.02669 77.279 5.05361 77.2902 5.08325C77.3013 5.11289 77.3061 5.14457 77.304 5.17618V6.60457C77.304 6.69924 77.3764 6.69924 77.4237 6.62685C77.8275 5.55765 78.5375 4.81978 79.6846 4.81978C80.0417 4.80716 80.3951 4.89598 80.7037 5.07595Z" fill="white"/>
<path d="M81.2745 13.5294V8.38391C81.2745 6.24272 82.7251 4.74194 85.0083 4.74194C87.2915 4.74194 88.7672 6.24272 88.7672 8.38391V13.5294C88.7672 15.7179 87.2943 17.1686 85.0083 17.1686C82.7223 17.1686 81.2745 15.7096 81.2745 13.5294ZM87.0799 13.4348V8.50085C87.0799 7.14486 86.2223 6.21766 85.0083 6.21766C83.7943 6.21766 82.9646 7.14486 82.9646 8.50085V13.4264C82.9646 14.7573 83.7999 15.6873 85.0083 15.6873C86.2167 15.6873 87.0799 14.7573 87.0799 13.4264V13.4348Z" fill="white"/>
<path d="M88.2688 21.6819V20.6824C88.2668 20.6506 88.2716 20.6188 88.2827 20.5891C88.2939 20.5593 88.3112 20.5322 88.3335 20.5096C88.3559 20.487 88.3827 20.4694 88.4124 20.4579C88.442 20.4464 88.4738 20.4413 88.5055 20.4429C89.8615 20.3956 90.4323 19.4684 90.4323 18.0177V5.17617C90.4307 5.14442 90.4358 5.11269 90.4473 5.08305C90.4588 5.0534 90.4764 5.02653 90.499 5.00418C90.5216 4.98183 90.5487 4.96452 90.5785 4.95337C90.6082 4.94222 90.64 4.93749 90.6718 4.9395H91.883C91.9147 4.93749 91.9465 4.94222 91.9763 4.95337C92.006 4.96452 92.0331 4.98183 92.0557 5.00418C92.0783 5.02653 92.096 5.0534 92.1074 5.08305C92.1189 5.11269 92.124 5.14442 92.1224 5.17617V18.0233C92.1224 20.4011 91.4792 21.9214 88.5027 21.9214C88.4711 21.9231 88.4395 21.918 88.41 21.9065C88.3804 21.8949 88.3537 21.8773 88.3316 21.8546C88.3094 21.8319 88.2924 21.8048 88.2816 21.775C88.2708 21.7453 88.2664 21.7135 88.2688 21.6819ZM90.101 1.53143C90.0932 1.37212 90.1179 1.21291 90.1735 1.06343C90.2291 0.913951 90.3145 0.777329 90.4245 0.661844C90.5345 0.54636 90.6668 0.454419 90.8134 0.391598C90.96 0.328777 91.1179 0.296387 91.2774 0.296387C91.4368 0.296387 91.5947 0.328777 91.7413 0.391598C91.8879 0.454419 92.0202 0.54636 92.1302 0.661844C92.2402 0.777329 92.3256 0.913951 92.3812 1.06343C92.4368 1.21291 92.4615 1.37212 92.4538 1.53143C92.4615 1.69073 92.4368 1.84994 92.3812 1.99942C92.3256 2.1489 92.2402 2.28552 92.1302 2.401C92.0202 2.51649 91.8879 2.60843 91.7413 2.67125C91.5947 2.73407 91.4368 2.76647 91.2774 2.76647C91.1179 2.76647 90.96 2.73407 90.8134 2.67125C90.6668 2.60843 90.5345 2.51649 90.4245 2.401C90.3145 2.28552 90.2291 2.1489 90.1735 1.99942C90.1179 1.84994 90.0932 1.69073 90.101 1.53143Z" fill="white"/>
<path d="M101.018 11.5943H95.5945C95.5701 11.5962 95.5471 11.6068 95.5297 11.6241C95.5124 11.6415 95.5018 11.6645 95.4999 11.689V13.4264C95.4999 14.7573 96.3352 15.6873 97.5213 15.6873C97.9991 15.6932 98.4632 15.5281 98.8299 15.2217C99.1965 14.9153 99.4415 14.4879 99.5205 14.0167C99.5678 13.8719 99.6402 13.8023 99.7822 13.8023L100.971 13.8496C101.004 13.8488 101.036 13.8555 101.066 13.8691C101.095 13.8827 101.122 13.9029 101.142 13.9281C101.163 13.9533 101.178 13.983 101.185 14.0147C101.193 14.0465 101.193 14.0795 101.186 14.1114C100.924 15.9658 99.6152 17.1547 97.5213 17.1547C95.2632 17.1547 93.8098 15.704 93.8098 13.5155V8.38391C93.8098 6.24272 95.2632 4.74194 97.5213 4.74194C99.8296 4.74194 101.258 6.24272 101.258 8.38391V11.3576C101.26 11.3894 101.254 11.4211 101.243 11.4507C101.232 11.4804 101.214 11.5073 101.191 11.5296C101.169 11.552 101.142 11.5693 101.112 11.5804C101.082 11.5916 101.05 11.5963 101.018 11.5943ZM95.4999 8.50085V10.0963C95.5018 10.1208 95.5124 10.1437 95.5297 10.1611C95.5471 10.1785 95.5701 10.189 95.5945 10.191H99.4927C99.5171 10.189 99.5401 10.1785 99.5575 10.1611C99.5748 10.1437 99.5854 10.1208 99.5873 10.0963V8.50085C99.5873 7.14486 98.752 6.21766 97.5185 6.21766C96.3324 6.21766 95.4999 7.14486 95.4999 8.50085Z" fill="white"/>
<path d="M102.542 13.5294V8.38391C102.542 6.265 103.992 4.74194 106.253 4.74194C108.514 4.74194 110.012 6.265 110.012 8.04978V8.28645C110.014 8.31843 110.009 8.35047 109.998 8.38045C109.987 8.41043 109.969 8.43765 109.946 8.46031C109.924 8.48297 109.897 8.50053 109.867 8.51184C109.837 8.52316 109.805 8.52795 109.773 8.52591L108.559 8.57324C108.529 8.57552 108.499 8.5717 108.471 8.56202C108.442 8.55234 108.416 8.537 108.394 8.51694C108.372 8.49688 108.354 8.47251 108.342 8.44533C108.329 8.41815 108.323 8.38872 108.322 8.35884V8.16951C108.317 7.9048 108.259 7.64375 108.152 7.40167C108.045 7.1596 107.89 6.94138 107.698 6.75983C107.505 6.57828 107.278 6.43704 107.03 6.34442C106.782 6.25179 106.518 6.20965 106.253 6.22045C105.061 6.22045 104.229 7.14764 104.229 8.50363V13.4041C104.229 14.7601 105.064 15.6901 106.253 15.6901C106.518 15.7009 106.782 15.6588 107.03 15.5661C107.278 15.4735 107.505 15.3323 107.698 15.1507C107.89 14.9692 108.045 14.751 108.152 14.5089C108.259 14.2668 108.317 14.0058 108.322 13.741V13.574C108.32 13.5424 108.325 13.5107 108.336 13.481C108.347 13.4514 108.364 13.4245 108.387 13.4021C108.409 13.3797 108.436 13.3623 108.466 13.3511C108.495 13.34 108.527 13.3353 108.559 13.3373L109.773 13.3596C109.805 13.3575 109.837 13.3623 109.867 13.3736C109.897 13.385 109.924 13.4025 109.946 13.4252C109.969 13.4478 109.987 13.4751 109.998 13.505C110.009 13.535 110.014 13.5671 110.012 13.599V13.8608C110.012 15.7152 108.536 17.1658 106.253 17.1658C103.97 17.1658 102.542 15.7096 102.542 13.5294Z" fill="white"/>
<path d="M115.327 6.19517H113.52C113.496 6.19708 113.473 6.20767 113.456 6.22503C113.438 6.24238 113.428 6.26537 113.426 6.28984V13.5682C113.426 15.0913 113.983 15.495 114.971 15.4727H115.211C115.242 15.4707 115.274 15.4754 115.303 15.4866C115.333 15.4977 115.36 15.5151 115.382 15.5375C115.405 15.5599 115.422 15.5868 115.433 15.6164C115.445 15.6461 115.449 15.6778 115.447 15.7094V16.7312C115.449 16.763 115.444 16.7948 115.433 16.8245C115.422 16.8543 115.405 16.8814 115.383 16.904C115.36 16.9266 115.333 16.9442 115.304 16.9557C115.274 16.9672 115.242 16.9723 115.211 16.9707H114.615C112.925 16.9707 111.761 16.4723 111.761 14.0694V6.28984C111.759 6.26537 111.748 6.24238 111.731 6.22503C111.713 6.20767 111.69 6.19708 111.666 6.19517H110.736C110.704 6.1968 110.673 6.1917 110.643 6.18021C110.613 6.16872 110.586 6.15109 110.564 6.12847C110.542 6.10586 110.524 6.07878 110.513 6.04901C110.502 6.01923 110.497 5.98744 110.499 5.95571V5.17609C110.497 5.14448 110.502 5.11279 110.513 5.08315C110.524 5.05351 110.542 5.02659 110.564 5.00419C110.587 4.98179 110.613 4.96443 110.643 4.95326C110.673 4.94209 110.704 4.93737 110.736 4.93941H111.666C111.69 4.9375 111.713 4.92691 111.731 4.90955C111.748 4.8922 111.759 4.86922 111.761 4.84475V2.1801C111.759 2.14837 111.763 2.11658 111.775 2.08681C111.786 2.05703 111.803 2.02995 111.825 2.00734C111.848 1.98473 111.875 1.9671 111.904 1.9556C111.934 1.94411 111.966 1.93901 111.997 1.94064H113.186C113.218 1.9386 113.25 1.94339 113.28 1.9547C113.31 1.96601 113.337 1.98359 113.36 2.00624C113.383 2.0289 113.4 2.05612 113.412 2.0861C113.423 2.11608 113.428 2.14813 113.426 2.1801V4.84475C113.428 4.86922 113.438 4.8922 113.456 4.90955C113.473 4.92691 113.496 4.9375 113.52 4.93941H115.327C115.359 4.93741 115.391 4.94214 115.421 4.95329C115.451 4.96443 115.478 4.98175 115.5 5.00409C115.523 5.02644 115.54 5.05332 115.552 5.08296C115.563 5.1126 115.569 5.14434 115.567 5.17609V5.96128C115.568 5.9928 115.563 6.02423 115.551 6.05354C115.539 6.08284 115.522 6.10937 115.499 6.13141C115.477 6.15346 115.45 6.17052 115.42 6.1815C115.391 6.19248 115.359 6.19714 115.327 6.19517Z" fill="white"/>
<g clip-path="url(#clip0_959_10314)">
<path d="M11.3057 2.20052C12.3019 1.16588 13.9813 0.476413 15.4157 0.447884C17.0012 0.421098 18.5338 1.01921 19.6821 2.113C20.5884 2.98672 21.1437 4.03078 21.4032 5.25575C21.5038 5.81499 21.5456 6.33948 21.4885 6.90629C21.4751 7.03902 21.4633 7.24547 21.4314 7.37115C21.2233 8.72635 20.5141 9.83269 19.5298 10.7536C19.6023 10.8618 19.7326 10.9563 19.824 11.0535C20.0303 11.2707 20.2236 11.5002 20.4023 11.7407C21.3425 13.0136 21.6866 14.6509 21.4318 16.2049C21.4081 16.3582 21.3731 16.5095 21.3272 16.6576C21.2955 16.8214 21.1897 17.1209 21.1278 17.2799C20.6914 18.3795 19.9368 19.3237 18.9606 19.9918C18.8161 20.0896 18.6231 20.2228 18.4745 20.3078C17.2466 21.0073 15.8074 21.2393 14.4218 20.9613C13.3943 20.7536 12.4357 20.2901 11.6348 19.6137C11.2865 19.3159 11.0598 19.0648 10.7747 18.7161C10.6538 18.8518 10.2308 19.3509 10.1012 19.424C10.0756 19.4504 10.0495 19.4766 10.0231 19.5022C9.83496 19.6839 9.58585 19.8645 9.37141 20.0109C8.33285 20.7315 7.09265 21.1045 5.82889 21.0763C4.2623 21.0294 2.77572 20.3736 1.68492 19.2481C-0.415262 17.05 -0.571805 13.7661 1.3702 11.3956C1.54789 11.1787 1.79585 10.9638 2.00081 10.7688C1.96658 10.7237 1.89528 10.6638 1.85277 10.6227C1.65242 10.4295 1.46412 10.2238 1.28832 10.0074C0.504923 9.02997 0.0578186 7.82586 0.0134286 6.574C-0.0240869 5.55642 0.22638 4.49829 0.707685 3.60613C0.791702 3.45037 0.952825 3.14263 1.07055 3.01572C1.10523 2.94427 1.31698 2.68111 1.3742 2.61147C1.88967 1.98405 2.72801 1.29278 3.49618 1.00097C3.67246 0.904158 3.95102 0.811376 4.14401 0.748511C5.26678 0.375284 6.47679 0.353973 7.61204 0.687401C8.56311 0.967416 9.43283 1.47221 10.1477 2.15913C10.2827 2.29254 10.4135 2.42999 10.5401 2.57134C10.5995 2.63873 10.7084 2.77721 10.7708 2.82784C10.9655 2.5617 11.0832 2.4399 11.3057 2.20052ZM14.8183 18.2544C14.8824 18.2565 15.1392 18.31 15.2377 18.3197C16.0318 18.3982 16.8822 18.1287 17.5016 17.6375C18.2226 17.0659 18.601 16.3801 18.7055 15.4746C18.7056 15.3499 18.7264 15.2201 18.7248 15.0917C18.721 14.7735 18.6547 14.4576 18.5627 14.1546C18.5413 14.0945 18.5179 14.0351 18.4929 13.9764C18.1463 13.1484 17.5848 12.6192 16.7643 12.2826C16.6001 12.2314 16.4229 12.1847 16.2517 12.1641C16.1306 12.1496 16.0138 12.1521 15.8923 12.1294C15.8198 12.1246 15.7472 12.1192 15.6748 12.1132C14.0232 11.9699 12.5135 11.0542 11.4083 9.84738C11.2633 9.68908 11.1288 9.51781 10.9905 9.35318C10.7752 9.60879 10.5579 9.86413 10.307 10.0858C10.1326 10.2564 9.94632 10.4145 9.74956 10.5588C9.63032 10.6457 9.40497 10.7957 9.30541 10.8873L9.31771 10.8994C9.45967 11.0379 9.68754 11.1932 9.85208 11.3442C10.4424 11.8813 10.9418 12.5104 11.3306 13.2075C11.6521 13.7702 11.917 14.3635 12.1217 14.9785C12.2433 15.3397 12.3308 15.7088 12.4551 16.0724C12.7383 16.9011 13.3236 17.594 14.1021 17.9974C14.328 18.1144 14.5755 18.1841 14.8183 18.2544ZM2.82423 6.09083C2.82027 6.19486 2.81825 6.30211 2.80583 6.40521C2.84885 7.84363 3.69041 8.93146 5.04869 9.3764C5.24093 9.40664 5.56257 9.33625 5.76418 9.33092C5.82518 9.3115 5.97063 9.28806 6.03908 9.27445C6.19275 9.2444 6.34471 9.20621 6.49433 9.16004C7.44408 8.85982 8.25286 8.27033 8.89352 7.51493C8.94208 7.44188 9.00047 7.37953 9.04898 7.30582C9.23846 7.01799 9.34577 6.78203 9.43776 6.45352C9.33202 6.05578 9.1774 5.61819 9.01995 5.23703C8.96273 5.10934 8.87631 4.98616 8.80808 4.86653C7.86314 3.20984 5.78283 2.68509 4.19228 3.75878C4.12115 3.80679 4.0554 3.86405 3.98489 3.91493C3.27487 4.53195 2.93094 5.1465 2.82423 6.09083ZM18.2682 7.98739C18.9947 6.75176 18.8401 5.28626 17.8743 4.21821C17.5066 3.81167 16.8998 3.44466 16.3656 3.30493C15.5258 3.08605 14.6334 3.21233 13.8873 3.65559C13.1592 4.08788 12.6634 4.7863 12.4557 5.60267C12.429 5.77036 12.378 6.06314 12.3861 6.22234C12.4256 6.37857 12.5335 6.58144 12.6111 6.72665C13.0852 7.6141 13.7471 8.38116 14.6128 8.9026C14.9845 9.12646 15.9013 9.46905 16.311 9.38584C16.9755 9.32703 17.7746 8.69976 18.1454 8.16283C18.1839 8.10693 18.2218 8.03448 18.2682 7.98739ZM9.20114 15.2286C9.16773 15.0541 9.03414 14.8231 8.94358 14.6649C8.48285 13.8598 7.99871 13.3434 7.26491 12.7961C7.19819 12.7717 6.9502 12.6047 6.86822 12.561C6.44124 12.3329 6.05595 12.224 5.58107 12.1539C5.51125 12.1531 5.30669 12.1471 5.24741 12.1577C4.65286 12.265 4.15919 12.5335 3.72762 12.9457C3.17591 13.4727 2.80157 14.3572 2.79338 15.1167C2.79253 15.3744 2.82067 15.6314 2.87727 15.8828C2.88936 15.9357 2.94961 16.1273 2.9524 16.1607C2.99706 16.2508 3.04187 16.379 3.08729 16.4779C3.23534 16.8085 3.44049 17.1105 3.69336 17.37C4.26505 17.9569 5.14915 18.3326 5.97502 18.3285C6.85954 18.3348 7.69092 17.9415 8.30812 17.3137C8.81958 16.7934 9.20459 15.9626 9.20114 15.2286Z" fill="white"/>
<path d="M11.2993 2.19588C12.2955 1.16124 13.9749 0.471775 15.4093 0.443245C16.9948 0.416459 18.5274 1.01457 19.6757 2.10836C20.582 2.98208 21.1373 4.02614 21.3968 5.25112C21.4974 5.81035 21.5392 6.33484 21.4821 6.90165C21.4687 7.03438 21.4569 7.24084 21.425 7.36652C21.348 7.44654 21.3865 7.57684 21.3317 7.69731C21.304 7.68763 21.301 7.68496 21.2757 7.66922C21.2498 7.6743 21.192 7.70026 21.1786 7.701C20.8603 7.71835 20.5057 7.71313 20.1899 7.74626C19.6873 7.79901 19.2606 7.7701 18.7631 7.7244C18.5368 7.7036 18.5183 8.01716 18.3237 7.95498C18.2989 7.96996 18.3067 7.96254 18.2923 7.98811C18.2838 7.9869 18.269 7.98555 18.2618 7.98275C18.9883 6.74712 18.8337 5.28162 17.8679 4.21357C17.5002 3.80703 16.8934 3.44003 16.3592 3.30029C15.5194 3.08141 14.627 3.20769 13.8809 3.65095C13.1528 4.08324 12.657 4.78166 12.4493 5.59804C12.4226 5.76573 12.3716 6.0585 12.3797 6.2177C12.2827 6.0652 12.1059 5.63769 12.0331 5.45577C11.8818 5.0767 11.7429 4.69364 11.5862 4.31502C11.5601 4.25208 11.3674 3.8061 11.364 3.78836C11.3142 3.59663 10.9016 3.00938 10.7644 2.82321C10.9591 2.55706 11.0768 2.43526 11.2993 2.19588Z" fill="white"/>
<path d="M11.3056 2.20052C12.3018 1.16588 13.9812 0.476413 15.4156 0.447884C17.0011 0.421098 18.5337 1.01921 19.682 2.113C20.5883 2.98672 21.1435 4.03078 21.4031 5.25576L21.3865 5.28523C21.3487 5.233 21.3905 5.21576 21.3479 5.16103C21.3093 5.17014 21.3278 5.163 21.2953 5.19891C21.2514 5.11052 21.2233 4.9944 21.1805 4.90106C21.0658 4.65163 20.9528 4.39626 20.8117 4.16069C20.7675 4.08681 20.7146 4.01724 20.6774 3.93971C20.6259 3.72906 20.1676 3.17516 19.9995 3.00527C19.0495 2.04456 17.6572 1.52706 16.3096 1.68003C15.2735 1.79764 14.1366 2.36516 13.481 3.18905C13.2508 3.40198 12.714 4.27963 12.6406 4.56704C12.6781 4.59696 12.6694 4.60045 12.6883 4.65507C12.6101 4.80125 12.4109 5.45425 12.4556 5.60268C12.4289 5.77037 12.3779 6.06314 12.386 6.22234C12.289 6.06984 12.1122 5.64233 12.0394 5.46041C11.8881 5.08134 11.7492 4.69828 11.5924 4.31966C11.5664 4.25672 11.3737 3.81073 11.3703 3.793C11.3205 3.60127 10.9079 3.01402 10.7707 2.82784C10.9654 2.5617 11.0831 2.4399 11.3056 2.20052Z" fill="white"/>
<path d="M10.7707 2.82777C10.9654 2.56162 11.0831 2.43982 11.3056 2.20044L11.3117 2.20868C11.4604 2.40498 11.6396 2.58383 11.7826 2.79235C12.0649 3.204 12.307 3.65502 12.474 4.12648C12.4956 4.18738 12.6125 4.55958 12.6406 4.56696C12.6781 4.59689 12.6694 4.60037 12.6883 4.65499C12.6101 4.80117 12.4109 5.45417 12.4556 5.6026C12.4289 5.77029 12.3779 6.06306 12.386 6.22227C12.289 6.06976 12.1122 5.64225 12.0394 5.46033C11.8881 5.08126 11.7492 4.6982 11.5924 4.31958C11.5664 4.25664 11.3737 3.81066 11.3703 3.79292C11.3205 3.60119 10.9079 3.01395 10.7707 2.82777Z" fill="white"/>
<path d="M13.481 3.18887C14.1367 2.36498 15.2736 1.79746 16.3097 1.67984C17.6572 1.52687 19.0495 2.04438 19.9996 3.00509C20.1676 3.17497 20.6259 3.72888 20.6775 3.93952C20.6212 3.88097 20.5065 3.69675 20.4462 3.62096C20.3319 3.47698 20.2215 3.3522 20.0921 3.22216C19.2269 2.34097 18.0445 1.84362 16.8097 1.84153C15.8147 1.84365 14.8313 2.1615 14.0639 2.79858C13.8751 2.95527 13.7303 3.10203 13.5575 3.27491L13.5649 3.23498C13.6057 3.19021 13.6091 3.18338 13.6292 3.12608L13.6163 3.1112C13.5467 3.12477 13.5429 3.14509 13.481 3.18887Z" fill="white"/>
<path d="M13.481 3.189C13.5429 3.14522 13.5467 3.12489 13.6163 3.11133L13.6292 3.12621C13.6091 3.18351 13.6058 3.19034 13.5649 3.23511L13.5575 3.27504C13.3253 3.5577 13.1624 3.7576 12.981 4.08096C12.8863 4.24987 12.7768 4.51024 12.6884 4.65501C12.6695 4.60039 12.6782 4.59691 12.6406 4.56698C12.714 4.27957 13.2509 3.40193 13.481 3.189Z" fill="white"/>
<path d="M10.9302 6.29968C10.7671 5.93098 10.6355 5.51486 10.4818 5.13403C10.4676 5.22844 10.4973 5.27974 10.5041 5.37177C10.5384 5.84738 10.5632 6.31624 10.5528 6.79363C10.5501 6.91562 10.5864 7.05434 10.5847 7.17796C10.5836 7.59012 10.6023 7.99864 10.5856 8.41057C10.583 8.47328 10.6003 8.64817 10.5915 8.68019C10.5593 8.68844 10.5419 8.67097 10.5027 8.65322C10.5063 8.70311 10.9325 9.31442 10.9904 9.35284C11.1287 9.51747 11.2632 9.68875 11.4082 9.84705C12.5134 11.0539 14.0231 11.9696 15.6747 12.1128C15.7471 12.1189 15.8197 12.1243 15.8922 12.129C16.0831 12.0932 16.2494 12.1255 16.4409 12.1329C17.2252 12.1633 17.9846 12.4065 18.6388 12.8512C19.0793 13.1514 19.4598 13.526 19.765 13.9552L19.7945 13.9396C19.9347 13.851 20.2453 14.0164 20.4314 13.9901L20.4581 13.9552C20.4722 14.013 20.5458 14.1877 20.58 14.2397L20.5917 14.2252C20.5612 14.0797 20.3204 13.5078 20.2472 13.3741C20.1482 13.1936 19.7791 12.6106 19.631 12.4929C19.6244 12.4905 19.2345 12.1022 19.1791 12.0506C18.5389 11.4541 17.6419 11.0036 16.7856 10.851C16.1255 10.7334 15.5648 10.7044 14.938 10.474C14.8527 10.4574 14.6578 10.3791 14.5707 10.3419C14.0761 10.1307 13.6249 9.85304 13.2171 9.50167C13.051 9.35846 12.8817 9.22723 12.7248 9.06861C11.9296 8.26514 11.3833 7.32487 10.9302 6.29968Z" fill="white"/>
<path d="M18.2682 7.98732C18.2753 7.99012 18.2902 7.99147 18.2986 7.99269C18.313 7.96712 18.3053 7.97453 18.3301 7.95956C18.5246 8.02173 18.5432 7.70818 18.7694 7.72898C19.267 7.77468 19.6937 7.80359 20.1963 7.75084C20.512 7.71771 20.8667 7.72292 21.185 7.70558C21.1984 7.70484 21.2562 7.67888 21.2821 7.6738C21.3074 7.68953 21.3103 7.69221 21.3381 7.70188C21.3928 7.58142 21.3544 7.45112 21.4314 7.37109C21.2233 8.72629 20.5141 9.83263 19.5298 10.7535C19.5283 10.7506 19.5267 10.7475 19.5251 10.7446C18.7568 10.0764 17.8198 9.6308 16.8145 9.47015C16.5848 9.43344 16.4779 9.40073 16.3109 9.38578C16.9754 9.32697 17.7746 8.6997 18.1453 8.16277C18.1839 8.10687 18.2218 8.03442 18.2682 7.98732Z" fill="white"/>
<path d="M14.9381 10.4744L14.9558 10.4632C15.2839 10.576 15.6218 10.6585 15.9649 10.7098L15.9751 10.7039C15.9558 10.6933 15.7902 10.4465 15.7758 10.4082C15.7044 10.218 15.3874 9.60766 15.7854 9.59486C15.8068 9.59416 15.7968 9.59648 15.8114 9.58954C15.6216 9.52326 15.3884 9.50458 15.2114 9.41148C15.1771 9.39348 15.1845 9.3973 15.145 9.3884L15.1507 9.37866C15.4799 9.49102 15.8163 9.58042 16.1579 9.64619C16.4706 9.70757 16.774 9.74816 17.0827 9.82417C18.5118 10.176 19.7105 11.0914 20.3383 12.433C20.3634 12.4867 20.4385 12.6203 20.4299 12.673C20.4029 12.648 20.3448 12.4881 20.3216 12.4393C20.2577 12.3045 19.9314 11.7107 19.8424 11.652C19.8047 11.6559 19.7957 11.6627 19.7746 11.6983C19.7145 11.7997 19.55 11.836 19.4502 11.8897C19.3658 11.9401 19.3334 11.9965 19.2228 12.0555C19.2408 12.1106 19.6374 12.4431 19.6311 12.4933C19.6245 12.4908 19.2346 12.1025 19.1792 12.051C18.539 11.4545 17.642 11.004 16.7856 10.8514C16.1256 10.7338 15.5649 10.7048 14.9381 10.4744Z" fill="white"/>
<path d="M8.0022 11.568C8.05969 11.5273 8.37063 11.3999 8.46298 11.3527C8.75295 11.2047 9.02154 11.0437 9.30534 10.887L9.31764 10.8991C9.4596 11.0376 9.68746 11.1929 9.852 11.3439C10.4423 11.881 10.9417 12.5101 11.3305 13.2071C11.652 13.7699 11.9169 14.3632 12.1216 14.9782C12.2432 15.3393 12.3308 15.7085 12.455 16.0721C12.7382 16.9007 13.3235 17.5937 14.1021 17.9971C14.3279 18.1141 14.5754 18.1838 14.8182 18.254C14.8823 18.2561 15.1391 18.3096 15.2376 18.3193C16.0317 18.3979 16.8821 18.1283 17.5015 17.6372C18.2225 17.0656 18.601 16.3797 18.7054 15.4743C18.7056 15.3495 18.7263 15.2198 18.7247 15.0914C18.7209 14.7732 18.6546 14.4573 18.5627 14.1542C18.5412 14.0942 18.5179 14.0348 18.4928 13.9761C18.1463 13.1481 17.5848 12.6189 16.7642 12.2823C16.6 12.2311 16.4228 12.1844 16.2516 12.1638C16.1305 12.1493 16.0137 12.1518 15.8923 12.129C16.0832 12.0932 16.2494 12.1255 16.4409 12.1329C17.2252 12.1633 17.9846 12.4065 18.6388 12.8512C19.0793 13.1514 19.4598 13.526 19.765 13.9552C20.0022 14.2888 20.1939 14.6555 20.3329 15.0458C20.3909 15.2074 20.4618 15.4268 20.4929 15.5936C20.4954 15.6067 20.4977 15.6199 20.4999 15.6331C20.4469 15.2021 20.2312 14.6934 20.0207 14.3136C19.9527 14.1907 19.8519 14.048 19.7946 13.9396C19.9348 13.851 20.2453 14.0164 20.4314 13.9901L20.4581 13.9552C20.4722 14.013 20.5459 14.1877 20.58 14.2397C20.6466 14.4908 20.6307 14.4323 20.8346 14.4455C20.935 14.4522 21.1579 14.612 21.2879 14.5841C21.3753 14.5796 21.3979 14.5879 21.4609 14.6405C21.5261 15.1691 21.4713 15.7651 21.3919 16.2886C21.3769 16.3873 21.2922 16.6061 21.3271 16.6573C21.2954 16.8211 21.1896 17.1206 21.1277 17.2796C21.0917 17.3703 21.0535 17.46 21.0132 17.5486C20.5652 18.5331 19.8561 19.3785 18.9605 19.9915C18.816 20.0893 18.6231 20.2225 18.4744 20.3074C17.2466 21.0069 15.8073 21.2389 14.4217 20.961C13.3942 20.7533 12.4356 20.2898 11.6347 19.6134C11.2864 19.3155 11.0597 19.0645 10.7746 18.7157C10.7089 18.6188 10.6378 18.522 10.5696 18.4261C10.2064 17.9149 9.96523 17.3898 9.75326 16.8012C9.74992 16.7661 9.66898 16.5216 9.65492 16.4782C9.55094 16.1566 9.37864 15.5161 9.20106 15.2282C9.16765 15.0538 9.03406 14.8228 8.9435 14.6645C8.48277 13.8595 7.99863 13.343 7.26483 12.7958C7.19811 12.7713 6.95012 12.6044 6.86814 12.5607C6.44116 12.3326 6.05587 12.2237 5.58099 12.1536C5.66041 12.1272 6.0924 12.0809 6.22605 12.0544C6.92147 11.9455 7.3441 11.8161 8.0022 11.568Z" fill="white"/>
<path d="M14.8182 18.2541C14.8823 18.2562 15.1391 18.3098 15.2376 18.3195C16.0317 18.398 16.8821 18.1284 17.5015 17.6373C18.2225 17.0657 18.601 16.3798 18.7054 15.4744C18.7086 15.6227 18.7114 15.7285 18.6997 15.8764C18.6951 15.9334 18.6557 16.2279 18.6585 16.26C18.6014 16.5224 18.5537 16.7701 18.4668 17.0254C18.1221 18.0175 17.4509 18.8633 16.5633 19.4245C16.1072 19.7179 15.7058 19.8827 15.1773 20.0047C15.0651 20.0306 14.9377 20.0494 14.8338 20.0738C14.8035 20.0717 14.8088 20.0775 14.7825 20.0608L14.776 20.0609C15.6255 19.9611 16.3864 19.5761 17.0483 19.0455L17.0209 19.0413C16.9276 18.9617 17.0154 18.8304 16.9449 18.7293C16.8796 18.6357 16.9849 18.3129 17.0894 18.2767C17.1282 18.2948 17.1539 18.3131 17.1946 18.3059C17.25 18.2268 17.1703 18.1283 17.1963 18.0768C17.261 18.0619 17.3007 18.0663 17.3287 18.0057C17.319 17.9825 17.3083 17.9603 17.2963 17.9382C17.3122 17.9051 17.3099 17.9181 17.3123 17.8832C17.3052 17.8837 16.9994 18.0002 16.9951 18.0041L16.9999 18.0281C16.8526 18.0126 16.8228 18.1143 16.6891 18.1439C16.5844 18.1671 16.3831 18.2206 16.2871 18.2603C16.1656 18.3104 16.1507 18.2778 16.068 18.3003C15.7626 18.3833 15.4142 18.3732 15.1029 18.3287C15.0177 18.3164 14.9182 18.2901 14.8416 18.2805L14.8234 18.2784L14.8182 18.2541Z" fill="white"/>
<path d="M16.7642 12.2825C16.9059 12.2709 17.0413 12.3906 17.1629 12.4253C17.3092 12.4467 17.3255 12.3954 17.4112 12.5371C17.4891 12.6552 17.6271 12.7482 17.7343 12.8418C18.0727 13.1379 18.3191 13.5093 18.4973 13.9177C18.5433 14.0228 18.5687 14.0274 18.5627 14.1545C18.5412 14.0945 18.5178 14.0351 18.4928 13.9764C18.1463 13.1484 17.5847 12.6191 16.7642 12.2825Z" fill="white"/>
<path d="M9.79175 11.686L9.79448 11.6883C9.79347 11.6957 9.7888 11.7209 9.79463 11.7258C10.631 12.4379 11.2417 13.4481 11.6537 14.4774C11.6889 14.5653 12.0721 15.8459 12.0546 15.8885C12.0251 15.83 11.7972 14.9216 11.7651 14.8375C11.6615 14.5658 11.5191 14.1436 11.3747 13.9002L11.3609 13.923C11.2961 13.9004 11.256 13.9491 11.1972 13.9637C11.1616 13.9726 11.1222 13.9368 11.0719 13.9546L11.059 13.9857C10.9294 13.9904 10.7201 13.9088 10.595 13.8974C10.4709 13.8861 10.4286 13.7909 10.3483 13.7059L10.3482 13.7059C10.3327 13.704 10.3173 13.7021 10.3018 13.7001C10.2195 13.6167 10.0912 13.5314 10.0091 13.4558C9.96104 13.3948 9.7466 13.1832 9.67795 13.177C9.67315 13.1908 9.67289 13.1836 9.68371 13.198C10.0478 13.6782 10.3552 14.202 10.5991 14.7582C10.6233 14.8129 11.1387 15.9699 11.133 16.0176C11.0912 15.9495 10.6 14.7958 10.5627 14.7152C10.1986 13.9292 9.73305 13.1937 9.12247 12.5895C9.02429 12.4924 8.92315 12.3836 8.81061 12.3004C9.09988 12.1616 9.55486 11.9173 9.79175 11.686Z" fill="white"/>
<path d="M12.0546 15.8885C12.0251 15.83 11.7972 14.9216 11.7651 14.8375C11.6615 14.5658 11.5191 14.1436 11.3747 13.9002L11.3609 13.923C11.2961 13.9004 11.256 13.9491 11.1972 13.9637C11.1616 13.9726 11.1222 13.9368 11.0719 13.9546L11.059 13.9857C10.9294 13.9904 10.7201 13.9088 10.595 13.8974C10.4709 13.8861 10.4286 13.7909 10.3483 13.7059L10.3482 13.7059C10.3327 13.704 10.3173 13.7021 10.3018 13.7001C10.2195 13.6167 10.0912 13.5314 10.0091 13.4558C9.96104 13.3948 9.7466 13.1832 9.67795 13.177C9.67315 13.1908 9.67289 13.1836 9.68371 13.198C10.0478 13.6782 10.3552 14.202 10.5991 14.7582C10.6233 14.8129 11.1387 15.9699 11.133 16.0176L12.0546 15.8885Z" fill="white"/>
<path d="M3.49607 1.00081C3.67236 0.904004 3.95091 0.811222 4.1439 0.748356C5.26668 0.375129 6.47669 0.353818 7.61194 0.687246C8.56301 0.967262 9.43272 1.47205 10.1476 2.15898C10.2826 2.29238 10.4134 2.42984 10.54 2.57118C10.5994 2.63858 10.7083 2.77705 10.7707 2.82769C10.9079 3.01387 11.3205 3.60111 11.3703 3.79284L11.3375 3.79232C11.2751 3.72574 11.2334 3.64611 11.179 3.56893C11.0835 3.4307 10.9812 3.29719 10.8728 3.16888C10.7994 3.08355 10.4671 2.76636 10.4458 2.73298C10.3538 2.67528 10.2341 2.56835 10.1546 2.49257L10.1397 2.49778C10.253 2.67552 10.1996 2.63709 10.234 2.83458C10.2867 2.95422 10.3124 3.04873 10.3369 3.17603C10.3738 3.33658 10.315 3.46959 10.3 3.61736C10.2753 3.85946 10.3051 4.11571 10.4033 4.3395C10.4186 4.37447 10.4231 4.70119 10.3841 4.72699L10.374 4.71967C10.3597 4.70944 10.3656 4.71334 10.3508 4.70457C10.3636 4.76067 10.3726 4.79692 10.3808 4.85343C10.3923 4.93258 10.4622 5.05646 10.4818 5.13421C10.4676 5.22862 10.4973 5.27992 10.5041 5.37195C10.5384 5.84756 10.5632 6.31642 10.5528 6.79381C10.5501 6.91581 10.5864 7.05452 10.5847 7.17814C10.5836 7.5903 10.6023 7.99882 10.5856 8.41075C10.583 8.47346 10.6003 8.64835 10.5915 8.68037C10.5593 8.68862 10.5419 8.67115 10.5027 8.6534C10.5063 8.70329 10.9325 9.3146 10.9904 9.35302C10.7751 9.60863 10.5578 9.86397 10.3069 10.0856C10.2006 9.92069 9.99791 9.69688 9.87407 9.51036C9.69304 9.23772 9.55946 8.98767 9.39922 8.70322C9.26749 8.4268 9.14618 8.14553 9.03555 7.86C8.99589 7.75715 8.94079 7.62942 8.91768 7.52393L8.89341 7.51478C8.94198 7.44172 9.00036 7.37937 9.04888 7.30567C9.23836 7.01783 9.34566 6.78187 9.43766 6.45337C9.33191 6.05563 9.1773 5.61804 9.01984 5.23688C8.96263 5.10918 8.8762 4.98601 8.80797 4.86638C7.86304 3.20968 5.78273 2.68493 4.19217 3.75863C4.12105 3.80664 4.0553 3.86389 3.98478 3.91478C3.27476 4.53179 2.93084 5.14634 2.82412 6.09067C2.82017 6.1947 2.81815 6.30196 2.80572 6.40505C2.84875 7.84348 3.69031 8.9313 5.04858 9.37625L5.03427 9.38021C4.82856 9.43583 4.56973 9.47691 4.35371 9.52883C3.87051 9.64567 3.40518 9.8269 2.97024 10.0677C2.90085 10.1056 2.68123 10.2247 2.63574 10.2756C2.50687 10.3693 2.11075 10.6584 2.03089 10.7773L2.00071 10.7687C1.96647 10.7235 1.89517 10.6636 1.85266 10.6226C1.65232 10.4293 1.46402 10.2236 1.28821 10.0073C0.504819 9.02982 0.0577149 7.8257 0.0133248 6.57385C-0.0241906 5.55626 0.226277 4.49813 0.707582 3.60598C0.791599 3.45022 0.952721 3.14247 1.07045 3.01556C1.10513 2.94412 1.31688 2.68095 1.37409 2.61131C1.88956 1.9839 2.7279 1.29262 3.49607 1.00081Z" fill="white"/>
<path d="M4.57595 2.43153C5.57751 1.66985 6.81031 1.37417 8.051 1.583C8.78836 1.70711 9.63785 2.04168 10.2187 2.52367C10.2787 2.57346 10.4052 2.67261 10.4458 2.73291C10.3538 2.67522 10.2341 2.56828 10.1547 2.4925L10.1398 2.49772C10.2531 2.67545 10.1996 2.63703 10.2341 2.83451C10.2867 2.95415 10.3125 3.04867 10.3369 3.17597C10.3739 3.33651 10.3151 3.46952 10.3 3.61729C10.2753 3.8594 10.3051 4.11565 10.4033 4.33944C10.4186 4.3744 10.4231 4.70113 10.3841 4.72693L10.374 4.7196C10.3597 4.70937 10.3656 4.71328 10.3508 4.7045C10.3637 4.7606 10.3726 4.79685 10.3808 4.85336C10.3924 4.93252 10.4622 5.05639 10.4819 5.13415C10.4676 5.22855 10.4973 5.27985 10.5041 5.37189C10.5385 5.8475 10.5633 6.31635 10.5528 6.79374C10.5501 6.91574 10.5865 7.05446 10.5847 7.17808C10.5836 7.59023 10.6023 7.99875 10.5856 8.41069C10.583 8.47339 10.6003 8.64829 10.5915 8.68031C10.5593 8.68855 10.5419 8.67109 10.5027 8.65333C10.5063 8.70322 10.9325 9.31453 10.9905 9.35296C10.7751 9.60857 10.5579 9.86391 10.307 10.0856C10.2007 9.92062 9.99793 9.69682 9.87409 9.5103C9.69306 9.23766 9.55948 8.98761 9.39925 8.70315C9.26751 8.42673 9.1462 8.14546 9.03557 7.85994C8.99592 7.75709 8.94081 7.62936 8.91771 7.52387L8.89344 7.51471C8.942 7.44166 9.00039 7.37931 9.0489 7.3056C9.23838 7.01777 9.34569 6.78181 9.43768 6.4533C9.33194 6.05556 9.17732 5.61797 9.01987 5.23681C8.96265 5.10912 8.87623 4.98594 8.808 4.86631C7.86306 3.20962 5.78275 2.68487 4.1922 3.75856C4.12107 3.80657 4.05532 3.86383 3.98481 3.91471C3.96276 3.89932 3.97511 3.90229 3.94748 3.90704C3.92263 3.9306 3.9092 3.94759 3.87674 3.95872L3.85965 3.94578C3.86626 3.9161 3.86809 3.91195 3.88214 3.88604L3.89414 3.86423L3.87182 3.8496C3.87359 3.80273 3.92533 3.70301 3.94773 3.64656C3.94604 3.63162 3.93794 3.55689 3.92901 3.54989C3.69838 3.36892 3.71606 3.43192 3.55477 3.56761L3.54297 3.56261C3.55969 3.47033 3.86232 3.12581 3.93691 3.04348C3.99595 2.97832 4.13009 2.88025 4.14889 2.79848C4.20601 2.71014 4.47814 2.50637 4.57595 2.43153Z" fill="white"/>
<path fill-rule="evenodd" clip-rule="evenodd" d="M2.01091 2.40506C1.86592 2.55493 1.35262 3.13475 1.31671 3.30179C1.31146 3.31159 1.30598 3.32179 1.30031 3.33236C1.1038 3.69844 0.665096 4.51571 0.730754 4.89092C0.799601 4.989 0.909869 5.10455 0.999384 5.19836C1.0103 5.20979 1.0209 5.22091 1.03109 5.23162C1.09946 5.3036 1.20251 5.35815 1.29906 5.40926C1.33041 5.42586 1.36108 5.4421 1.38966 5.45845L1.40172 5.45664C1.40478 5.43166 1.40778 5.40641 1.4108 5.38103C1.42239 5.28346 1.43424 5.1838 1.4505 5.08882C1.48567 5.03714 1.51033 4.89984 1.52397 4.82383C1.52488 4.81875 1.52575 4.81395 1.52656 4.80947C1.59752 4.4181 1.73381 4.0786 1.87995 3.71457C1.88418 3.70403 1.88842 3.69347 1.89267 3.68288C1.92069 3.71663 2.00846 3.80557 2.08565 3.88379C2.15407 3.95313 2.21418 4.01405 2.21702 4.02065C2.33675 4.29895 2.48528 4.43082 2.67416 4.59849C2.72183 4.64081 2.77206 4.6854 2.82505 4.73521C2.84555 4.75447 2.81705 4.8772 2.79331 4.97946C2.77929 5.03982 2.76693 5.09306 2.76728 5.11365C2.73775 5.29583 2.64792 6.23283 2.7555 6.34768L2.77363 6.3475L2.78433 6.40212L2.79703 6.41021L2.80574 6.40505C2.81615 6.31867 2.81926 6.22937 2.82232 6.14149C2.82291 6.12449 2.8235 6.10754 2.82414 6.09068C2.93086 5.14634 3.27478 4.53179 3.9848 3.91478C3.97396 3.9072 3.97143 3.90408 3.96838 3.90342C3.96523 3.90274 3.96151 3.90469 3.94747 3.90711C3.94355 3.91083 3.9399 3.91439 3.93643 3.91778C3.91791 3.93589 3.90407 3.94941 3.87674 3.95879L3.85965 3.94585C3.86625 3.91617 3.86808 3.91202 3.88214 3.8861L3.89413 3.8643L3.87181 3.84967C3.87309 3.81572 3.9006 3.75404 3.92418 3.70115C3.93315 3.68103 3.94155 3.66218 3.94773 3.64662C3.94767 3.64607 3.9476 3.64544 3.94752 3.64474C3.94544 3.62627 3.9376 3.5567 3.92901 3.54996C3.73684 3.39917 3.71707 3.41776 3.62251 3.50665C3.60358 3.52444 3.58166 3.54505 3.55476 3.56767L3.54296 3.56268C3.55968 3.4704 3.86231 3.12587 3.9369 3.04355C3.9539 3.02479 3.97713 3.0033 4.00204 2.98025C4.06364 2.92326 4.1355 2.85677 4.14888 2.79855C4.20169 2.71688 4.43827 2.53655 4.55097 2.45065C4.56018 2.44363 4.56856 2.43724 4.57594 2.43159C5.5775 1.66992 6.81031 1.37424 8.05099 1.58306C8.78835 1.70717 9.63785 2.04174 10.2187 2.52374C10.227 2.53064 10.2366 2.53848 10.2471 2.54704C10.3121 2.60026 10.4108 2.68104 10.4458 2.73298C10.4564 2.74958 10.5439 2.83639 10.6383 2.92996C10.7336 3.02452 10.836 3.12599 10.8729 3.16888C10.9813 3.29719 11.0835 3.4307 11.179 3.56893C11.1969 3.59431 11.2134 3.61996 11.2298 3.64532C11.2631 3.69708 11.2956 3.74764 11.3375 3.79233L11.3703 3.79284C11.3206 3.60111 10.908 3.01387 10.7707 2.82769C10.7254 2.79088 10.6555 2.70765 10.5978 2.63905C10.5762 2.61329 10.5563 2.58958 10.5401 2.57118C10.4135 2.42984 10.2826 2.29238 10.1477 2.15898C9.43274 1.47205 8.56303 0.967262 7.61196 0.687246C6.47671 0.353818 5.2667 0.375129 4.14392 0.748356L3.46526 1.40081C3.1901 1.47454 2.38104 2.10103 2.01091 2.40506Z" fill="white"/>
<path fill-rule="evenodd" clip-rule="evenodd" d="M2.01087 2.40532C1.86588 2.55518 1.35258 3.135 1.31668 3.30204C1.31142 3.31184 1.30595 3.32204 1.30028 3.33261C0.829455 4.20971 0.552975 5.62199 0.958483 7.72324L1.25339 7.66795L1.49301 7.63108H1.67733H1.86165L2.08283 7.55735C1.41076 6.28555 1.55946 5.4262 1.56248 5.40081C1.57407 5.30324 1.56891 5.18244 1.58517 5.08747C1.61041 4.94001 1.6195 4.84417 1.62203 4.82942C1.73262 3.57604 2.09645 3.06605 2.79871 2.2911C3.10238 1.95599 3.37353 1.74605 3.72065 1.47849L3.7254 1.46559C3.74659 1.45068 3.76783 1.43561 3.78914 1.42048C3.95744 1.30102 4.13066 1.17806 4.3268 1.10652C4.3363 1.10305 4.3419 1.10223 4.34631 1.10159C4.35456 1.10039 4.35868 1.09979 4.37642 1.08357L4.36862 1.07307C4.36891 1.07305 4.36881 1.07292 4.36862 1.07307C4.3614 1.07859 4.01978 1.196 3.83679 1.25888C3.78046 1.27824 3.73916 1.29243 3.72729 1.2966L3.73822 1.27148C3.71074 1.26833 3.68177 1.28284 3.65263 1.29744C3.64453 1.3015 3.6364 1.30557 3.6283 1.30927C2.97724 1.63396 2.27874 2.17526 2.01087 2.40532Z" fill="white"/>
<path d="M1.0705 3.01574C1.10518 2.94429 1.31692 2.68113 1.37414 2.61149C1.88961 1.98408 2.72795 1.2928 3.49612 1.00099C3.49612 1.00099 3.91492 0.816296 3.85236 0.848029C3.99982 0.792723 4.12884 0.755859 4.12884 0.755859C4.14638 0.765742 3.64961 1.23508 3.59431 1.29039L3.55745 1.32725L3.52058 1.36412C3.40999 1.45628 3.31008 1.48334 3.18881 1.54844C2.61742 1.89864 2.13554 2.26687 1.72846 2.75355C1.57218 2.94041 1.45859 3.12496 1.31674 3.30197C1.35265 3.13493 1.86594 2.55511 2.01094 2.40524C1.88603 2.39164 1.76678 2.42427 1.61987 2.41193C1.47398 2.50165 1.21188 2.87638 1.09483 3.02071L1.0705 3.01574Z" fill="white"/>
<path d="M2.923 4.96516C2.93287 4.94637 2.96596 4.81135 2.97265 4.78368C3.12987 4.13425 3.60875 3.20843 4.14884 2.79834C4.13005 2.88011 3.99591 2.97818 3.93686 3.04334C3.86227 3.12567 3.55964 3.47019 3.54292 3.56247L3.55472 3.56747C3.71602 3.43178 3.69834 3.36878 3.92897 3.54975C3.93789 3.55675 3.94599 3.63148 3.94769 3.64642C3.92528 3.70287 3.87354 3.80259 3.87177 3.84946L3.89409 3.86409L3.8821 3.8859C3.86804 3.91181 3.86621 3.91596 3.85961 3.94564L3.8767 3.95858C3.90915 3.94745 3.92258 3.93046 3.94743 3.9069C3.97506 3.90215 3.96271 3.89918 3.98476 3.91457C3.27474 4.53159 2.93082 5.14614 2.8241 6.09047C2.79037 5.721 2.8728 5.32914 2.923 4.96516Z" fill="white"/>
<path d="M2.81983 5.00507C2.83869 5.02929 2.74089 5.64922 2.75498 5.73426C2.76093 5.77015 2.75032 5.91177 2.75935 5.97119C2.81479 5.89573 2.80713 5.19028 2.92305 4.96533C2.87286 5.3293 2.79042 5.72117 2.82416 6.09064C2.82021 6.19466 2.81818 6.30192 2.80576 6.40501L2.79704 6.41017L2.78435 6.40208L2.77364 6.34746C2.69111 6.19024 2.73709 5.14942 2.81983 5.00507Z" fill="white"/>
<path d="M8.89349 7.51481L9.25296 6.93042C9.27607 7.03591 9.47136 7.28837 9.51101 7.39122C9.62164 7.67675 9.78478 7.70464 9.91652 7.98106C10.0768 8.26552 10.3437 8.46413 10.5248 8.73677C10.6486 8.92329 10.8793 9.1801 10.9856 9.34503C10.8381 9.62151 9.9463 10.4143 9.74954 10.5587C9.6303 10.6456 9.40495 10.7956 9.30539 10.8872C9.02159 11.0439 8.75301 11.2049 8.46304 11.3529C8.37068 11.4001 8.05974 11.5275 8.00226 11.5682C7.34415 11.8163 6.92153 11.9457 6.2261 12.0546C6.09245 12.0811 5.66046 12.1274 5.58105 12.1538C5.51122 12.1529 5.30667 12.1469 5.24739 12.1576C4.65284 12.2649 4.15917 12.5334 3.72759 12.9456C3.17588 13.4726 2.80154 14.3571 2.79335 15.1166C2.79251 15.3743 2.82064 15.6312 2.87725 15.8826C2.88934 15.9356 2.94959 16.1272 2.95238 16.1606C2.9276 16.2292 3.0539 16.4725 3.08691 16.5422C3.40326 17.2092 3.94601 17.7422 4.61852 18.0464C4.73575 18.0988 4.85087 18.143 4.96999 18.1888C5.06911 18.227 5.22647 18.2414 5.30508 18.2979C5.23065 18.2751 5.06166 18.2741 4.97653 18.2652C3.63873 18.1235 2.44538 17.3168 1.73257 16.1881C1.60162 15.9807 1.52586 15.7922 1.40872 15.5897L1.38942 15.59C1.34805 15.5249 1.27617 15.3229 1.24949 15.2418C1.05559 14.6721 0.977106 14.0695 1.0186 13.4692C1.0959 12.4501 1.48775 11.5011 2.17361 10.7428C2.31998 10.581 2.4802 10.4465 2.64494 10.3051L2.63581 10.2757C2.68131 10.2247 2.90093 10.1057 2.97032 10.0677C3.40526 9.82693 3.87058 9.6457 4.35379 9.52886C4.56981 9.47694 4.82864 9.43586 5.03435 9.38024L5.04866 9.37628C5.2409 9.40651 5.56255 9.33612 5.76416 9.33079C5.82516 9.31137 5.9706 9.28794 6.03905 9.27432C6.19272 9.24427 6.34469 9.20608 6.49431 9.15991C7.44405 8.85969 8.25283 8.27021 8.89349 7.51481Z" fill="white"/>
<path d="M8.89351 7.51479L9.27142 6.93042C9.29453 7.03591 9.43452 7.25151 9.47418 7.35436C9.64006 7.63084 9.76909 7.77829 9.95341 8.03634C9.92304 8.09007 9.16883 8.93214 9.1143 8.98409C8.50085 9.56859 7.65314 10.0531 6.83267 10.2821C6.50108 10.3757 6.16414 10.4492 5.82367 10.5021C5.56202 10.5437 5.29947 10.5677 5.04066 10.6082C4.56773 10.6794 4.10715 10.8166 3.67231 11.0157C3.57858 11.0585 3.34153 11.176 3.2638 11.237C3.15615 11.2751 2.62985 11.6841 2.60575 11.7077C2.605 11.7085 2.60474 11.7088 2.60497 11.7088C2.60523 11.7084 2.60549 11.7081 2.60575 11.7077C2.66462 11.6273 2.81268 11.5312 2.89574 11.448L2.88021 11.4361C2.79314 11.4376 2.74542 11.5293 2.68501 11.4892C2.70092 11.456 2.7006 11.4687 2.69917 11.436C2.6843 11.4334 2.58428 11.4143 2.57965 11.4096C2.46926 11.2961 2.48255 11.2063 2.331 11.1183C2.33113 11.088 2.35179 11.0763 2.37759 11.0461C2.35671 11.0285 2.35457 11.0258 2.33846 11.0049C2.33804 11.0044 2.33762 11.0038 2.33719 11.0033C2.34837 10.9573 2.41842 10.9323 2.44 10.893C2.45925 10.8555 2.45657 10.7614 2.4863 10.736C3.02264 10.2776 3.68171 9.98009 4.34475 9.75444C4.80041 9.59937 5.28548 9.59514 5.75247 9.49457C5.79644 9.48509 5.88872 9.47607 5.91015 9.45081C5.88341 9.38099 5.93722 9.40802 5.92677 9.35232C5.86424 9.34012 5.82713 9.35272 5.76418 9.33078C5.82518 9.31136 5.97062 9.28792 6.03907 9.27431C6.19275 9.24426 6.34471 9.20607 6.49433 9.1599C7.44407 8.85968 8.25286 8.27019 8.89351 7.51479Z" fill="white"/>
<path d="M2.60497 11.7088C2.60474 11.7088 2.605 11.7085 2.60575 11.7077C2.66462 11.6273 2.81268 11.5312 2.89574 11.448L2.88021 11.4361C2.79314 11.4376 2.74542 11.5293 2.68501 11.4892C2.70092 11.456 2.7006 11.4687 2.69917 11.436C2.6843 11.4334 2.58428 11.4143 2.57965 11.4096C2.46926 11.2961 2.48255 11.2063 2.331 11.1183C2.33113 11.088 2.35179 11.0763 2.37759 11.0461C2.35671 11.0285 2.35457 11.0258 2.33846 11.0049L2.33719 11.0033C2.34837 10.9573 2.41842 10.9323 2.44 10.893C2.45925 10.8555 2.45657 10.7614 2.4863 10.736C2.29289 10.8477 1.99932 11.2316 1.87671 11.4096C1.51328 12.0391 1.2051 13.6133 1.09644 14.3217C1.38881 13.2305 2.22395 12.1251 2.60497 11.7088Z" fill="white"/>
<path fill-rule="evenodd" clip-rule="evenodd" d="M10.2851 8.42357C10.4326 8.64476 10.4677 8.62575 10.6169 8.85042C10.6786 8.94333 10.7589 9.06132 10.8381 9.16085C10.9178 9.26112 10.9322 9.28083 10.9855 9.3636C10.8111 9.53423 9.94625 10.4145 9.74949 10.5588C9.71652 10.5828 9.67545 10.6117 9.63116 10.6428C9.51526 10.7242 9.37738 10.8211 9.30534 10.8873C9.20931 10.9404 9.11501 10.9939 9.02104 11.0472C8.92648 11.1009 8.83218 11.1545 8.73682 11.2071L8.71839 11.2252L8.68858 11.2437L8.6631 11.2621L8.64467 11.2805L8.58937 11.3174L8.44207 11.3727L8.36819 11.428C8.36819 11.428 6.96193 11.8867 6.94716 11.8944C6.93794 11.8921 6.72734 11.5379 6.6261 11.5074C6.56396 11.4886 6.45646 11.428 6.45646 11.428C6.33895 11.3541 6.29909 11.2826 6.20277 11.1675C6.14607 11.0997 6.09003 11.0327 6.03107 10.9758C5.99971 10.9456 5.96079 10.9199 5.92162 10.894C5.88149 10.8676 5.8411 10.8409 5.80831 10.809C5.77375 10.7776 5.72878 10.7643 5.68372 10.7509C5.6227 10.7328 5.56151 10.7146 5.52582 10.6515L5.40063 10.5568C7.33599 10.3589 8.50079 9.56876 9.11423 8.98426C9.12645 8.97263 9.14596 8.95481 9.16924 8.93356C9.24989 8.85993 9.92978 8.09662 9.95334 8.05493C9.98148 8.1049 10.2582 8.37542 10.2851 8.42357ZM5.4726 10.5505C5.4559 10.5526 5.4392 10.5547 5.42251 10.5568Z" fill="white"/>
<path d="M2.63574 10.2756L2.64486 10.3051C2.48013 10.4465 2.3199 10.581 2.17354 10.7428C1.48768 11.501 1.09583 12.4501 1.01853 13.4691C0.977032 14.0694 1.05551 14.6721 1.24941 15.2418C1.2761 15.3228 1.34798 15.5249 1.38935 15.5899C1.82042 16.5899 2.61126 17.407 3.58173 17.8836C3.6759 17.9299 3.77149 17.9619 3.86656 18.0122L3.85104 18.0184C3.78481 17.9877 3.73205 17.9771 3.66546 17.9458C3.09663 17.6857 2.58824 17.3098 2.17271 16.8423C2.05701 16.7147 1.94957 16.5815 1.84603 16.4439C1.78482 16.3625 1.7088 16.1306 1.57944 16.1674C1.52714 16.2666 1.81343 16.5837 1.88907 16.6789C2.31902 17.2299 2.87509 17.6692 3.51041 17.9602C3.61625 18.0088 3.70713 18.0477 3.81584 18.0893C3.88454 18.1156 4.04025 18.1588 4.09461 18.1918C4.06396 18.1992 3.98653 18.1673 3.94685 18.1559C3.65043 18.0707 3.24553 17.8729 2.98829 17.7075C1.98671 17.0636 1.20928 15.9775 0.957992 14.8098C0.706039 13.639 0.932446 12.4743 1.55003 11.454C1.64228 11.3027 1.74573 11.1583 1.85014 11.0152C1.90882 10.9346 1.97869 10.8623 2.03089 10.7773C2.11076 10.6584 2.50688 10.3693 2.63574 10.2756Z" fill="white"/>
<path d="M3.86656 18.0122L3.85104 18.0184C3.78481 17.9877 3.73205 17.9771 3.66546 17.9458C3.09663 17.6857 2.58824 17.3098 2.17271 16.8423C2.05701 16.7147 1.94957 16.5815 1.84603 16.4439C1.78482 16.3625 1.7088 16.1306 1.57944 16.1674C1.52714 16.2666 1.81343 16.5837 1.88907 16.6789C2.31902 17.2299 2.87509 17.6692 3.51041 17.9602C3.61625 18.0088 3.70713 18.0477 3.81584 18.0893C3.88454 18.1156 4.04025 18.1588 4.09461 18.1918L3.86656 18.0122Z" fill="white"/>
<path d="M2.24876 10.5801L1.88012 10.9856C1.71539 11.127 1.46315 11.3278 1.31679 11.4896C0.630926 12.2479 0.239076 13.1969 0.161775 14.2159C0.120282 14.8162 0.198762 15.4189 0.392662 15.9886C0.41935 16.0696 0.491225 16.2717 0.532596 16.3368C0.963667 17.3368 1.75451 18.1538 2.72498 18.6304C2.81915 18.6767 2.91474 18.7087 3.00981 18.7591L2.99429 18.7652C2.92806 18.7345 2.8753 18.7239 2.80871 18.6926C2.23988 18.4325 1.73149 18.0566 1.31596 17.5891C1.20026 17.4615 1.09282 17.3283 0.989275 17.1907C0.928067 17.1093 0.852054 16.8774 0.72269 16.9142C0.670394 17.0134 0.956682 17.3305 1.03231 17.4258C1.46227 17.9767 2.01834 18.4161 2.65365 18.707C2.7595 18.7556 2.85038 18.7945 2.95909 18.8361C3.02779 18.8624 3.1835 18.9056 3.23786 18.9387C3.2072 18.946 3.12978 18.9141 3.0901 18.9027C2.79368 18.8175 2.38878 18.6197 2.13154 18.4544C1.12996 17.8104 0.352531 16.7243 0.101242 15.5566C-0.150711 14.3859 0.0756953 13.2211 0.693276 12.2008C0.78553 12.0495 0.88898 11.9051 0.993387 11.762C1.05207 11.6814 1.12194 11.6091 1.17414 11.5241C1.25401 11.4052 2.1199 10.6737 2.24876 10.5801Z" fill="white"/>
<path d="M3.00981 18.7591L2.99429 18.7652C2.92806 18.7345 2.8753 18.7239 2.80871 18.6926C2.23988 18.4325 1.73149 18.0566 1.31596 17.5891C1.20026 17.4615 1.09282 17.3283 0.989275 17.1907C0.928067 17.1093 0.852054 16.8774 0.72269 16.9142C0.670394 17.0134 0.956682 17.3305 1.03231 17.4258C1.46227 17.9767 2.01834 18.4161 2.65365 18.707C2.7595 18.7556 2.85038 18.7945 2.95909 18.8361C3.02779 18.8624 3.1835 18.9056 3.23786 18.9387L3.00981 18.7591Z" fill="white"/>
<path d="M10.1011 19.4238L10.0905 19.4135C10.1069 19.3764 10.1766 19.3218 10.2088 19.2912C10.3535 19.1536 10.5385 18.9928 10.5776 18.7888C10.4284 18.7118 10.605 18.6243 10.6224 18.5542C10.5411 18.4308 10.4607 18.3068 10.3816 18.182C10.2644 17.995 9.71277 16.9784 9.75328 16.8013C9.96525 17.3899 10.2064 17.9149 10.5697 18.4262C10.6378 18.5221 10.7089 18.6189 10.7747 18.7158C10.6538 18.8516 10.2307 19.3506 10.1011 19.4238Z" fill="white"/>
<path d="M9.21601 15.2432C9.09895 16.0112 9.17914 17.9649 7.66772 18.8375C6.30375 19.625 4.90292 19.693 3.70484 19.372C2.50676 19.051 0.675919 17.6763 0.147463 15.704C-0.380993 13.7318 0.533946 12.1467 1.30809 11.3725C1.73995 10.9407 2.12539 10.6391 2.38173 10.4627C2.48273 10.3765 2.56986 10.3258 2.63578 10.3035C2.57993 10.3332 2.49299 10.3862 2.38173 10.4627C2.03754 10.7566 1.53231 11.4633 1.15659 12.8655C0.670604 14.6792 1.68218 16.3 2.24871 16.8837C2.82625 17.5784 4.58589 18.8059 7.00417 18.1579C7.57626 17.9851 8.74583 16.998 9.21601 15.2432Z" fill="white"/>
<path d="M5.60339 12.1467C7.92583 11.8518 8.90272 11.0961 9.30823 10.8933C9.89805 11.3725 10.1254 11.5999 10.322 11.8149L7.7968 13.2342C6.85677 12.331 6.03347 12.2819 5.60339 12.1467Z" fill="white"/>
<path d="M7.39125 2.3776C6.58024 2.14167 4.89064 2.61108 4.23938 2.76468C4.56501 2.30388 6.30376 1.41915 7.50184 1.49286C8.69992 1.56656 10.0639 2.17487 10.6721 2.96742C11.4832 3.81531 11.3541 3.79688 12.2942 6.11931C13.2379 7.93302 14.4999 9.07458 14.9668 9.30805L14.3217 10.3034C13.4615 9.86713 11.5274 8.40117 10.6721 6.02713C9.60309 3.05958 8.40501 2.67251 7.39125 2.3776Z" fill="white"/>
<path fill-rule="evenodd" clip-rule="evenodd" d="M20.5 15.6334C20.4987 15.6234 20.4974 15.6134 20.496 15.6033L20.493 15.5939C20.4954 15.607 20.4977 15.6202 20.5 15.6334ZM10.3626 4.7117C10.3638 4.71249 10.365 4.71333 10.3671 4.71483C10.3687 4.716 10.3709 4.71757 10.374 4.71982L10.3841 4.72715C10.4231 4.70135 10.4186 4.37462 10.4033 4.33966C10.3051 4.11587 10.2753 3.85962 10.3 3.61751C10.3048 3.57088 10.3139 3.52571 10.323 3.48069C10.3427 3.38305 10.3622 3.28607 10.337 3.17619C10.3125 3.04889 10.2867 2.95437 10.2341 2.83473C10.2227 2.76966 10.2209 2.73021 10.2196 2.70019C10.2168 2.6391 10.2157 2.61711 10.1398 2.49794L10.1547 2.49272C10.2341 2.5685 10.3538 2.67544 10.4458 2.73313C10.4564 2.74974 10.5439 2.83654 10.6383 2.93011C10.7336 3.02467 10.836 3.12614 10.8729 3.16903C10.9813 3.29734 11.0835 3.43085 11.179 3.56908C11.1947 3.59129 11.2093 3.61371 11.2236 3.63596C11.2257 3.63913 11.2277 3.64231 11.2298 3.64547" fill="white"/>
<path fill-rule="evenodd" clip-rule="evenodd" d="M15.4156 0.447884C13.9813 0.476413 12.3018 1.16588 11.3056 2.20052C11.2887 2.21871 11.2724 2.23623 11.2566 2.25318C11.0648 2.45925 10.9506 2.58193 10.7707 2.82784C10.908 3.01402 11.3206 3.60127 11.3703 3.793L11.3375 3.79248C11.2957 3.74779 11.2631 3.69723 11.2298 3.64547C11.2134 3.62011 11.1969 3.59446 11.179 3.56908C11.0835 3.43085 10.9813 3.29734 10.8729 3.16903C10.836 3.12614 10.7336 3.02467 10.6383 2.93011C10.5439 2.83654 10.4564 2.74974 10.4458 2.73313C10.3538 2.67544 10.2341 2.5685 10.1547 2.49272L10.1398 2.49794C10.2157 2.61711 10.2168 2.6391 10.2196 2.70019C10.2209 2.73021 10.2227 2.76966 10.2341 2.83473C10.2867 2.95437 10.3125 3.04889 10.337 3.17619C10.3622 3.28607 10.3427 3.38305 10.323 3.48069C10.3139 3.52571 10.3048 3.57088 10.3 3.61751C10.2753 3.85962 10.3051 4.11587 10.4033 4.33966C10.4186 4.37462 10.4231 4.70135 10.3841 4.72715L10.374 4.71982C10.372 4.71835 10.3703 4.71717 10.369 4.71621C10.3656 4.71379 10.3641 4.7127 10.3626 4.7117C10.3613 4.71088 10.36 4.71011 10.3576 4.70872C10.356 4.70776 10.3538 4.7065 10.3508 4.70472C10.3522 4.71095 10.3536 4.71692 10.355 4.72271C10.3657 4.76912 10.3736 4.80334 10.3809 4.85358C10.3873 4.89811 10.4123 4.95679 10.4364 5.01346C10.4551 5.05752 10.4733 5.10036 10.4819 5.13437C10.4729 5.19369 10.4813 5.236 10.4905 5.28208C10.4959 5.30934 10.5016 5.33791 10.5041 5.37211C10.5385 5.84772 9.44769 5.91863 9.43725 6.39602C9.43589 6.45766 9.40037 6.58034 9.36352 6.6725C9.36352 6.6725 9.36352 6.70937 9.32666 6.78309L9.27136 6.89369C9.2752 7.15684 10.0271 8.16549 10.2483 8.40511L10.3588 8.53413L10.4326 8.62629L10.4694 8.66316L10.5063 8.70002C10.5063 8.70002 10.9325 9.31475 10.9905 9.35318C11.0323 9.40294 11.0738 9.45337 11.1152 9.5038C11.211 9.6202 11.3071 9.73695 11.4082 9.84738C12.5134 11.0542 14.0231 11.9699 15.6748 12.1132C15.7472 12.1192 15.8197 12.1246 15.8923 12.1294C16.0302 12.1035 16.1553 12.1132 16.2863 12.1233C16.3366 12.1272 16.3878 12.1311 16.4409 12.1332C17.2252 12.1636 17.9846 12.4068 18.6388 12.8516C19.4218 13.3851 20.0151 14.1536 20.3329 15.0462C20.3909 15.2077 20.4618 15.4271 20.493 15.5939L20.496 15.6033C20.6878 16.1965 21.0557 17.4007 21.0164 17.5474C20.9769 17.6948 21.2071 17.0157 21.3271 16.6576C21.373 16.5095 21.408 16.3582 21.4317 16.2049C21.6866 14.6509 21.3425 13.0136 20.4022 11.7407C20.2235 11.5002 20.0303 11.2707 19.8239 11.0535C19.7905 11.018 19.7519 10.9828 19.7128 10.9472C19.645 10.8854 19.5757 10.8222 19.5298 10.7536C20.5141 9.83269 21.2233 8.72635 21.4313 7.37115C21.456 7.27411 21.4686 7.1289 21.4793 7.00666C21.4824 6.97059 21.4854 6.93653 21.4884 6.90629C21.5455 6.33948 21.5038 5.81499 21.4031 5.25575C21.1436 4.03078 20.5883 2.98672 19.682 2.113C18.5337 1.01921 17.0012 0.421098 15.4156 0.447884ZM12.611 6.72665C12.5334 6.58144 12.4255 6.37857 12.386 6.22234C12.3787 6.07926 12.4192 5.82831 12.4469 5.65722C12.45 5.63793 12.4529 5.61966 12.4556 5.60267C12.6633 4.7863 13.1592 4.08788 13.8872 3.65559C14.6334 3.21233 15.5257 3.08605 16.3655 3.30493C16.8998 3.44466 17.5066 3.81167 17.8742 4.21821C18.84 5.28626 18.9947 6.75176 18.2682 7.98739C18.2362 8.01984 18.2082 8.06433 18.1813 8.10715C18.1692 8.12647 18.1573 8.14545 18.1453 8.16283C17.7746 8.69976 16.9754 9.32703 16.3109 9.38584C15.9012 9.46905 14.9845 9.12646 14.6128 8.9026C13.7471 8.38116 13.0851 7.6141 12.611 6.72665Z" fill="white"/>
<path d="M10.9855 9.34477C10.4104 8.72545 9.58468 7.50157 9.2529 6.96704C9.13494 7.26195 8.62007 7.8272 8.36816 8.07296L9.99018 10.3401C10.4325 10.0847 10.8381 9.57013 10.9855 9.34477Z" fill="white"/>
<path d="M16.3124 9.40024C17.0202 9.40024 18.7331 10.3095 19.5011 10.7642C19.6928 10.602 20.1954 10.0085 20.4227 9.73201L17.9713 8.42334C17.6026 8.96893 16.7117 9.30193 16.3124 9.40024Z" fill="white"/>
</g>
<defs>
<clipPath id="clip0_959_10314">
<rect width="21.5286" height="21.5286" fill="white"/>
</clipPath>
</defs>
</svg>
