<svg width="24" height="24" viewBox="0 0 24 24" fill="none" xmlns="http://www.w3.org/2000/svg">
<path d="M12.8366 18.623C12.8357 18.6335 12.8357 18.644 12.8366 18.6545C12.8534 19.0246 13.0076 19.3738 13.2673 19.6296C13.527 19.8854 13.8722 20.0282 14.2312 20.0282C14.5902 20.0282 14.9354 19.8854 15.1951 19.6296C15.4548 19.3738 15.6091 19.0246 15.6259 18.6545V18.6199V15.1589H12.8366V18.623Z" fill="#2392D4"/>
<path d="M19.3482 6.63524e-05H17.4886C16.8794 -0.003248 16.2755 0.117634 15.7117 0.355777C15.1478 0.593919 14.6351 0.944636 14.2029 1.3878C13.7707 1.83096 13.4275 2.35785 13.1931 2.93823C12.9587 3.51861 12.8376 4.14105 12.8368 4.76985V10.559H4.65185C4.04237 10.5557 3.43826 10.6767 2.87421 10.915C2.31017 11.1534 1.79729 11.5044 1.36505 11.9479C0.932801 12.3914 0.589699 12.9186 0.355444 13.4994C0.12119 14.0801 0.000397089 14.7029 4.04657e-06 15.332V19.1704C-0.00162238 20.4469 0.487087 21.672 1.35904 22.5773C2.231 23.4826 3.41509 23.9942 4.65185 24H6.51137C7.74813 23.9942 8.93222 23.4826 9.80418 22.5773C10.6761 21.672 11.1648 20.4469 11.1632 19.1704V15.332C11.1662 15.2775 11.1662 15.2228 11.1632 15.1684H8.37089V19.1704C8.37254 19.6829 8.17812 20.1753 7.8299 20.5406C7.48169 20.9059 7.00783 21.1145 6.51137 21.1211H4.65185C4.15539 21.1145 3.68153 20.9059 3.33332 20.5406C2.9851 20.1753 2.79068 19.6829 2.79233 19.1704V15.332C2.7923 15.0814 2.8406 14.8333 2.93442 14.6022C3.02823 14.3711 3.16569 14.1616 3.33878 13.9859C3.51186 13.8101 3.7171 13.6717 3.94254 13.5787C4.16798 13.4858 4.40911 13.44 4.65185 13.4442H19.3482C20.5844 13.4384 21.768 12.9272 22.6399 12.0226C23.5118 11.118 24.0008 9.89372 24 8.61777V4.76985C23.9992 4.14105 23.8781 3.51861 23.6437 2.93823C23.4092 2.35785 23.0661 1.83096 22.6339 1.3878C22.2017 0.944636 21.6889 0.593919 21.1251 0.355777C20.5612 0.117634 19.9574 -0.003248 19.3482 6.63524e-05ZM21.2077 8.61148C21.2077 9.12313 21.0127 9.61426 20.6647 9.97869C20.3168 10.3431 19.8438 10.5516 19.3482 10.559H15.6261V4.76985C15.626 4.519 15.6744 4.27067 15.7684 4.03935C15.8624 3.80802 16.0002 3.59836 16.1736 3.4226C16.347 3.24685 16.5526 3.10852 16.7784 3.01571C17.0042 2.92291 17.2456 2.87747 17.4886 2.88207H19.3482C19.5909 2.8779 19.832 2.92364 20.0575 3.01664C20.2829 3.10964 20.4881 3.24803 20.6612 3.42374C20.8343 3.59946 20.9718 3.80898 21.0656 4.04009C21.1594 4.2712 21.2077 4.51927 21.2077 4.76985V8.61148Z" fill="#2392D4"/>
</svg>
