<svg width="16" height="17" viewBox="0 0 16 17" fill="none" xmlns="http://www.w3.org/2000/svg">
<path d="M14 4.48665C11.78 4.26665 9.54667 4.15332 7.32 4.15332C6 4.15332 4.68 4.21999 3.36 4.35332L2 4.48665" stroke="#F84616" stroke-width="1.5" stroke-linecap="round" stroke-linejoin="round"/>
<path d="M5.66699 3.81325L5.81366 2.93992C5.92033 2.30659 6.00033 1.83325 7.12699 1.83325H8.87366C10.0003 1.83325 10.087 2.33325 10.187 2.94659L10.3337 3.81325" stroke="#F84616" stroke-width="1.5" stroke-linecap="round" stroke-linejoin="round"/>
<path d="M12.5669 6.59326L12.1336 13.3066C12.0603 14.3533 12.0003 15.1666 10.1403 15.1666H5.86026C4.00026 15.1666 3.94026 14.3533 3.86693 13.3066L3.43359 6.59326" stroke="#F84616" stroke-width="1.5" stroke-linecap="round" stroke-linejoin="round"/>
<path d="M6.88672 11.5H9.10672" stroke="#F84616" stroke-width="1.5" stroke-linecap="round" stroke-linejoin="round"/>
<path d="M6.33301 8.83325H9.66634" stroke="#F84616" stroke-width="1.5" stroke-linecap="round" stroke-linejoin="round"/>
</svg>
